MFEM mesh v1.0

#
# MFEM Geometry Types (see fem/geom.hpp):
#
# POINT       = 0
# SEGMENT     = 1
# TRIANGLE    = 2
# SQUARE      = 3
# TETRAHEDRON = 4
# CUBE        = 5
# PRISM       = 6
# PYRAMID     = 7
#

dimension
2

elements
1800
2 2 3 0 1
2 2 4 1 6
2 2 24 2 3
2 2 0 3 2
2 2 23 3 4
2 2 1 4 3
2 2 22 4 5
2 2 6 5 4
2 2 14 5 13
2 2 5 6 7
2 2 13 7 8
2 2 11 8 9
2 2 12 9 10
2 2 94 10 95
2 2 8 11 13
2 2 16 11 12
2 2 9 12 11
2 2 89 12 94
2 2 7 13 5
2 2 15 13 11
2 2 5 14 22
2 2 17 14 15
2 2 13 15 14
2 2 18 15 16
2 2 11 16 15
2 2 88 16 89
2 2 14 17 19
2 2 55 17 18
2 2 15 18 17
2 2 56 18 88
2 2 22 19 21
2 2 54 19 17
2 2 24 20 27
2 2 31 20 21
2 2 23 21 20
2 2 53 21 19
2 2 4 22 23
2 2 19 22 14
2 2 3 23 24
2 2 21 23 22
2 2 2 24 25
2 2 20 24 23
2 2 27 25 24
2 2 29 26 27
2 2 25 27 26
2 2 30 27 20
2 2 34 28 29
2 2 26 29 28
2 2 32 29 30
2 2 27 30 29
2 2 33 30 31
2 2 20 31 30
2 2 52 31 53
2 2 29 32 34
2 2 43 32 33
2 2 30 33 32
2 2 44 33 52
2 2 28 34 35
2 2 42 34 32
2 2 37 35 34
2 2 39 36 37
2 2 35 37 36
2 2 40 37 42
2 2 342 38 39
2 2 36 39 38
2 2 341 39 40
2 2 37 40 39
2 2 340 40 41
2 2 42 41 40
2 2 336 41 45
2 2 34 42 37
2 2 41 42 43
2 2 32 43 42
2 2 45 43 44
2 2 33 44 43
2 2 46 44 48
2 2 43 45 41
2 2 335 45 46
2 2 44 46 45
2 2 334 46 47
2 2 48 47 46
2 2 318 47 63
2 2 52 48 44
2 2 47 48 49
2 2 51 49 48
2 2 63 49 62
2 2 54 50 51
2 2 62 50 61
2 2 53 51 52
2 2 49 51 50
2 2 31 52 33
2 2 48 52 51
2 2 21 53 31
2 2 51 53 54
2 2 19 54 53
2 2 50 54 55
2 2 17 55 54
2 2 61 55 56
2 2 18 56 55
2 2 59 56 57
2 2 88 57 56
2 2 60 57 58
2 2 87 58 57
2 2 76 58 77
2 2 56 59 61
2 2 67 59 60
2 2 57 60 59
2 2 68 60 76
2 2 55 61 50
2 2 66 61 59
2 2 50 62 49
2 2 64 62 66
2 2 49 63 47
2 2 317 63 64
2 2 62 64 63
2 2 316 64 65
2 2 66 65 64
2 2 312 65 69
2 2 61 66 62
2 2 65 66 67
2 2 59 67 66
2 2 69 67 68
2 2 60 68 67
2 2 70 68 72
2 2 67 69 65
2 2 311 69 70
2 2 68 70 69
2 2 310 70 71
2 2 72 71 70
2 2 200 71 199
2 2 76 72 68
2 2 71 72 73
2 2 75 73 72
2 2 199 73 194
2 2 78 74 75
2 2 194 74 192
2 2 77 75 76
2 2 73 75 74
2 2 58 76 60
2 2 72 76 75
2 2 86 77 58
2 2 75 77 78
2 2 85 78 77
2 2 74 78 79
2 2 80 79 78
2 2 192 79 191
2 2 84 80 85
2 2 79 80 81
2 2 83 81 80
2 2 191 81 112
2 2 100 82 83
2 2 112 82 110
2 2 99 83 84
2 2 81 83 82
2 2 92 84 91
2 2 80 84 83
2 2 91 85 86
2 2 78 85 80
2 2 90 86 87
2 2 77 86 85
2 2 89 87 88
2 2 58 87 86
2 2 16 88 18
2 2 57 88 87
2 2 12 89 16
2 2 87 89 90
2 2 94 90 89
2 2 86 90 91
2 2 93 91 90
2 2 85 91 84
2 2 96 92 93
2 2 84 92 99
2 2 95 93 94
2 2 91 93 92
2 2 10 94 12
2 2 90 94 93
2 2 93 95 96
2 2 92 96 97
2 2 99 97 98
2 2 100 98 102
2 2 97 99 92
2 2 83 99 100
2 2 98 100 99
2 2 82 100 101
2 2 102 101 100
2 2 110 101 109
2 2 101 102 103
2 2 109 103 104
2 2 108 104 105
2 2 107 105 106
2 2 123 106 125
2 2 105 107 108
2 2 116 107 123
2 2 104 108 109
2 2 115 108 107
2 2 103 109 101
2 2 111 109 108
2 2 101 110 82
2 2 113 110 111
2 2 109 111 110
2 2 114 111 115
2 2 82 112 81
2 2 190 112 113
2 2 110 113 112
2 2 189 113 114
2 2 111 114 113
2 2 185 114 118
2 2 108 115 111
2 2 118 115 116
2 2 107 116 115
2 2 119 116 117
2 2 123 117 116
2 2 120 117 121
2 2 115 118 114
2 2 184 118 119
2 2 116 119 118
2 2 183 119 120
2 2 117 120 119
2 2 152 120 150
2 2 124 121 117
2 2 150 121 149
2 2 126 122 124
2 2 149 122 130
2 2 106 123 107
2 2 117 123 124
2 2 125 124 123
2 2 121 124 122
2 2 124 125 126
2 2 122 126 127
2 2 130 127 128
2 2 131 128 129
1 2 132 129 133
2 2 127 130 122
2 2 148 130 131
2 2 128 131 130
1 2 147 131 132
1 2 129 132 131
1 2 140 132 139
1 2 139 133 134
1 2 138 134 135
1 2 137 135 136
1 2 951 136 953
1 2 135 137 138
1 2 945 137 951
1 2 134 138 139
1 2 142 138 137
1 2 133 139 132
1 2 141 139 138
1 2 132 140 147
1 2 144 140 141
1 2 139 141 140
1 2 143 141 142
1 2 138 142 141
1 2 943 142 945
1 2 141 143 144
1 2 929 143 943
1 2 140 144 145
1 2 160 144 143
1 2 147 145 146
1 2 159 145 144
1 2 148 146 151
1 2 158 146 145
1 2 131 147 148
1 2 145 147 140
2 2 130 148 149
1 2 146 148 147
2 2 122 149 121
2 2 151 149 148
2 2 121 150 120
2 2 153 150 151
2 2 149 151 150
1 2 157 151 146
2 2 120 152 183
2 2 155 152 153
2 2 150 153 152
1 2 156 153 157
2 2 183 154 182
2 2 172 154 155
2 2 152 155 154
1 2 171 155 156
1 2 153 156 155
1 2 164 156 163
1 2 151 157 153
1 2 163 157 158
1 2 146 158 157
1 2 162 158 159
1 2 145 159 158
1 2 161 159 160
1 2 144 160 159
1 2 927 160 929
1 2 159 161 162
1 2 921 161 927
1 2 158 162 163
1 2 166 162 161
1 2 157 163 156
1 2 165 163 162
1 2 156 164 171
1 2 168 164 165
1 2 163 165 164
1 2 167 165 166
1 2 162 166 165
1 2 919 166 921
1 2 165 167 168
1 2 906 167 919
1 2 164 168 169
1 2 232 168 167
1 2 171 169 170
1 2 231 169 168
1 2 172 170 175
1 2 230 170 169
1 2 155 171 172
1 2 169 171 164
2 2 154 172 173
1 2 170 172 171
2 2 182 173 181
2 2 175 173 172
2 2 181 174 176
2 2 224 174 175
2 2 173 175 174
1 2 229 175 170
2 2 180 176 178
2 2 225 176 174
2 2 196 177 197
2 2 221 177 178
2 2 179 178 177
2 2 223 178 176
2 2 188 179 196
2 2 178 179 180
2 2 186 180 179
2 2 176 180 181
2 2 187 181 180
2 2 174 181 173
2 2 184 182 187
2 2 173 182 154
2 2 119 183 184
2 2 154 183 152
2 2 118 184 185
2 2 182 184 183
2 2 114 185 189
2 2 187 185 184
2 2 189 186 188
2 2 180 186 187
2 2 185 187 186
2 2 181 187 182
2 2 190 188 193
2 2 179 188 186
2 2 113 189 190
2 2 186 189 185
2 2 112 190 191
2 2 188 190 189
2 2 81 191 79
2 2 193 191 190
2 2 79 192 74
2 2 195 192 193
2 2 191 193 192
2 2 196 193 188
2 2 74 194 73
2 2 198 194 195
2 2 192 195 194
2 2 197 195 196
2 2 193 196 195
2 2 177 196 179
2 2 195 197 198
2 2 222 197 177
2 2 194 198 199
2 2 202 198 197
2 2 73 199 71
2 2 201 199 198
2 2 71 200 310
2 2 204 200 201
2 2 199 201 200
2 2 203 201 202
2 2 198 202 201
2 2 220 202 222
2 2 201 203 204
2 2 213 203 220
2 2 200 204 205
2 2 211 204 203
2 2 310 205 308
2 2 206 205 204
2 2 205 206 207
2 2 210 206 211
2 2 308 207 307
2 2 209 207 206
2 2 307 208 302
2 2 277 208 209
2 2 207 209 208
2 2 276 209 210
2 2 206 210 209
2 2 272 210 214
2 2 204 211 206
2 2 214 211 213
2 2 220 212 213
2 2 216 212 217
2 2 203 213 211
2 2 215 213 212
2 2 211 214 210
2 2 271 214 215
2 2 213 215 214
2 2 270 215 216
2 2 212 216 215
2 2 249 216 247
2 2 219 217 212
2 2 247 217 245
2 2 221 218 219
2 2 245 218 226
2 2 222 219 220
2 2 217 219 218
2 2 202 220 203
2 2 212 220 219
2 2 177 221 222
2 2 218 221 223
2 2 197 222 202
2 2 219 222 221
2 2 178 223 221
2 2 226 223 225
2 2 174 224 225
1 2 228 224 229
2 2 176 225 223
2 2 227 225 224
2 2 223 226 218
2 2 244 226 227
2 2 225 227 226
1 2 243 227 228
1 2 224 228 227
1 2 236 228 235
1 2 175 229 224
1 2 235 229 230
1 2 170 230 229
1 2 234 230 231
1 2 169 231 230
1 2 233 231 232
1 2 168 232 231
1 2 904 232 906
1 2 231 233 234
1 2 898 233 904
1 2 230 234 235
1 2 238 234 233
1 2 229 235 228
1 2 237 235 234
1 2 228 236 243
1 2 240 236 237
1 2 235 237 236
1 2 239 237 238
1 2 234 238 237
1 2 896 238 898
1 2 237 239 240
1 2 882 239 896
1 2 236 240 241
1 2 256 240 239
1 2 243 241 242
1 2 255 241 240
1 2 244 242 246
1 2 254 242 241
1 2 227 243 244
1 2 241 243 236
2 2 226 244 245
1 2 242 244 243
2 2 218 245 217
2 2 246 245 244
2 2 245 246 247
1 2 253 246 242
2 2 217 247 216
2 2 248 247 246
2 2 247 248 249
1 2 252 248 253
2 2 216 249 270
2 2 251 249 248
2 2 270 250 269
2 2 264 250 251
2 2 249 251 250
1 2 263 251 252
1 2 248 252 251
1 2 260 252 259
1 2 246 253 248
1 2 259 253 254
1 2 242 254 253
1 2 258 254 255
1 2 241 255 254
1 2 257 255 256
1 2 240 256 255
1 2 880 256 882
1 2 255 257 258
1 2 874 257 880
1 2 254 258 259
1 2 262 258 257
1 2 253 259 252
1 2 261 259 258
1 2 252 260 263
1 2 773 260 261
1 2 259 261 260
1 2 774 261 262
1 2 258 262 261
1 2 775 262 874
1 2 251 263 264
1 2 772 263 260
2 2 250 264 265
1 2 753 264 263
2 2 269 265 268
2 2 752 265 264
2 2 274 266 267
2 2 750 266 268
2 2 275 267 283
2 2 746 267 266
2 2 273 268 266
2 2 751 268 265
2 2 271 269 273
2 2 265 269 250
2 2 215 270 271
2 2 250 270 249
2 2 214 271 272
2 2 269 271 270
2 2 210 272 276
2 2 273 272 271
2 2 272 273 274
2 2 268 273 269
2 2 276 274 275
2 2 266 274 273
2 2 277 275 279
2 2 267 275 274
2 2 209 276 277
2 2 274 276 272
2 2 208 277 278
2 2 275 277 276
2 2 302 278 300
2 2 279 278 277
2 2 278 279 280
2 2 283 279 275
2 2 300 280 299
2 2 282 280 279
2 2 299 281 284
2 2 743 281 282
2 2 280 282 281
2 2 744 282 283
2 2 279 283 282
2 2 745 283 267
2 2 298 284 285
2 2 742 284 281
2 2 297 285 286
2 2 411 285 284
2 2 290 286 289
2 2 410 286 285
2 2 365 287 369
2 2 407 287 288
2 2 292 288 287
2 2 408 288 289
2 2 291 289 288
2 2 409 289 286
2 2 294 290 291
2 2 286 290 297
2 2 293 291 292
2 2 289 291 290
2 2 363 292 365
2 2 288 292 291
2 2 326 293 363
2 2 291 293 294
2 2 325 294 293
2 2 290 294 295
2 2 324 295 294
2 2 297 295 296
2 2 323 296 295
2 2 298 296 301
2 2 295 297 290
2 2 285 297 298
2 2 296 298 297
2 2 284 298 299
2 2 301 299 298
2 2 281 299 280
2 2 303 300 301
2 2 280 300 278
2 2 304 301 296
2 2 299 301 300
2 2 306 302 303
2 2 278 302 208
2 2 305 303 304
2 2 300 303 302
2 2 321 304 323
2 2 301 304 303
2 2 314 305 321
2 2 303 305 306
2 2 313 306 305
2 2 302 306 307
2 2 309 307 306
2 2 208 307 207
2 2 311 308 309
2 2 207 308 205
2 2 312 309 313
2 2 307 309 308
2 2 70 310 311
2 2 205 310 200
2 2 69 311 312
2 2 308 311 310
2 2 65 312 316
2 2 309 312 311
2 2 316 313 314
2 2 306 313 309
2 2 317 314 315
2 2 305 314 313
2 2 318 315 319
2 2 321 315 314
2 2 64 316 317
2 2 313 316 312
2 2 63 317 318
2 2 314 317 316
2 2 47 318 334
2 2 315 318 317
2 2 334 319 332
2 2 322 319 315
2 2 332 320 331
2 2 324 320 322
2 2 315 321 322
2 2 304 321 305
2 2 319 322 320
2 2 323 322 321
2 2 322 323 324
2 2 296 323 304
2 2 320 324 325
2 2 295 324 323
2 2 331 325 326
2 2 294 325 324
2 2 330 326 327
2 2 293 326 325
2 2 329 327 328
2 2 363 327 326
2 2 348 328 350
2 2 364 328 327
2 2 338 329 348
2 2 327 329 330
2 2 337 330 329
2 2 326 330 331
2 2 333 331 330
2 2 325 331 320
2 2 335 332 333
2 2 320 332 319
2 2 336 333 337
2 2 331 333 332
2 2 46 334 335
2 2 319 334 318
2 2 45 335 336
2 2 332 335 334
2 2 41 336 340
2 2 333 336 335
2 2 340 337 338
2 2 330 337 333
2 2 341 338 339
2 2 329 338 337
2 2 342 339 344
2 2 348 339 338
2 2 40 340 341
2 2 337 340 336
2 2 39 341 342
2 2 338 341 340
2 2 38 342 343
2 2 339 342 341
2 2 344 343 342
2 2 343 344 345
2 2 349 344 339
2 2 347 345 344
2 2 352 346 347
2 2 345 347 346
2 2 351 347 349
2 2 339 348 349
2 2 328 348 329
2 2 344 349 347
2 2 350 349 348
2 2 349 350 351
2 2 362 350 328
2 2 347 351 352
2 2 360 351 350
2 2 346 352 353
2 2 361 352 351
2 2 354 353 352
2 2 353 354 355
2 2 358 354 361
2 2 357 355 354
2 2 373 356 357
2 2 355 357 356
2 2 372 357 358
2 2 354 358 357
2 2 371 358 359
2 2 361 359 358
2 2 368 359 367
2 2 351 360 361
2 2 367 360 362
2 2 352 361 354
2 2 359 361 360
2 2 350 362 360
2 2 366 362 364
2 2 327 363 364
2 2 292 363 293
2 2 328 364 362
2 2 365 364 363
2 2 364 365 366
2 2 287 365 292
2 2 362 366 367
2 2 369 366 365
2 2 360 367 359
2 2 370 367 366
2 2 359 368 371
2 2 401 368 370
2 2 366 369 370
2 2 403 369 287
2 2 367 370 368
2 2 402 370 369
2 2 358 371 372
2 2 400 371 368
2 2 357 372 373
2 2 378 372 371
2 2 356 373 374
2 2 377 373 372
2 2 376 374 373
2 2 381 375 376
2 2 374 376 375
2 2 379 376 377
2 2 373 377 376
2 2 380 377 378
2 2 372 378 377
2 2 399 378 400
2 2 376 379 381
2 2 390 379 380
2 2 377 380 379
2 2 391 380 399
2 2 375 381 382
2 2 389 381 379
2 2 384 382 381
2 2 386 383 384
2 2 382 384 383
2 2 387 384 389
2 2 467 385 386
2 2 383 386 385
2 2 466 386 387
2 2 384 387 386
2 2 465 387 388
2 2 389 388 387
2 2 461 388 392
2 2 381 389 384
2 2 388 389 390
2 2 379 390 389
2 2 392 390 391
2 2 380 391 390
2 2 393 391 395
2 2 390 392 388
2 2 460 392 393
2 2 391 393 392
2 2 459 393 394
2 2 395 394 393
2 2 427 394 426
2 2 399 395 391
2 2 394 395 396
2 2 398 396 395
2 2 426 396 425
2 2 401 397 398
2 2 425 397 404
2 2 400 398 399
2 2 396 398 397
2 2 378 399 380
2 2 395 399 398
2 2 371 400 378
2 2 398 400 401
2 2 368 401 400
2 2 397 401 402
2 2 370 402 401
2 2 404 402 403
2 2 369 403 402
2 2 405 403 407
2 2 402 404 397
2 2 424 404 405
2 2 403 405 404
2 2 423 405 406
2 2 407 406 405
2 2 415 406 414
2 2 287 407 403
2 2 406 407 408
2 2 288 408 407
2 2 414 408 409
2 2 289 409 408
2 2 412 409 410
2 2 286 410 409
2 2 413 410 411
2 2 285 411 410
2 2 740 411 742
2 2 409 412 414
2 2 417 412 413
2 2 410 413 412
2 2 736 413 740
2 2 408 414 406
2 2 416 414 412
2 2 406 415 423
2 2 418 415 416
2 2 414 416 415
2 2 419 416 417
2 2 412 417 416
2 2 734 417 736
2 2 415 418 420
2 2 435 418 419
2 2 416 419 418
2 2 718 419 734
2 2 423 420 422
2 2 434 420 418
2 2 425 421 426
2 2 432 421 422
2 2 424 422 421
2 2 433 422 420
2 2 405 423 424
2 2 420 423 415
2 2 404 424 425
2 2 422 424 423
2 2 397 425 396
2 2 421 425 424
2 2 396 426 394
2 2 431 426 421
2 2 394 427 459
2 2 429 427 431
2 2 459 428 458
2 2 448 428 429
2 2 427 429 428
2 2 447 429 430
2 2 431 430 429
2 2 439 430 438
2 2 426 431 427
2 2 430 431 432
2 2 421 432 431
2 2 438 432 433
2 2 422 433 432
2 2 436 433 434
2 2 420 434 433
2 2 437 434 435
2 2 418 435 434
2 2 716 435 718
2 2 433 436 438
2 2 441 436 437
2 2 434 437 436
2 2 712 437 716
2 2 432 438 430
2 2 440 438 436
2 2 430 439 447
2 2 442 439 440
2 2 438 440 439
2 2 443 440 441
2 2 436 441 440
2 2 710 441 712
2 2 439 442 444
2 2 581 442 443
2 2 440 443 442
2 2 584 443 710
2 2 447 444 446
2 2 582 444 442
2 2 449 445 450
2 2 576 445 446
2 2 448 446 445
2 2 577 446 444
2 2 429 447 448
2 2 444 447 439
2 2 428 448 449
2 2 446 448 447
2 2 458 449 456
2 2 445 449 448
2 2 456 450 451
2 2 575 450 445
2 2 455 451 452
2 2 574 451 450
2 2 454 452 453
2 2 488 452 451
2 2 474 453 476
2 2 489 453 452
2 2 464 454 474
2 2 452 454 455
2 2 462 455 454
2 2 451 455 456
2 2 457 456 455
2 2 450 456 449
2 2 461 457 462
2 2 456 457 458
2 2 460 458 457
2 2 449 458 428
2 2 393 459 460
2 2 428 459 427
2 2 392 460 461
2 2 458 460 459
2 2 388 461 465
2 2 457 461 460
2 2 465 462 464
2 2 455 462 457
2 2 467 463 470
2 2 474 463 464
2 2 466 464 463
2 2 454 464 462
2 2 387 465 466
2 2 462 465 461
2 2 386 466 467
2 2 464 466 465
2 2 385 467 468
2 2 463 467 466
2 2 470 468 467
2 2 472 469 470
2 2 468 470 469
2 2 473 470 463
2 2 477 471 472
2 2 469 472 471
2 2 475 472 473
2 2 470 473 472
2 2 476 473 474
2 2 463 474 473
2 2 453 474 454
2 2 472 475 477
2 2 485 475 476
2 2 473 476 475
2 2 487 476 453
2 2 471 477 478
2 2 486 477 475
2 2 479 478 477
2 2 478 479 480
2 2 483 479 486
2 2 482 480 479
2 2 503 481 482
2 2 480 482 481
2 2 502 482 483
2 2 479 483 482
2 2 501 483 484
2 2 486 484 483
2 2 493 484 492
2 2 475 485 486
2 2 492 485 487
2 2 477 486 479
2 2 484 486 485
2 2 476 487 485
2 2 491 487 489
2 2 452 488 489
2 2 573 488 574
2 2 453 489 487
2 2 490 489 488
2 2 489 490 491
2 2 568 490 573
2 2 487 491 492
2 2 494 491 490
2 2 485 492 484
2 2 495 492 491
2 2 484 493 501
2 2 497 493 495
2 2 491 494 495
2 2 567 494 568
2 2 492 495 493
2 2 496 495 494
2 2 495 496 497
2 2 535 496 567
2 2 493 497 498
2 2 534 497 496
2 2 501 498 499
2 2 533 498 497
2 2 502 499 500
2 2 532 499 498
2 2 503 500 505
2 2 509 500 499
2 2 483 501 502
2 2 498 501 493
2 2 482 502 503
2 2 499 502 501
2 2 481 503 504
2 2 500 503 502
2 2 505 504 503
2 2 504 505 506
2 2 510 505 500
2 2 508 506 505
2 2 513 507 508
2 2 506 508 507
2 2 512 508 510
2 2 500 509 510
2 2 531 509 532
2 2 505 510 508
2 2 511 510 509
2 2 510 511 512
2 2 523 511 531
2 2 508 512 513
2 2 521 512 511
2 2 507 513 514
2 2 522 513 512
2 2 515 514 513
2 2 514 515 516
2 2 519 515 522
2 2 518 516 515
2 2 516 518 517
2 2 515 519 518
2 2 522 520 519
2 2 512 521 522
2 2 524 521 523
2 2 513 522 515
2 2 520 522 521
2 2 511 523 521
2 2 525 523 528
2 2 521 524 520
2 2 523 525 524
2 2 528 526 525
2 2 530 527 528
2 2 542 527 541
2 2 531 528 523
2 2 526 528 527
2 2 533 529 530
2 2 541 529 540
2 2 532 530 531
2 2 527 530 529
2 2 509 531 511
2 2 528 531 530
2 2 499 532 509
2 2 530 532 533
2 2 498 533 532
2 2 529 533 534
2 2 497 534 533
2 2 540 534 535
2 2 496 535 534
2 2 539 535 537
2 2 566 536 537
2 2 555 536 556
2 2 567 537 535
2 2 538 537 536
2 2 537 538 539
2 2 547 538 555
2 2 535 539 540
2 2 545 539 538
2 2 534 540 529
2 2 546 540 539
2 2 529 541 527
2 2 543 541 546
2 2 527 542 526
2 2 541 543 542
2 2 546 544 543
2 2 539 545 546
2 2 548 545 547
2 2 540 546 541
2 2 544 546 545
2 2 538 547 545
2 2 549 547 552
2 2 545 548 544
2 2 547 549 548
2 2 552 550 549
2 2 554 551 552
2 2 615 551 614
2 2 555 552 547
2 2 550 552 551
2 2 557 553 554
2 2 614 553 612
2 2 556 554 555
2 2 551 554 553
2 2 536 555 538
2 2 552 555 554
2 2 565 556 536
2 2 554 556 557
2 2 564 557 556
2 2 553 557 558
2 2 560 558 557
2 2 612 558 607
2 2 562 559 560
2 2 607 559 606
2 2 563 560 564
2 2 558 560 559
2 2 579 561 562
2 2 606 561 604
2 2 578 562 563
2 2 559 562 561
2 2 571 563 570
2 2 560 563 562
2 2 570 564 565
2 2 557 564 560
2 2 569 565 566
2 2 556 565 564
2 2 568 566 567
2 2 536 566 565
2 2 494 567 496
2 2 537 567 566
2 2 490 568 494
2 2 566 568 569
2 2 573 569 568
2 2 565 569 570
2 2 572 570 569
2 2 564 570 563
2 2 575 571 572
2 2 563 571 578
2 2 574 572 573
2 2 570 572 571
2 2 488 573 490
2 2 569 573 572
2 2 451 574 488
2 2 572 574 575
2 2 450 575 574
2 2 571 575 576
2 2 445 576 575
2 2 578 576 577
2 2 446 577 576
2 2 579 577 582
2 2 576 578 571
2 2 562 578 579
2 2 577 579 578
2 2 561 579 580
2 2 582 580 579
2 2 604 580 585
2 2 442 581 582
2 2 585 581 584
2 2 444 582 577
2 2 580 582 581
2 2 710 583 584
2 2 587 583 588
2 2 443 584 581
2 2 586 584 583
2 2 581 585 580
2 2 603 585 586
2 2 584 586 585
2 2 602 586 587
2 2 583 587 586
2 2 595 587 594
2 2 711 588 583
2 2 594 588 589
2 2 709 589 588
2 2 593 589 590
2 2 707 590 589
2 2 592 590 591
2 2 708 591 590
2 2 669 591 671
2 2 590 592 593
2 2 665 592 669
2 2 589 593 594
2 2 597 593 592
2 2 588 594 587
2 2 596 594 593
2 2 587 595 602
2 2 599 595 596
2 2 594 596 595
2 2 598 596 597
2 2 593 597 596
2 2 663 597 665
2 2 596 598 599
2 2 631 598 663
2 2 595 599 600
2 2 630 599 598
2 2 602 600 601
2 2 628 600 599
2 2 603 601 605
2 2 629 601 600
2 2 586 602 603
2 2 600 602 595
2 2 585 603 604
2 2 601 603 602
2 2 580 604 561
2 2 605 604 603
2 2 604 605 606
2 2 609 605 601
2 2 561 606 559
2 2 608 606 605
2 2 559 607 558
2 2 611 607 608
2 2 606 608 607
2 2 610 608 609
2 2 605 609 608
2 2 627 609 629
2 2 608 610 611
2 2 620 610 627
2 2 607 611 612
2 2 618 611 610
2 2 558 612 553
2 2 613 612 611
2 2 612 613 614
2 2 617 613 618
2 2 553 614 551
2 2 616 614 613
2 2 551 615 550
2 2 614 616 615
2 2 613 617 616
2 2 611 618 613
2 2 621 618 620
2 2 627 619 620
2 2 623 619 624
2 2 610 620 618
2 2 622 620 619
2 2 618 621 617
2 2 620 622 621
2 2 619 623 622
2 2 626 624 619
2 2 639 624 638
2 2 628 625 626
2 2 638 625 636
2 2 629 626 627
2 2 624 626 625
2 2 609 627 610
2 2 619 627 626
2 2 600 628 629
2 2 625 628 630
2 2 601 629 609
2 2 626 629 628
2 2 599 630 628
2 2 636 630 631
2 2 598 631 630
2 2 635 631 632
2 2 663 632 631
1 2 634 632 633
1 2 662 633 632
1 2 651 633 653
1 2 632 634 635
1 2 644 634 651
2 2 631 635 636
1 2 642 635 634
2 2 630 636 625
2 2 637 636 635
2 2 636 637 638
1 2 641 637 642
2 2 625 638 624
2 2 640 638 637
2 2 624 639 623
2 2 638 640 639
1 2 637 641 640
1 2 635 642 637
1 2 645 642 644
1 2 651 643 644
1 2 647 643 648
1 2 634 644 642
1 2 646 644 643
1 2 642 645 641
1 2 644 646 645
1 2 643 647 646
1 2 650 648 643
1 2 857 648 856
1 2 652 649 650
1 2 856 649 854
1 2 653 650 651
1 2 648 650 649
1 2 633 651 634
1 2 643 651 650
1 2 660 652 653
1 2 649 652 654
1 2 661 653 633
1 2 650 653 652
1 2 659 654 652
1 2 854 654 847
1 2 657 655 659
1 2 847 655 846
1 2 676 656 657
1 2 846 656 844
1 2 675 657 658
1 2 655 657 656
1 2 667 658 666
1 2 659 658 657
1 2 658 659 660
1 2 654 659 655
1 2 666 660 661
1 2 652 660 659
1 2 664 661 662
1 2 653 661 660
2 2 665 662 663
1 2 633 662 661
2 2 597 663 598
2 2 632 663 662
2 2 669 664 665
1 2 661 664 666
2 2 592 665 597
2 2 662 665 664
1 2 668 666 664
1 2 660 666 658
1 2 670 667 668
1 2 658 667 675
2 2 671 668 669
1 2 666 668 667
2 2 591 669 592
2 2 664 669 668
2 2 702 670 671
1 2 667 670 672
2 2 703 671 591
2 2 668 671 670
1 2 701 672 670
1 2 675 672 674
1 2 680 673 674
1 2 677 673 678
1 2 700 674 672
1 2 676 674 673
1 2 672 675 667
1 2 657 675 676
1 2 674 676 675
1 2 656 676 677
1 2 673 677 676
1 2 844 677 825
1 2 681 678 673
1 2 825 678 824
1 2 683 679 681
1 2 824 679 822
1 2 699 680 700
1 2 673 680 681
1 2 682 681 680
1 2 678 681 679
1 2 691 682 699
1 2 681 682 683
1 2 689 683 682
1 2 679 683 684
1 2 690 684 683
1 2 822 684 815
1 2 687 685 690
1 2 815 685 813
1 2 766 686 687
1 2 813 686 812
1 2 765 687 688
1 2 685 687 686
1 2 761 688 692
1 2 690 688 687
1 2 692 689 691
1 2 683 689 690
1 2 688 690 689
1 2 684 690 685
1 2 693 691 696
1 2 682 691 689
1 2 760 692 693
1 2 689 692 688
2 2 759 693 694
1 2 691 693 692
2 2 727 694 726
2 2 696 694 693
2 2 726 695 725
2 2 698 695 696
2 2 694 696 695
1 2 699 696 691
2 2 725 697 704
2 2 701 697 698
2 2 695 698 697
1 2 700 698 699
1 2 696 699 698
1 2 680 699 682
1 2 698 700 701
1 2 674 700 680
2 2 697 701 702
1 2 672 701 700
2 2 704 702 703
2 2 670 702 701
2 2 705 703 708
2 2 671 703 702
2 2 724 704 705
2 2 702 704 697
2 2 723 705 706
2 2 703 705 704
2 2 715 706 714
2 2 708 706 705
2 2 714 707 709
2 2 590 707 708
2 2 706 708 707
2 2 591 708 703
2 2 713 709 711
2 2 589 709 707
2 2 441 710 443
2 2 583 710 711
2 2 712 711 710
2 2 588 711 709
2 2 437 712 441
2 2 711 712 713
2 2 716 713 712
2 2 709 713 714
2 2 717 714 713
2 2 707 714 706
2 2 719 715 717
2 2 706 715 723
2 2 435 716 437
2 2 713 716 717
2 2 718 717 716
2 2 714 717 715
2 2 419 718 435
2 2 717 718 719
2 2 734 719 718
2 2 715 719 720
2 2 735 720 719
2 2 723 720 721
2 2 733 721 720
2 2 724 721 722
2 2 731 722 721
2 2 725 722 726
2 2 720 723 715
2 2 705 723 724
2 2 721 724 723
2 2 704 724 725
2 2 722 725 724
2 2 697 725 695
2 2 732 726 722
2 2 695 726 694
2 2 729 727 732
2 2 694 727 759
2 2 748 728 729
2 2 759 728 757
2 2 747 729 730
2 2 727 729 728
2 2 739 730 738
2 2 732 730 729
2 2 738 731 733
2 2 722 731 732
2 2 730 732 731
2 2 726 732 727
2 2 737 733 735
2 2 721 733 731
2 2 417 734 419
2 2 719 734 735
2 2 736 735 734
2 2 720 735 733
2 2 413 736 417
2 2 735 736 737
2 2 740 737 736
2 2 733 737 738
2 2 741 738 737
2 2 731 738 730
2 2 743 739 741
2 2 730 739 747
2 2 411 740 413
2 2 737 740 741
2 2 742 741 740
2 2 738 741 739
2 2 284 742 411
2 2 741 742 743
2 2 281 743 742
2 2 739 743 744
2 2 282 744 743
2 2 747 744 745
2 2 283 745 744
2 2 748 745 746
2 2 267 746 745
2 2 749 746 750
2 2 744 747 739
2 2 729 747 748
2 2 745 748 747
2 2 728 748 749
2 2 746 749 748
2 2 757 749 756
2 2 266 750 746
2 2 756 750 751
2 2 268 751 750
2 2 755 751 752
2 2 265 752 751
1 2 754 752 753
1 2 264 753 752
1 2 770 753 772
1 2 752 754 755
1 2 763 754 770
2 2 751 755 756
1 2 762 755 754
2 2 750 756 749
2 2 758 756 755
2 2 749 757 728
2 2 760 757 758
2 2 756 758 757
1 2 761 758 762
2 2 728 759 727
2 2 693 759 760
2 2 757 760 759
1 2 692 760 761
1 2 758 761 760
1 2 688 761 765
1 2 755 762 758
1 2 765 762 763
1 2 754 763 762
1 2 766 763 764
1 2 770 764 763
1 2 767 764 768
1 2 762 765 761
1 2 687 765 766
1 2 763 766 765
1 2 686 766 767
1 2 764 767 766
1 2 812 767 785
1 2 771 768 764
1 2 785 768 783
1 2 773 769 771
1 2 783 769 782
1 2 753 770 754
1 2 764 770 771
1 2 772 771 770
1 2 768 771 769
1 2 263 772 753
1 2 771 772 773
1 2 260 773 772
1 2 769 773 774
1 2 261 774 773
1 2 782 774 775
1 2 262 775 774
1 2 781 775 776
1 2 874 776 775
1 2 779 776 777
1 2 873 777 776
1 2 780 777 778
1 2 875 778 777
1 2 796 778 797
1 2 776 779 781
1 2 790 779 780
1 2 777 780 779
1 2 791 780 796
1 2 775 781 782
1 2 789 781 779
1 2 774 782 769
1 2 784 782 781
1 2 769 783 768
1 2 786 783 784
1 2 782 784 783
1 2 787 784 789
1 2 768 785 767
1 2 811 785 786
1 2 783 786 785
1 2 810 786 787
1 2 784 787 786
1 2 809 787 788
1 2 789 788 787
1 2 805 788 792
1 2 781 789 784
1 2 788 789 790
1 2 779 790 789
1 2 792 790 791
1 2 780 791 790
1 2 793 791 794
1 2 790 792 788
1 2 804 792 793
1 2 791 793 792
1 2 796 794 791
1 2 797 795 796
1 2 778 796 780
1 2 794 796 795
1 2 876 797 778
1 2 795 797 798
1 2 872 798 797
1 2 801 799 800
1 2 818 800 820
1 2 832 800 799
1 2 808 801 818
1 2 799 801 802
1 2 806 802 801
1 2 805 803 806
1 2 792 804 805
1 2 788 805 809
1 2 803 805 804
1 2 809 806 808
1 2 802 806 803
1 2 811 807 814
1 2 818 807 808
1 2 810 808 807
1 2 801 808 806
1 2 787 809 810
1 2 806 809 805
1 2 786 810 811
1 2 808 810 809
1 2 785 811 812
1 2 807 811 810
1 2 767 812 686
1 2 814 812 811
1 2 686 813 685
1 2 816 813 814
1 2 812 814 813
1 2 817 814 807
1 2 685 815 684
1 2 821 815 816
1 2 813 816 815
1 2 819 816 817
1 2 814 817 816
1 2 820 817 818
1 2 807 818 817
1 2 800 818 801
1 2 816 819 821
1 2 829 819 820
1 2 817 820 819
1 2 831 820 800
1 2 815 821 822
1 2 830 821 819
1 2 684 822 679
1 2 823 822 821
1 2 822 823 824
1 2 827 823 830
1 2 679 824 678
1 2 826 824 823
1 2 678 825 677
1 2 843 825 826
1 2 824 826 825
1 2 842 826 827
1 2 823 827 826
1 2 841 827 828
1 2 830 828 827
1 2 835 828 834
1 2 819 829 830
1 2 834 829 831
1 2 821 830 823
1 2 828 830 829
1 2 820 831 829
1 2 833 831 832
1 2 800 832 831
1 2 831 833 834
1 2 829 834 828
1 2 836 834 833
1 2 828 835 841
1 2 837 835 836
1 2 834 836 835
1 2 835 837 838
1 2 841 838 839
1 2 870 838 837
1 2 842 839 840
1 2 869 839 838
1 2 843 840 845
1 2 849 840 839
1 2 827 841 842
1 2 838 841 835
1 2 826 842 843
1 2 839 842 841
1 2 825 843 844
1 2 840 843 842
1 2 677 844 656
1 2 845 844 843
1 2 844 845 846
1 2 850 845 840
1 2 656 846 655
1 2 848 846 845
1 2 655 847 654
1 2 853 847 848
1 2 846 848 847
1 2 852 848 850
1 2 840 849 850
1 2 868 849 869
1 2 845 850 848
1 2 851 850 849
1 2 850 851 852
1 2 863 851 868
1 2 848 852 853
1 2 861 852 851
1 2 847 853 854
1 2 862 853 852
1 2 654 854 649
1 2 855 854 853
1 2 854 855 856
1 2 859 855 862
1 2 649 856 648
1 2 858 856 855
1 2 648 857 647
1 2 856 858 857
1 2 855 859 858
1 2 862 860 859
1 2 852 861 862
1 2 864 861 863
1 2 853 862 855
1 2 860 862 861
1 2 851 863 861
1 2 865 863 866
1 2 861 864 860
1 2 863 865 864
1 2 868 866 863
1 2 869 867 868
1 2 849 868 851
1 2 866 868 867
1 2 839 869 849
1 2 867 869 870
1 2 838 870 869
1 2 886 871 872
1 2 877 872 876
1 2 798 872 871
1 2 880 873 874
1 2 777 873 875
1 2 257 874 262
1 2 776 874 873
1 2 879 875 873
1 2 778 875 876
1 2 878 876 875
1 2 797 876 872
1 2 883 877 878
1 2 872 877 886
1 2 881 878 879
1 2 876 878 877
1 2 882 879 880
1 2 875 879 878
1 2 256 880 257
1 2 873 880 879
1 2 896 881 882
1 2 878 881 883
1 2 239 882 256
1 2 879 882 881
1 2 895 883 881
1 2 877 883 884
1 2 894 884 883
1 2 886 884 885
1 2 893 885 884
1 2 887 885 888
1 2 884 886 877
1 2 871 886 887
1 2 885 887 886
1 2 892 888 885
1 2 891 889 892
1 2 910 890 891
1 2 901 891 900
1 2 889 891 890
1 2 900 892 893
1 2 888 892 889
1 2 899 893 894
1 2 885 893 892
1 2 897 894 895
1 2 884 894 893
1 2 898 895 896
1 2 883 895 894
1 2 238 896 239
1 2 881 896 895
1 2 904 897 898
1 2 894 897 899
1 2 233 898 238
1 2 895 898 897
1 2 903 899 897
1 2 893 899 900
1 2 902 900 899
1 2 892 900 891
1 2 907 901 902
1 2 891 901 910
1 2 905 902 903
1 2 900 902 901
1 2 906 903 904
1 2 899 903 902
1 2 232 904 233
1 2 897 904 903
1 2 919 905 906
1 2 902 905 907
1 2 167 906 232
1 2 903 906 905
1 2 920 907 905
1 2 901 907 908
1 2 918 908 907
1 2 910 908 909
1 2 917 909 908
1 2 911 909 912
1 2 908 910 901
1 2 890 910 911
1 2 909 911 910
1 2 916 912 909
1 2 915 913 916
1 2 934 914 915
1 2 925 915 924
1 2 913 915 914
1 2 924 916 917
1 2 912 916 913
1 2 923 917 918
1 2 909 917 916
1 2 922 918 920
1 2 908 918 917
1 2 166 919 167
1 2 905 919 920
1 2 921 920 919
1 2 907 920 918
1 2 161 921 166
1 2 920 921 922
1 2 927 922 921
1 2 918 922 923
1 2 928 923 922
1 2 917 923 924
1 2 926 924 923
1 2 916 924 915
1 2 931 925 926
1 2 915 925 934
1 2 930 926 928
1 2 924 926 925
1 2 160 927 161
1 2 922 927 928
1 2 929 928 927
1 2 923 928 926
1 2 143 929 160
1 2 928 929 930
1 2 943 930 929
1 2 926 930 931
1 2 944 931 930
1 2 925 931 932
1 2 942 932 931
1 2 934 932 933
1 2 941 933 932
1 2 935 933 936
1 2 932 934 925
1 2 914 934 935
1 2 933 935 934
1 2 940 936 933
1 2 939 937 940
1 2 958 938 939
1 2 949 939 948
1 2 937 939 938
1 2 948 940 941
1 2 936 940 937
1 2 947 941 942
1 2 933 941 940
1 2 946 942 944
1 2 932 942 941
1 2 142 943 143
1 2 930 943 944
1 2 945 944 943
1 2 931 944 942
1 2 137 945 142
1 2 944 945 946
1 2 951 946 945
1 2 942 946 947
1 2 952 947 946
1 2 941 947 948
1 2 950 948 947
1 2 940 948 939
1 2 955 949 950
1 2 939 949 958
1 2 954 950 952
1 2 948 950 949
1 2 136 951 137
1 2 946 951 952
1 2 953 952 951
1 2 947 952 950
1 2 952 953 954
1 2 950 954 955
1 2 949 955 956
1 2 958 956 957
1 2 959 957 960
1 2 956 958 949
1 2 938 958 959
1 2 957 959 958

boundary
120
1 1 0 1
1 1 1 6
3 1 2 0
1 1 6 7
1 1 7 8
1 1 8 9
1 1 9 10
1 1 10 95
3 1 25 2
3 1 26 25
3 1 28 26
3 1 35 28
3 1 36 35
3 1 38 36
1 1 95 96
1 1 96 97
1 1 97 98
1 1 98 102
1 1 102 103
1 1 103 104
1 1 104 105
1 1 105 106
1 1 106 125
1 1 125 126
1 1 126 127
1 1 127 128
1 1 128 129
1 1 129 133
1 1 133 134
1 1 134 135
1 1 135 136
1 1 136 953
3 1 343 38
3 1 345 343
3 1 346 345
3 1 353 346
3 1 355 353
3 1 356 355
3 1 374 356
3 1 375 374
3 1 382 375
3 1 383 382
3 1 385 383
3 1 468 385
3 1 469 468
3 1 471 469
3 1 478 471
3 1 480 478
3 1 481 480
3 1 504 481
3 1 506 504
3 1 507 506
3 1 514 507
3 1 516 514
3 1 517 516
7 1 518 517
7 1 519 518
7 1 520 519
7 1 524 520
7 1 525 524
7 1 526 525
7 1 542 526
7 1 543 542
7 1 544 543
7 1 548 544
7 1 549 548
7 1 550 549
7 1 615 550
7 1 616 615
7 1 617 616
7 1 621 617
7 1 622 621
7 1 623 622
7 1 639 623
7 1 640 639
7 1 641 640
7 1 645 641
7 1 646 645
7 1 647 646
5 1 793 804
5 1 794 793
5 1 795 794
5 1 798 795
5 1 799 832
5 1 802 799
5 1 803 802
5 1 804 803
5 1 832 833
5 1 833 836
5 1 836 837
5 1 837 870
7 1 857 647
7 1 858 857
7 1 859 858
7 1 860 859
7 1 864 860
7 1 865 864
5 1 866 865
5 1 867 866
5 1 870 867
5 1 871 798
5 1 887 871
5 1 888 887
5 1 889 888
5 1 890 889
5 1 911 890
5 1 912 911
5 1 913 912
5 1 914 913
5 1 935 914
5 1 936 935
5 1 937 936
5 1 938 937
1 1 953 954
1 1 954 955
1 1 955 956
1 1 956 957
1 1 957 960
5 1 959 938
5 1 960 959

vertices
961
2
0 0
0.02 0
0 0.0333333
0.02 0.0333333
0.04 0.0333333
0.06 0.0333333
0.04 0
0.06 0
0.08 0
0.1 0
0.12 0
0.1 0.0333333
0.12 0.0333333
0.08 0.0333333
0.08 0.0666667
0.1 0.0666667
0.12 0.0666667
0.1 0.1
0.12 0.1
0.08 0.1
0.04 0.1
0.06 0.1
0.06 0.0666667
0.04 0.0666667
0.02 0.0666667
0 0.0666667
0 0.1
0.02 0.1
0 0.133333
0.02 0.133333
0.04 0.133333
0.06 0.133333
0.04 0.166667
0.06 0.166667
0.02 0.166667
0 0.166667
0 0.2
0.02 0.2
0 0.233333
0.02 0.233333
0.04 0.233333
0.06 0.233333
0.04 0.2
0.06 0.2
0.08 0.2
0.08 0.233333
0.1 0.233333
0.12 0.233333
0.1 0.2
0.12 0.2
0.12 0.166667
0.1 0.166667
0.08 0.166667
0.08 0.133333
0.1 0.133333
0.12 0.133333
0.14 0.133333
0.16 0.133333
0.18 0.133333
0.16 0.166667
0.18 0.166667
0.14 0.166667
0.14 0.2
0.14 0.233333
0.16 0.233333
0.18 0.233333
0.16 0.2
0.18 0.2
0.2 0.2
0.2 0.233333
0.22 0.233333
0.24 0.233333
0.22 0.2
0.24 0.2
0.24 0.166667
0.22 0.166667
0.2 0.166667
0.2 0.133333
0.22 0.133333
0.24 0.133333
0.22 0.1
0.24 0.1
0.24 0.0666667
0.22 0.0666667
0.2 0.0666667
0.2 0.1
0.18 0.1
0.16 0.1
0.14 0.1
0.14 0.0666667
0.16 0.0666667
0.18 0.0666667
0.18 0.0333333
0.16 0.0333333
0.14 0.0333333
0.14 0
0.16 0
0.18 0
0.2 0
0.2 0.0333333
0.22 0.0333333
0.24 0.0333333
0.22 0
0.24 0
0.26 0
0.28 0
0.3 0
0.3 0.0333333
0.28 0.0333333
0.26 0.0333333
0.26 0.0666667
0.28 0.0666667
0.26 0.1
0.28 0.1
0.3 0.1
0.3 0.0666667
0.32 0.0666667
0.34 0.0666667
0.32 0.1
0.34 0.1
0.36 0.1
0.36 0.0666667
0.36 0.0333333
0.32 0.0333333
0.34 0.0333333
0.32 0
0.34 0
0.36 0
0.38 0
0.4 0
0.38 0.0333333
0.4 0.0333333
0.42 0.0333333
0.42 0
0.44 0
0.46 0
0.48 0
0.48 0.0333333
0.46 0.0333333
0.44 0.0333333
0.44 0.0666667
0.46 0.0666667
0.48 0.0666667
0.48 0.1
0.46 0.1
0.44 0.1
0.42 0.1
0.42 0.0666667
0.4 0.0666667
0.38 0.0666667
0.38 0.1
0.4 0.1
0.38 0.133333
0.4 0.133333
0.38 0.166667
0.4 0.166667
0.42 0.166667
0.42 0.133333
0.44 0.133333
0.46 0.133333
0.48 0.133333
0.48 0.166667
0.46 0.166667
0.44 0.166667
0.44 0.2
0.46 0.2
0.48 0.2
0.48 0.233333
0.46 0.233333
0.44 0.233333
0.42 0.233333
0.42 0.2
0.4 0.2
0.38 0.2
0.38 0.233333
0.4 0.233333
0.36 0.233333
0.32 0.233333
0.34 0.233333
0.32 0.2
0.34 0.2
0.36 0.2
0.36 0.166667
0.36 0.133333
0.34 0.133333
0.32 0.133333
0.32 0.166667
0.34 0.166667
0.3 0.166667
0.3 0.133333
0.28 0.133333
0.26 0.133333
0.26 0.166667
0.28 0.166667
0.26 0.2
0.28 0.2
0.3 0.2
0.3 0.233333
0.28 0.233333
0.26 0.233333
0.26 0.266667
0.28 0.266667
0.3 0.266667
0.3 0.3
0.28 0.3
0.26 0.3
0.28 0.333333
0.26 0.333333
0.26 0.366667
0.28 0.366667
0.3 0.366667
0.3 0.333333
0.34 0.333333
0.32 0.333333
0.32 0.366667
0.34 0.366667
0.36 0.366667
0.36 0.333333
0.36 0.3
0.34 0.3
0.32 0.3
0.34 0.266667
0.32 0.266667
0.36 0.266667
0.4 0.266667
0.38 0.266667
0.38 0.3
0.4 0.3
0.42 0.3
0.42 0.266667
0.44 0.266667
0.46 0.266667
0.48 0.266667
0.48 0.3
0.46 0.3
0.44 0.3
0.44 0.333333
0.46 0.333333
0.48 0.333333
0.48 0.366667
0.46 0.366667
0.44 0.366667
0.42 0.366667
0.42 0.333333
0.4 0.333333
0.38 0.333333
0.4 0.366667
0.38 0.366667
0.4 0.4
0.38 0.4
0.38 0.433333
0.4 0.433333
0.42 0.433333
0.42 0.4
0.44 0.4
0.46 0.4
0.48 0.4
0.48 0.433333
0.46 0.433333
0.44 0.433333
0.44 0.466667
0.46 0.466667
0.48 0.466667
0.42 0.466667
0.4 0.466667
0.38 0.466667
0.34 0.466667
0.32 0.466667
0.36 0.466667
0.36 0.433333
0.36 0.4
0.34 0.4
0.32 0.4
0.34 0.433333
0.32 0.433333
0.3 0.433333
0.3 0.4
0.28 0.4
0.26 0.4
0.28 0.433333
0.26 0.433333
0.26 0.466667
0.28 0.466667
0.3 0.466667
0.24 0.466667
0.22 0.466667
0.2 0.466667
0.14 0.466667
0.16 0.466667
0.18 0.466667
0.18 0.433333
0.16 0.433333
0.14 0.433333
0.14 0.4
0.16 0.4
0.18 0.4
0.2 0.4
0.2 0.433333
0.22 0.433333
0.24 0.433333
0.24 0.4
0.22 0.4
0.24 0.366667
0.22 0.366667
0.2 0.366667
0.2 0.333333
0.22 0.333333
0.24 0.333333
0.24 0.3
0.22 0.3
0.24 0.266667
0.22 0.266667
0.2 0.266667
0.2 0.3
0.18 0.3
0.16 0.3
0.18 0.266667
0.16 0.266667
0.14 0.266667
0.14 0.3
0.14 0.333333
0.18 0.333333
0.16 0.333333
0.18 0.366667
0.16 0.366667
0.14 0.366667
0.12 0.366667
0.1 0.366667
0.08 0.366667
0.08 0.333333
0.1 0.333333
0.12 0.333333
0.12 0.3
0.1 0.3
0.12 0.266667
0.1 0.266667
0.08 0.266667
0.08 0.3
0.06 0.3
0.04 0.3
0.06 0.266667
0.04 0.266667
0.02 0.266667
0 0.266667
0.02 0.3
0 0.3
0 0.333333
0.02 0.333333
0.06 0.333333
0.04 0.333333
0.06 0.366667
0.04 0.366667
0.02 0.366667
0 0.366667
0.02 0.4
0 0.4
0 0.433333
0.02 0.433333
0.04 0.433333
0.06 0.433333
0.06 0.4
0.04 0.4
0.08 0.4
0.12 0.4
0.1 0.4
0.12 0.433333
0.1 0.433333
0.08 0.433333
0.08 0.466667
0.12 0.466667
0.1 0.466667
0.06 0.466667
0.04 0.466667
0.02 0.466667
0 0.466667
0 0.5
0.02 0.5
0.04 0.5
0.06 0.5
0.04 0.533333
0.06 0.533333
0.02 0.533333
0 0.533333
0 0.566667
0.02 0.566667
0 0.6
0.02 0.6
0.04 0.6
0.06 0.6
0.04 0.566667
0.06 0.566667
0.08 0.566667
0.08 0.6
0.1 0.6
0.12 0.6
0.1 0.566667
0.12 0.566667
0.12 0.533333
0.1 0.533333
0.08 0.533333
0.08 0.5
0.1 0.5
0.12 0.5
0.14 0.5
0.14 0.533333
0.16 0.533333
0.18 0.533333
0.16 0.5
0.18 0.5
0.2 0.5
0.22 0.5
0.24 0.5
0.22 0.533333
0.24 0.533333
0.2 0.533333
0.2 0.566667
0.22 0.566667
0.24 0.566667
0.22 0.6
0.24 0.6
0.2 0.6
0.16 0.6
0.18 0.6
0.18 0.566667
0.16 0.566667
0.14 0.566667
0.14 0.6
0.14 0.633333
0.14 0.666667
0.16 0.666667
0.18 0.666667
0.16 0.633333
0.18 0.633333
0.2 0.633333
0.22 0.633333
0.24 0.633333
0.22 0.666667
0.24 0.666667
0.2 0.666667
0.2 0.7
0.22 0.7
0.24 0.7
0.22 0.733333
0.24 0.733333
0.2 0.733333
0.16 0.733333
0.18 0.733333
0.18 0.7
0.16 0.7
0.14 0.7
0.14 0.733333
0.12 0.733333
0.1 0.733333
0.08 0.733333
0.08 0.7
0.1 0.7
0.12 0.7
0.1 0.666667
0.12 0.666667
0.12 0.633333
0.1 0.633333
0.08 0.633333
0.08 0.666667
0.04 0.666667
0.06 0.666667
0.06 0.633333
0.04 0.633333
0.02 0.633333
0 0.633333
0 0.666667
0.02 0.666667
0 0.7
0.02 0.7
0.04 0.7
0.06 0.7
0.04 0.733333
0.06 0.733333
0.02 0.733333
0 0.733333
0.02 0.766667
0 0.766667
0 0.8
0.02 0.8
0.04 0.8
0.06 0.8
0.06 0.766667
0.04 0.766667
0.08 0.766667
0.12 0.766667
0.1 0.766667
0.12 0.8
0.1 0.8
0.08 0.8
0.08 0.833333
0.12 0.833333
0.1 0.833333
0.12 0.866667
0.1 0.866667
0.08 0.866667
0.06 0.866667
0.04 0.866667
0.06 0.833333
0.04 0.833333
0.02 0.833333
0 0.833333
0.02 0.866667
0 0.866667
0 0.9
0.02 0.9
0.06 0.9
0.04 0.9
0.06 0.933333
0.04 0.933333
0.02 0.933333
0 0.933333
0.02 0.966667
0 0.966667
0 1
0.02 1
0.04 1
0.06 1
0.06 0.966667
0.04 0.966667
0.08 0.966667
0.08 1
0.1 1
0.12 1
0.12 0.966667
0.1 0.966667
0.12 0.933333
0.1 0.933333
0.08 0.933333
0.08 0.9
0.1 0.9
0.12 0.9
0.14 0.9
0.18 0.9
0.16 0.9
0.18 0.933333
0.16 0.933333
0.14 0.933333
0.14 0.966667
0.14 1
0.16 1
0.18 1
0.18 0.966667
0.16 0.966667
0.2 0.966667
0.2 1
0.22 1
0.24 1
0.24 0.966667
0.22 0.966667
0.24 0.933333
0.22 0.933333
0.2 0.933333
0.2 0.9
0.22 0.9
0.24 0.9
0.24 0.866667
0.22 0.866667
0.24 0.833333
0.22 0.833333
0.2 0.833333
0.2 0.866667
0.18 0.866667
0.16 0.866667
0.14 0.866667
0.14 0.833333
0.16 0.833333
0.18 0.833333
0.18 0.8
0.16 0.8
0.14 0.8
0.14 0.766667
0.16 0.766667
0.18 0.766667
0.2 0.766667
0.2 0.8
0.22 0.8
0.24 0.8
0.24 0.766667
0.22 0.766667
0.28 0.766667
0.26 0.766667
0.26 0.8
0.28 0.8
0.3 0.8
0.3 0.766667
0.32 0.766667
0.34 0.766667
0.36 0.766667
0.36 0.8
0.34 0.8
0.32 0.8
0.32 0.833333
0.34 0.833333
0.36 0.833333
0.36 0.866667
0.34 0.866667
0.32 0.866667
0.3 0.866667
0.3 0.833333
0.28 0.833333
0.26 0.833333
0.28 0.866667
0.26 0.866667
0.26 0.9
0.28 0.9
0.3 0.9
0.3 0.933333
0.28 0.933333
0.26 0.933333
0.28 0.966667
0.26 0.966667
0.26 1
0.28 1
0.3 1
0.3 0.966667
0.34 0.966667
0.32 0.966667
0.32 1
0.34 1
0.36 1
0.36 0.966667
0.36 0.933333
0.34 0.933333
0.32 0.933333
0.34 0.9
0.32 0.9
0.36 0.9
0.38 0.9
0.4 0.9
0.42 0.9
0.42 0.933333
0.4 0.933333
0.38 0.933333
0.4 0.966667
0.38 0.966667
0.38 1
0.4 1
0.42 1
0.42 0.966667
0.46 0.966667
0.44 0.966667
0.44 1
0.46 1
0.48 1
0.48 0.966667
0.48 0.933333
0.46 0.933333
0.44 0.933333
0.46 0.9
0.44 0.9
0.48 0.9
0.48 0.866667
0.48 0.833333
0.46 0.833333
0.44 0.833333
0.46 0.866667
0.44 0.866667
0.42 0.866667
0.4 0.866667
0.38 0.866667
0.4 0.833333
0.38 0.833333
0.42 0.833333
0.42 0.8
0.4 0.8
0.38 0.8
0.4 0.766667
0.38 0.766667
0.42 0.766667
0.46 0.766667
0.44 0.766667
0.44 0.8
0.46 0.8
0.48 0.8
0.48 0.766667
0.48 0.733333
0.44 0.733333
0.46 0.733333
0.44 0.7
0.46 0.7
0.48 0.7
0.48 0.666667
0.48 0.633333
0.46 0.633333
0.44 0.633333
0.44 0.666667
0.46 0.666667
0.42 0.666667
0.42 0.633333
0.4 0.633333
0.38 0.633333
0.38 0.666667
0.4 0.666667
0.38 0.7
0.4 0.7
0.42 0.7
0.42 0.733333
0.4 0.733333
0.38 0.733333
0.36 0.733333
0.36 0.7
0.34 0.7
0.32 0.7
0.32 0.733333
0.34 0.733333
0.3 0.733333
0.26 0.733333
0.28 0.733333
0.26 0.7
0.28 0.7
0.3 0.7
0.3 0.666667
0.26 0.666667
0.28 0.666667
0.26 0.633333
0.28 0.633333
0.3 0.633333
0.32 0.633333
0.34 0.633333
0.32 0.666667
0.34 0.666667
0.36 0.666667
0.36 0.633333
0.36 0.6
0.36 0.566667
0.34 0.566667
0.32 0.566667
0.32 0.6
0.34 0.6
0.3 0.6
0.26 0.6
0.28 0.6
0.26 0.566667
0.28 0.566667
0.3 0.566667
0.3 0.533333
0.26 0.533333
0.28 0.533333
0.26 0.5
0.28 0.5
0.3 0.5
0.32 0.5
0.34 0.5
0.32 0.533333
0.34 0.533333
0.36 0.533333
0.36 0.5
0.38 0.5
0.4 0.5
0.42 0.5
0.42 0.533333
0.4 0.533333
0.38 0.533333
0.38 0.566667
0.4 0.566667
0.38 0.6
0.4 0.6
0.42 0.6
0.42 0.566667
0.44 0.566667
0.46 0.566667
0.44 0.6
0.46 0.6
0.48 0.6
0.48 0.566667
0.48 0.533333
0.44 0.533333
0.46 0.533333
0.44 0.5
0.46 0.5
0.48 0.5
0.5 0.5
0.52 0.5
0.54 0.5
0.56 0.5
0.54 0.533333
0.56 0.533333
0.52 0.533333
0.5 0.533333
0.5 0.566667
0.52 0.566667
0.5 0.6
0.52 0.6
0.54 0.6
0.56 0.6
0.54 0.566667
0.56 0.566667
0.58 0.566667
0.58 0.6
0.6 0.6
0.6 0.566667
0.6 0.533333
0.58 0.533333
0.58 0.5
0.6 0.5
0.6 0.733333
0.58 0.733333
0.58 0.7
0.6 0.7
0.6 0.666667
0.6 0.633333
0.58 0.633333
0.58 0.666667
0.54 0.666667
0.56 0.666667
0.56 0.633333
0.54 0.633333
0.52 0.633333
0.5 0.633333
0.5 0.666667
0.52 0.666667
0.5 0.7
0.52 0.7
0.54 0.7
0.56 0.7
0.54 0.733333
0.56 0.733333
0.52 0.733333
0.5 0.733333
0.52 0.766667
0.5 0.766667
0.5 0.8
0.52 0.8
0.54 0.8
0.56 0.8
0.56 0.766667
0.54 0.766667
0.58 0.766667
0.6 0.766667
0.6 0.8
0.58 0.8
0.58 0.833333
0.6 0.833333
0.6 0.866667
0.58 0.866667
0.56 0.866667
0.54 0.866667
0.56 0.833333
0.54 0.833333
0.52 0.833333
0.5 0.833333
0.52 0.866667
0.5 0.866667
0.5 0.9
0.52 0.9
0.56 0.9
0.54 0.9
0.56 0.933333
0.54 0.933333
0.52 0.933333
0.5 0.933333
0.52 0.966667
0.5 0.966667
0.5 1
0.52 1
0.54 1
0.56 1
0.56 0.966667
0.54 0.966667
0.58 0.966667
0.58 1
0.6 1
0.6 0.966667
0.6 0.933333
0.58 0.933333
0.58 0.9
0.6 0.9
0.6 0.466667
0.58 0.466667
0.52 0.466667
0.5 0.466667
0.54 0.466667
0.56 0.466667
0.56 0.433333
0.54 0.433333
0.52 0.433333
0.5 0.433333
0.52 0.4
0.5 0.4
0.54 0.4
0.56 0.4
0.58 0.4
0.58 0.433333
0.6 0.433333
0.6 0.4
0.6 0.366667
0.6 0.333333
0.58 0.333333
0.58 0.366667
0.56 0.366667
0.54 0.366667
0.52 0.366667
0.5 0.366667
0.52 0.333333
0.5 0.333333
0.54 0.333333
0.56 0.333333
0.56 0.3
0.54 0.3
0.52 0.3
0.5 0.3
0.52 0.266667
0.5 0.266667
0.54 0.266667
0.56 0.266667
0.58 0.266667
0.58 0.3
0.6 0.3
0.6 0.266667
0.6 0.233333
0.6 0.2
0.58 0.2
0.58 0.233333
0.56 0.233333
0.54 0.233333
0.5 0.233333
0.52 0.233333
0.5 0.2
0.52 0.2
0.54 0.2
0.56 0.2
0.56 0.166667
0.54 0.166667
0.5 0.166667
0.52 0.166667
0.5 0.133333
0.52 0.133333
0.54 0.133333
0.56 0.133333
0.58 0.133333
0.58 0.166667
0.6 0.166667
0.6 0.133333
0.6 0.1
0.6 0.0666667
0.58 0.0666667
0.58 0.1
0.56 0.1
0.54 0.1
0.5 0.1
0.52 0.1
0.5 0.0666667
0.52 0.0666667
0.54 0.0666667
0.56 0.0666667
0.56 0.0333333
0.54 0.0333333
0.5 0.0333333
0.52 0.0333333
0.5 0
0.52 0
0.54 0
0.56 0
0.58 0
0.58 0.0333333
0.6 0.0333333
0.6 0
