$MeshFormat
2.2 0 8
$EndMeshFormat
$Nodes
961
1 0.00000000000000000e+00 0.00000000000000000e+00 0
2 2.00000000000000004e-02 0.00000000000000000e+00 0
3 0.00000000000000000e+00 3.33333333333333329e-02 0
4 2.00000000000000004e-02 3.33333333333333329e-02 0
5 4.00000000000000008e-02 3.33333333333333329e-02 0
6 5.99999999999999978e-02 3.33333333333333329e-02 0
7 4.00000000000000008e-02 0.00000000000000000e+00 0
8 5.99999999999999978e-02 0.00000000000000000e+00 0
9 8.00000000000000017e-02 0.00000000000000000e+00 0
10 1.00000000000000006e-01 0.00000000000000000e+00 0
11 1.19999999999999996e-01 0.00000000000000000e+00 0
12 1.00000000000000006e-01 3.33333333333333329e-02 0
13 1.19999999999999996e-01 3.33333333333333329e-02 0
14 8.00000000000000017e-02 3.33333333333333329e-02 0
15 8.00000000000000017e-02 6.66666666666666657e-02 0
16 1.00000000000000006e-01 6.66666666666666657e-02 0
17 1.19999999999999996e-01 6.66666666666666657e-02 0
18 1.00000000000000006e-01 1.00000000000000006e-01 0
19 1.19999999999999996e-01 1.00000000000000006e-01 0
20 8.00000000000000017e-02 1.00000000000000006e-01 0
21 4.00000000000000008e-02 1.00000000000000006e-01 0
22 5.99999999999999978e-02 1.00000000000000006e-01 0
23 5.99999999999999978e-02 6.66666666666666657e-02 0
24 4.00000000000000008e-02 6.66666666666666657e-02 0
25 2.00000000000000004e-02 6.66666666666666657e-02 0
26 0.00000000000000000e+00 6.66666666666666657e-02 0
27 0.00000000000000000e+00 1.00000000000000006e-01 0
28 2.00000000000000004e-02 1.00000000000000006e-01 0
29 0.00000000000000000e+00 1.33333333333333331e-01 0
30 2.00000000000000004e-02 1.33333333333333331e-01 0
31 4.00000000000000008e-02 1.33333333333333331e-01 0
32 5.99999999999999978e-02 1.33333333333333331e-01 0
33 4.00000000000000008e-02 1.66666666666666657e-01 0
34 5.99999999999999978e-02 1.66666666666666657e-01 0
35 2.00000000000000004e-02 1.66666666666666657e-01 0
36 0.00000000000000000e+00 1.66666666666666657e-01 0
37 0.00000000000000000e+00 2.00000000000000011e-01 0
38 2.00000000000000004e-02 2.00000000000000011e-01 0
39 0.00000000000000000e+00 2.33333333333333337e-01 0
40 2.00000000000000004e-02 2.33333333333333337e-01 0
41 4.00000000000000008e-02 2.33333333333333337e-01 0
42 5.99999999999999978e-02 2.33333333333333337e-01 0
43 4.00000000000000008e-02 2.00000000000000011e-01 0
44 5.99999999999999978e-02 2.00000000000000011e-01 0
45 8.00000000000000017e-02 2.00000000000000011e-01 0
46 8.00000000000000017e-02 2.33333333333333337e-01 0
47 1.00000000000000006e-01 2.33333333333333337e-01 0
48 1.19999999999999996e-01 2.33333333333333337e-01 0
49 1.00000000000000006e-01 2.00000000000000011e-01 0
50 1.19999999999999996e-01 2.00000000000000011e-01 0
51 1.19999999999999996e-01 1.66666666666666657e-01 0
52 1.00000000000000006e-01 1.66666666666666657e-01 0
53 8.00000000000000017e-02 1.66666666666666657e-01 0
54 8.00000000000000017e-02 1.33333333333333331e-01 0
55 1.00000000000000006e-01 1.33333333333333331e-01 0
56 1.19999999999999996e-01 1.33333333333333331e-01 0
57 1.40000000000000013e-01 1.33333333333333331e-01 0
58 1.60000000000000003e-01 1.33333333333333331e-01 0
59 1.79999999999999993e-01 1.33333333333333331e-01 0
60 1.60000000000000003e-01 1.66666666666666657e-01 0
61 1.79999999999999993e-01 1.66666666666666657e-01 0
62 1.40000000000000013e-01 1.66666666666666657e-01 0
63 1.40000000000000013e-01 2.00000000000000011e-01 0
64 1.40000000000000013e-01 2.33333333333333337e-01 0
65 1.60000000000000003e-01 2.33333333333333337e-01 0
66 1.79999999999999993e-01 2.33333333333333337e-01 0
67 1.60000000000000003e-01 2.00000000000000011e-01 0
68 1.79999999999999993e-01 2.00000000000000011e-01 0
69 2.00000000000000011e-01 2.00000000000000011e-01 0
70 2.00000000000000011e-01 2.33333333333333337e-01 0
71 2.20000000000000001e-01 2.33333333333333337e-01 0
72 2.39999999999999991e-01 2.33333333333333337e-01 0
73 2.20000000000000001e-01 2.00000000000000011e-01 0
74 2.39999999999999991e-01 2.00000000000000011e-01 0
75 2.39999999999999991e-01 1.66666666666666657e-01 0
76 2.20000000000000001e-01 1.66666666666666657e-01 0
77 2.00000000000000011e-01 1.66666666666666657e-01 0
78 2.00000000000000011e-01 1.33333333333333331e-01 0
79 2.20000000000000001e-01 1.33333333333333331e-01 0
80 2.39999999999999991e-01 1.33333333333333331e-01 0
81 2.20000000000000001e-01 1.00000000000000006e-01 0
82 2.39999999999999991e-01 1.00000000000000006e-01 0
83 2.39999999999999991e-01 6.66666666666666657e-02 0
84 2.20000000000000001e-01 6.66666666666666657e-02 0
85 2.00000000000000011e-01 6.66666666666666657e-02 0
86 2.00000000000000011e-01 1.00000000000000006e-01 0
87 1.79999999999999993e-01 1.00000000000000006e-01 0
88 1.60000000000000003e-01 1.00000000000000006e-01 0
89 1.40000000000000013e-01 1.00000000000000006e-01 0
90 1.40000000000000013e-01 6.66666666666666657e-02 0
91 1.60000000000000003e-01 6.66666666666666657e-02 0
92 1.79999999999999993e-01 6.66666666666666657e-02 0
93 1.79999999999999993e-01 3.33333333333333329e-02 0
94 1.60000000000000003e-01 3.33333333333333329e-02 0
95 1.40000000000000013e-01 3.33333333333333329e-02 0
96 1.40000000000000013e-01 0.00000000000000000e+00 0
97 1.60000000000000003e-01 0.00000000000000000e+00 0
98 1.79999999999999993e-01 0.00000000000000000e+00 0
99 2.00000000000000011e-01 0.00000000000000000e+00 0
100 2.00000000000000011e-01 3.33333333333333329e-02 0
101 2.20000000000000001e-01 3.33333333333333329e-02 0
102 2.39999999999999991e-01 3.33333333333333329e-02 0
103 2.20000000000000001e-01 0.00000000000000000e+00 0
104 2.39999999999999991e-01 0.00000000000000000e+00 0
105 2.60000000000000009e-01 0.00000000000000000e+00 0
106 2.80000000000000027e-01 0.00000000000000000e+00 0
107 2.99999999999999989e-01 0.00000000000000000e+00 0
108 2.99999999999999989e-01 3.33333333333333329e-02 0
109 2.80000000000000027e-01 3.33333333333333329e-02 0
110 2.60000000000000009e-01 3.33333333333333329e-02 0
111 2.60000000000000009e-01 6.66666666666666657e-02 0
112 2.80000000000000027e-01 6.66666666666666657e-02 0
113 2.60000000000000009e-01 1.00000000000000006e-01 0
114 2.80000000000000027e-01 1.00000000000000006e-01 0
115 2.99999999999999989e-01 1.00000000000000006e-01 0
116 2.99999999999999989e-01 6.66666666666666657e-02 0
117 3.20000000000000007e-01 6.66666666666666657e-02 0
118 3.40000000000000024e-01 6.66666666666666657e-02 0
119 3.20000000000000007e-01 1.00000000000000006e-01 0
120 3.40000000000000024e-01 1.00000000000000006e-01 0
121 3.59999999999999987e-01 1.00000000000000006e-01 0
122 3.59999999999999987e-01 6.66666666666666657e-02 0
123 3.59999999999999987e-01 3.33333333333333329e-02 0
124 3.20000000000000007e-01 3.33333333333333329e-02 0
125 3.40000000000000024e-01 3.33333333333333329e-02 0
126 3.20000000000000007e-01 0.00000000000000000e+00 0
127 3.40000000000000024e-01 0.00000000000000000e+00 0
128 3.59999999999999987e-01 0.00000000000000000e+00 0
129 3.80000000000000004e-01 0.00000000000000000e+00 0
130 4.00000000000000022e-01 0.00000000000000000e+00 0
131 3.80000000000000004e-01 3.33333333333333329e-02 0
132 4.00000000000000022e-01 3.33333333333333329e-02 0
133 4.19999999999999984e-01 3.33333333333333329e-02 0
134 4.19999999999999984e-01 0.00000000000000000e+00 0
135 4.40000000000000002e-01 0.00000000000000000e+00 0
136 4.60000000000000020e-01 0.00000000000000000e+00 0
137 4.79999999999999982e-01 0.00000000000000000e+00 0
138 4.79999999999999982e-01 3.33333333333333329e-02 0
139 4.60000000000000020e-01 3.33333333333333329e-02 0
140 4.40000000000000002e-01 3.33333333333333329e-02 0
141 4.40000000000000002e-01 6.66666666666666657e-02 0
142 4.60000000000000020e-01 6.66666666666666657e-02 0
143 4.79999999999999982e-01 6.66666666666666657e-02 0
144 4.79999999999999982e-01 1.00000000000000006e-01 0
145 4.60000000000000020e-01 1.00000000000000006e-01 0
146 4.40000000000000002e-01 1.00000000000000006e-01 0
147 4.19999999999999984e-01 1.00000000000000006e-01 0
148 4.19999999999999984e-01 6.66666666666666657e-02 0
149 4.00000000000000022e-01 6.66666666666666657e-02 0
150 3.80000000000000004e-01 6.66666666666666657e-02 0
151 3.80000000000000004e-01 1.00000000000000006e-01 0
152 4.00000000000000022e-01 1.00000000000000006e-01 0
153 3.80000000000000004e-01 1.33333333333333331e-01 0
154 4.00000000000000022e-01 1.33333333333333331e-01 0
155 3.80000000000000004e-01 1.66666666666666657e-01 0
156 4.00000000000000022e-01 1.66666666666666657e-01 0
157 4.19999999999999984e-01 1.66666666666666657e-01 0
158 4.19999999999999984e-01 1.33333333333333331e-01 0
159 4.40000000000000002e-01 1.33333333333333331e-01 0
160 4.60000000000000020e-01 1.33333333333333331e-01 0
161 4.79999999999999982e-01 1.33333333333333331e-01 0
162 4.79999999999999982e-01 1.66666666666666657e-01 0
163 4.60000000000000020e-01 1.66666666666666657e-01 0
164 4.40000000000000002e-01 1.66666666666666657e-01 0
165 4.40000000000000002e-01 2.00000000000000011e-01 0
166 4.60000000000000020e-01 2.00000000000000011e-01 0
167 4.79999999999999982e-01 2.00000000000000011e-01 0
168 4.79999999999999982e-01 2.33333333333333337e-01 0
169 4.60000000000000020e-01 2.33333333333333337e-01 0
170 4.40000000000000002e-01 2.33333333333333337e-01 0
171 4.19999999999999984e-01 2.33333333333333337e-01 0
172 4.19999999999999984e-01 2.00000000000000011e-01 0
173 4.00000000000000022e-01 2.00000000000000011e-01 0
174 3.80000000000000004e-01 2.00000000000000011e-01 0
175 3.80000000000000004e-01 2.33333333333333337e-01 0
176 4.00000000000000022e-01 2.33333333333333337e-01 0
177 3.59999999999999987e-01 2.33333333333333337e-01 0
178 3.20000000000000007e-01 2.33333333333333337e-01 0
179 3.40000000000000024e-01 2.33333333333333337e-01 0
180 3.20000000000000007e-01 2.00000000000000011e-01 0
181 3.40000000000000024e-01 2.00000000000000011e-01 0
182 3.59999999999999987e-01 2.00000000000000011e-01 0
183 3.59999999999999987e-01 1.66666666666666657e-01 0
184 3.59999999999999987e-01 1.33333333333333331e-01 0
185 3.40000000000000024e-01 1.33333333333333331e-01 0
186 3.20000000000000007e-01 1.33333333333333331e-01 0
187 3.20000000000000007e-01 1.66666666666666657e-01 0
188 3.40000000000000024e-01 1.66666666666666657e-01 0
189 2.99999999999999989e-01 1.66666666666666657e-01 0
190 2.99999999999999989e-01 1.33333333333333331e-01 0
191 2.80000000000000027e-01 1.33333333333333331e-01 0
192 2.60000000000000009e-01 1.33333333333333331e-01 0
193 2.60000000000000009e-01 1.66666666666666657e-01 0
194 2.80000000000000027e-01 1.66666666666666657e-01 0
195 2.60000000000000009e-01 2.00000000000000011e-01 0
196 2.80000000000000027e-01 2.00000000000000011e-01 0
197 2.99999999999999989e-01 2.00000000000000011e-01 0
198 2.99999999999999989e-01 2.33333333333333337e-01 0
199 2.80000000000000027e-01 2.33333333333333337e-01 0
200 2.60000000000000009e-01 2.33333333333333337e-01 0
201 2.60000000000000009e-01 2.66666666666666663e-01 0
202 2.80000000000000027e-01 2.66666666666666663e-01 0
203 2.99999999999999989e-01 2.66666666666666663e-01 0
204 2.99999999999999989e-01 2.99999999999999989e-01 0
205 2.80000000000000027e-01 2.99999999999999989e-01 0
206 2.60000000000000009e-01 2.99999999999999989e-01 0
207 2.80000000000000027e-01 3.33333333333333315e-01 0
208 2.60000000000000009e-01 3.33333333333333315e-01 0
209 2.60000000000000009e-01 3.66666666666666641e-01 0
210 2.80000000000000027e-01 3.66666666666666641e-01 0
211 2.99999999999999989e-01 3.66666666666666641e-01 0
212 2.99999999999999989e-01 3.33333333333333315e-01 0
213 3.40000000000000024e-01 3.33333333333333315e-01 0
214 3.20000000000000007e-01 3.33333333333333315e-01 0
215 3.20000000000000007e-01 3.66666666666666641e-01 0
216 3.40000000000000024e-01 3.66666666666666641e-01 0
217 3.59999999999999987e-01 3.66666666666666641e-01 0
218 3.59999999999999987e-01 3.33333333333333315e-01 0
219 3.59999999999999987e-01 2.99999999999999989e-01 0
220 3.40000000000000024e-01 2.99999999999999989e-01 0
221 3.20000000000000007e-01 2.99999999999999989e-01 0
222 3.40000000000000024e-01 2.66666666666666663e-01 0
223 3.20000000000000007e-01 2.66666666666666663e-01 0
224 3.59999999999999987e-01 2.66666666666666663e-01 0
225 4.00000000000000022e-01 2.66666666666666663e-01 0
226 3.80000000000000004e-01 2.66666666666666663e-01 0
227 3.80000000000000004e-01 2.99999999999999989e-01 0
228 4.00000000000000022e-01 2.99999999999999989e-01 0
229 4.19999999999999984e-01 2.99999999999999989e-01 0
230 4.19999999999999984e-01 2.66666666666666663e-01 0
231 4.40000000000000002e-01 2.66666666666666663e-01 0
232 4.60000000000000020e-01 2.66666666666666663e-01 0
233 4.79999999999999982e-01 2.66666666666666663e-01 0
234 4.79999999999999982e-01 2.99999999999999989e-01 0
235 4.60000000000000020e-01 2.99999999999999989e-01 0
236 4.40000000000000002e-01 2.99999999999999989e-01 0
237 4.40000000000000002e-01 3.33333333333333315e-01 0
238 4.60000000000000020e-01 3.33333333333333315e-01 0
239 4.79999999999999982e-01 3.33333333333333315e-01 0
240 4.79999999999999982e-01 3.66666666666666641e-01 0
241 4.60000000000000020e-01 3.66666666666666641e-01 0
242 4.40000000000000002e-01 3.66666666666666641e-01 0
243 4.19999999999999984e-01 3.66666666666666641e-01 0
244 4.19999999999999984e-01 3.33333333333333315e-01 0
245 4.00000000000000022e-01 3.33333333333333315e-01 0
246 3.80000000000000004e-01 3.33333333333333315e-01 0
247 4.00000000000000022e-01 3.66666666666666641e-01 0
248 3.80000000000000004e-01 3.66666666666666641e-01 0
249 4.00000000000000022e-01 4.00000000000000022e-01 0
250 3.80000000000000004e-01 4.00000000000000022e-01 0
251 3.80000000000000004e-01 4.33333333333333348e-01 0
252 4.00000000000000022e-01 4.33333333333333348e-01 0
253 4.19999999999999984e-01 4.33333333333333348e-01 0
254 4.19999999999999984e-01 4.00000000000000022e-01 0
255 4.40000000000000002e-01 4.00000000000000022e-01 0
256 4.60000000000000020e-01 4.00000000000000022e-01 0
257 4.79999999999999982e-01 4.00000000000000022e-01 0
258 4.79999999999999982e-01 4.33333333333333348e-01 0
259 4.60000000000000020e-01 4.33333333333333348e-01 0
260 4.40000000000000002e-01 4.33333333333333348e-01 0
261 4.40000000000000002e-01 4.66666666666666674e-01 0
262 4.60000000000000020e-01 4.66666666666666674e-01 0
263 4.79999999999999982e-01 4.66666666666666674e-01 0
264 4.19999999999999984e-01 4.66666666666666674e-01 0
265 4.00000000000000022e-01 4.66666666666666674e-01 0
266 3.80000000000000004e-01 4.66666666666666674e-01 0
267 3.40000000000000024e-01 4.66666666666666674e-01 0
268 3.20000000000000007e-01 4.66666666666666674e-01 0
269 3.59999999999999987e-01 4.66666666666666674e-01 0
270 3.59999999999999987e-01 4.33333333333333348e-01 0
271 3.59999999999999987e-01 4.00000000000000022e-01 0
272 3.40000000000000024e-01 4.00000000000000022e-01 0
273 3.20000000000000007e-01 4.00000000000000022e-01 0
274 3.40000000000000024e-01 4.33333333333333348e-01 0
275 3.20000000000000007e-01 4.33333333333333348e-01 0
276 2.99999999999999989e-01 4.33333333333333348e-01 0
277 2.99999999999999989e-01 4.00000000000000022e-01 0
278 2.80000000000000027e-01 4.00000000000000022e-01 0
279 2.60000000000000009e-01 4.00000000000000022e-01 0
280 2.80000000000000027e-01 4.33333333333333348e-01 0
281 2.60000000000000009e-01 4.33333333333333348e-01 0
282 2.60000000000000009e-01 4.66666666666666674e-01 0
283 2.80000000000000027e-01 4.66666666666666674e-01 0
284 2.99999999999999989e-01 4.66666666666666674e-01 0
285 2.39999999999999991e-01 4.66666666666666674e-01 0
286 2.20000000000000001e-01 4.66666666666666674e-01 0
287 2.00000000000000011e-01 4.66666666666666674e-01 0
288 1.40000000000000013e-01 4.66666666666666674e-01 0
289 1.60000000000000003e-01 4.66666666666666674e-01 0
290 1.79999999999999993e-01 4.66666666666666674e-01 0
291 1.79999999999999993e-01 4.33333333333333348e-01 0
292 1.60000000000000003e-01 4.33333333333333348e-01 0
293 1.40000000000000013e-01 4.33333333333333348e-01 0
294 1.40000000000000013e-01 4.00000000000000022e-01 0
295 1.60000000000000003e-01 4.00000000000000022e-01 0
296 1.79999999999999993e-01 4.00000000000000022e-01 0
297 2.00000000000000011e-01 4.00000000000000022e-01 0
298 2.00000000000000011e-01 4.33333333333333348e-01 0
299 2.20000000000000001e-01 4.33333333333333348e-01 0
300 2.39999999999999991e-01 4.33333333333333348e-01 0
301 2.39999999999999991e-01 4.00000000000000022e-01 0
302 2.20000000000000001e-01 4.00000000000000022e-01 0
303 2.39999999999999991e-01 3.66666666666666641e-01 0
304 2.20000000000000001e-01 3.66666666666666641e-01 0
305 2.00000000000000011e-01 3.66666666666666641e-01 0
306 2.00000000000000011e-01 3.33333333333333315e-01 0
307 2.20000000000000001e-01 3.33333333333333315e-01 0
308 2.39999999999999991e-01 3.33333333333333315e-01 0
309 2.39999999999999991e-01 2.99999999999999989e-01 0
310 2.20000000000000001e-01 2.99999999999999989e-01 0
311 2.39999999999999991e-01 2.66666666666666663e-01 0
312 2.20000000000000001e-01 2.66666666666666663e-01 0
313 2.00000000000000011e-01 2.66666666666666663e-01 0
314 2.00000000000000011e-01 2.99999999999999989e-01 0
315 1.79999999999999993e-01 2.99999999999999989e-01 0
316 1.60000000000000003e-01 2.99999999999999989e-01 0
317 1.79999999999999993e-01 2.66666666666666663e-01 0
318 1.60000000000000003e-01 2.66666666666666663e-01 0
319 1.40000000000000013e-01 2.66666666666666663e-01 0
320 1.40000000000000013e-01 2.99999999999999989e-01 0
321 1.40000000000000013e-01 3.33333333333333315e-01 0
322 1.79999999999999993e-01 3.33333333333333315e-01 0
323 1.60000000000000003e-01 3.33333333333333315e-01 0
324 1.79999999999999993e-01 3.66666666666666641e-01 0
325 1.60000000000000003e-01 3.66666666666666641e-01 0
326 1.40000000000000013e-01 3.66666666666666641e-01 0
327 1.19999999999999996e-01 3.66666666666666641e-01 0
328 1.00000000000000006e-01 3.66666666666666641e-01 0
329 8.00000000000000017e-02 3.66666666666666641e-01 0
330 8.00000000000000017e-02 3.33333333333333315e-01 0
331 1.00000000000000006e-01 3.33333333333333315e-01 0
332 1.19999999999999996e-01 3.33333333333333315e-01 0
333 1.19999999999999996e-01 2.99999999999999989e-01 0
334 1.00000000000000006e-01 2.99999999999999989e-01 0
335 1.19999999999999996e-01 2.66666666666666663e-01 0
336 1.00000000000000006e-01 2.66666666666666663e-01 0
337 8.00000000000000017e-02 2.66666666666666663e-01 0
338 8.00000000000000017e-02 2.99999999999999989e-01 0
339 5.99999999999999978e-02 2.99999999999999989e-01 0
340 4.00000000000000008e-02 2.99999999999999989e-01 0
341 5.99999999999999978e-02 2.66666666666666663e-01 0
342 4.00000000000000008e-02 2.66666666666666663e-01 0
343 2.00000000000000004e-02 2.66666666666666663e-01 0
344 0.00000000000000000e+00 2.66666666666666663e-01 0
345 2.00000000000000004e-02 2.99999999999999989e-01 0
346 0.00000000000000000e+00 2.99999999999999989e-01 0
347 0.00000000000000000e+00 3.33333333333333315e-01 0
348 2.00000000000000004e-02 3.33333333333333315e-01 0
349 5.99999999999999978e-02 3.33333333333333315e-01 0
350 4.00000000000000008e-02 3.33333333333333315e-01 0
351 5.99999999999999978e-02 3.66666666666666641e-01 0
352 4.00000000000000008e-02 3.66666666666666641e-01 0
353 2.00000000000000004e-02 3.66666666666666641e-01 0
354 0.00000000000000000e+00 3.66666666666666641e-01 0
355 2.00000000000000004e-02 4.00000000000000022e-01 0
356 0.00000000000000000e+00 4.00000000000000022e-01 0
357 0.00000000000000000e+00 4.33333333333333348e-01 0
358 2.00000000000000004e-02 4.33333333333333348e-01 0
359 4.00000000000000008e-02 4.33333333333333348e-01 0
360 5.99999999999999978e-02 4.33333333333333348e-01 0
361 5.99999999999999978e-02 4.00000000000000022e-01 0
362 4.00000000000000008e-02 4.00000000000000022e-01 0
363 8.00000000000000017e-02 4.00000000000000022e-01 0
364 1.19999999999999996e-01 4.00000000000000022e-01 0
365 1.00000000000000006e-01 4.00000000000000022e-01 0
366 1.19999999999999996e-01 4.33333333333333348e-01 0
367 1.00000000000000006e-01 4.33333333333333348e-01 0
368 8.00000000000000017e-02 4.33333333333333348e-01 0
369 8.00000000000000017e-02 4.66666666666666674e-01 0
370 1.19999999999999996e-01 4.66666666666666674e-01 0
371 1.00000000000000006e-01 4.66666666666666674e-01 0
372 5.99999999999999978e-02 4.66666666666666674e-01 0
373 4.00000000000000008e-02 4.66666666666666674e-01 0
374 2.00000000000000004e-02 4.66666666666666674e-01 0
375 0.00000000000000000e+00 4.66666666666666674e-01 0
376 0.00000000000000000e+00 5.00000000000000000e-01 0
377 2.00000000000000004e-02 5.00000000000000000e-01 0
378 4.00000000000000008e-02 5.00000000000000000e-01 0
379 5.99999999999999978e-02 5.00000000000000000e-01 0
380 4.00000000000000008e-02 5.33333333333333326e-01 0
381 5.99999999999999978e-02 5.33333333333333326e-01 0
382 2.00000000000000004e-02 5.33333333333333326e-01 0
383 0.00000000000000000e+00 5.33333333333333326e-01 0
384 0.00000000000000000e+00 5.66666666666666652e-01 0
385 2.00000000000000004e-02 5.66666666666666652e-01 0
386 0.00000000000000000e+00 5.99999999999999978e-01 0
387 2.00000000000000004e-02 5.99999999999999978e-01 0
388 4.00000000000000008e-02 5.99999999999999978e-01 0
389 5.99999999999999978e-02 5.99999999999999978e-01 0
390 4.00000000000000008e-02 5.66666666666666652e-01 0
391 5.99999999999999978e-02 5.66666666666666652e-01 0
392 8.00000000000000017e-02 5.66666666666666652e-01 0
393 8.00000000000000017e-02 5.99999999999999978e-01 0
394 1.00000000000000006e-01 5.99999999999999978e-01 0
395 1.19999999999999996e-01 5.99999999999999978e-01 0
396 1.00000000000000006e-01 5.66666666666666652e-01 0
397 1.19999999999999996e-01 5.66666666666666652e-01 0
398 1.19999999999999996e-01 5.33333333333333326e-01 0
399 1.00000000000000006e-01 5.33333333333333326e-01 0
400 8.00000000000000017e-02 5.33333333333333326e-01 0
401 8.00000000000000017e-02 5.00000000000000000e-01 0
402 1.00000000000000006e-01 5.00000000000000000e-01 0
403 1.19999999999999996e-01 5.00000000000000000e-01 0
404 1.40000000000000013e-01 5.00000000000000000e-01 0
405 1.40000000000000013e-01 5.33333333333333326e-01 0
406 1.60000000000000003e-01 5.33333333333333326e-01 0
407 1.79999999999999993e-01 5.33333333333333326e-01 0
408 1.60000000000000003e-01 5.00000000000000000e-01 0
409 1.79999999999999993e-01 5.00000000000000000e-01 0
410 2.00000000000000011e-01 5.00000000000000000e-01 0
411 2.20000000000000001e-01 5.00000000000000000e-01 0
412 2.39999999999999991e-01 5.00000000000000000e-01 0
413 2.20000000000000001e-01 5.33333333333333326e-01 0
414 2.39999999999999991e-01 5.33333333333333326e-01 0
415 2.00000000000000011e-01 5.33333333333333326e-01 0
416 2.00000000000000011e-01 5.66666666666666652e-01 0
417 2.20000000000000001e-01 5.66666666666666652e-01 0
418 2.39999999999999991e-01 5.66666666666666652e-01 0
419 2.20000000000000001e-01 5.99999999999999978e-01 0
420 2.39999999999999991e-01 5.99999999999999978e-01 0
421 2.00000000000000011e-01 5.99999999999999978e-01 0
422 1.60000000000000003e-01 5.99999999999999978e-01 0
423 1.79999999999999993e-01 5.99999999999999978e-01 0
424 1.79999999999999993e-01 5.66666666666666652e-01 0
425 1.60000000000000003e-01 5.66666666666666652e-01 0
426 1.40000000000000013e-01 5.66666666666666652e-01 0
427 1.40000000000000013e-01 5.99999999999999978e-01 0
428 1.40000000000000013e-01 6.33333333333333304e-01 0
429 1.40000000000000013e-01 6.66666666666666630e-01 0
430 1.60000000000000003e-01 6.66666666666666630e-01 0
431 1.79999999999999993e-01 6.66666666666666630e-01 0
432 1.60000000000000003e-01 6.33333333333333304e-01 0
433 1.79999999999999993e-01 6.33333333333333304e-01 0
434 2.00000000000000011e-01 6.33333333333333304e-01 0
435 2.20000000000000001e-01 6.33333333333333304e-01 0
436 2.39999999999999991e-01 6.33333333333333304e-01 0
437 2.20000000000000001e-01 6.66666666666666630e-01 0
438 2.39999999999999991e-01 6.66666666666666630e-01 0
439 2.00000000000000011e-01 6.66666666666666630e-01 0
440 2.00000000000000011e-01 6.99999999999999956e-01 0
441 2.20000000000000001e-01 6.99999999999999956e-01 0
442 2.39999999999999991e-01 6.99999999999999956e-01 0
443 2.20000000000000001e-01 7.33333333333333282e-01 0
444 2.39999999999999991e-01 7.33333333333333282e-01 0
445 2.00000000000000011e-01 7.33333333333333282e-01 0
446 1.60000000000000003e-01 7.33333333333333282e-01 0
447 1.79999999999999993e-01 7.33333333333333282e-01 0
448 1.79999999999999993e-01 6.99999999999999956e-01 0
449 1.60000000000000003e-01 6.99999999999999956e-01 0
450 1.40000000000000013e-01 6.99999999999999956e-01 0
451 1.40000000000000013e-01 7.33333333333333282e-01 0
452 1.19999999999999996e-01 7.33333333333333282e-01 0
453 1.00000000000000006e-01 7.33333333333333282e-01 0
454 8.00000000000000017e-02 7.33333333333333282e-01 0
455 8.00000000000000017e-02 6.99999999999999956e-01 0
456 1.00000000000000006e-01 6.99999999999999956e-01 0
457 1.19999999999999996e-01 6.99999999999999956e-01 0
458 1.00000000000000006e-01 6.66666666666666630e-01 0
459 1.19999999999999996e-01 6.66666666666666630e-01 0
460 1.19999999999999996e-01 6.33333333333333304e-01 0
461 1.00000000000000006e-01 6.33333333333333304e-01 0
462 8.00000000000000017e-02 6.33333333333333304e-01 0
463 8.00000000000000017e-02 6.66666666666666630e-01 0
464 4.00000000000000008e-02 6.66666666666666630e-01 0
465 5.99999999999999978e-02 6.66666666666666630e-01 0
466 5.99999999999999978e-02 6.33333333333333304e-01 0
467 4.00000000000000008e-02 6.33333333333333304e-01 0
468 2.00000000000000004e-02 6.33333333333333304e-01 0
469 0.00000000000000000e+00 6.33333333333333304e-01 0
470 0.00000000000000000e+00 6.66666666666666630e-01 0
471 2.00000000000000004e-02 6.66666666666666630e-01 0
472 0.00000000000000000e+00 6.99999999999999956e-01 0
473 2.00000000000000004e-02 6.99999999999999956e-01 0
474 4.00000000000000008e-02 6.99999999999999956e-01 0
475 5.99999999999999978e-02 6.99999999999999956e-01 0
476 4.00000000000000008e-02 7.33333333333333282e-01 0
477 5.99999999999999978e-02 7.33333333333333282e-01 0
478 2.00000000000000004e-02 7.33333333333333282e-01 0
479 0.00000000000000000e+00 7.33333333333333282e-01 0
480 2.00000000000000004e-02 7.66666666666666607e-01 0
481 0.00000000000000000e+00 7.66666666666666607e-01 0
482 0.00000000000000000e+00 8.00000000000000044e-01 0
483 2.00000000000000004e-02 8.00000000000000044e-01 0
484 4.00000000000000008e-02 8.00000000000000044e-01 0
485 5.99999999999999978e-02 8.00000000000000044e-01 0
486 5.99999999999999978e-02 7.66666666666666607e-01 0
487 4.00000000000000008e-02 7.66666666666666607e-01 0
488 8.00000000000000017e-02 7.66666666666666607e-01 0
489 1.19999999999999996e-01 7.66666666666666607e-01 0
490 1.00000000000000006e-01 7.66666666666666607e-01 0
491 1.19999999999999996e-01 8.00000000000000044e-01 0
492 1.00000000000000006e-01 8.00000000000000044e-01 0
493 8.00000000000000017e-02 8.00000000000000044e-01 0
494 8.00000000000000017e-02 8.33333333333333370e-01 0
495 1.19999999999999996e-01 8.33333333333333370e-01 0
496 1.00000000000000006e-01 8.33333333333333370e-01 0
497 1.19999999999999996e-01 8.66666666666666696e-01 0
498 1.00000000000000006e-01 8.66666666666666696e-01 0
499 8.00000000000000017e-02 8.66666666666666696e-01 0
500 5.99999999999999978e-02 8.66666666666666696e-01 0
501 4.00000000000000008e-02 8.66666666666666696e-01 0
502 5.99999999999999978e-02 8.33333333333333370e-01 0
503 4.00000000000000008e-02 8.33333333333333370e-01 0
504 2.00000000000000004e-02 8.33333333333333370e-01 0
505 0.00000000000000000e+00 8.33333333333333370e-01 0
506 2.00000000000000004e-02 8.66666666666666696e-01 0
507 0.00000000000000000e+00 8.66666666666666696e-01 0
508 0.00000000000000000e+00 9.00000000000000022e-01 0
509 2.00000000000000004e-02 9.00000000000000022e-01 0
510 5.99999999999999978e-02 9.00000000000000022e-01 0
511 4.00000000000000008e-02 9.00000000000000022e-01 0
512 5.99999999999999978e-02 9.33333333333333348e-01 0
513 4.00000000000000008e-02 9.33333333333333348e-01 0
514 2.00000000000000004e-02 9.33333333333333348e-01 0
515 0.00000000000000000e+00 9.33333333333333348e-01 0
516 2.00000000000000004e-02 9.66666666666666674e-01 0
517 0.00000000000000000e+00 9.66666666666666674e-01 0
518 0.00000000000000000e+00 1.00000000000000000e+00 0
519 2.00000000000000004e-02 1.00000000000000000e+00 0
520 4.00000000000000008e-02 1.00000000000000000e+00 0
521 5.99999999999999978e-02 1.00000000000000000e+00 0
522 5.99999999999999978e-02 9.66666666666666674e-01 0
523 4.00000000000000008e-02 9.66666666666666674e-01 0
524 8.00000000000000017e-02 9.66666666666666674e-01 0
525 8.00000000000000017e-02 1.00000000000000000e+00 0
526 1.00000000000000006e-01 1.00000000000000000e+00 0
527 1.19999999999999996e-01 1.00000000000000000e+00 0
528 1.19999999999999996e-01 9.66666666666666674e-01 0
529 1.00000000000000006e-01 9.66666666666666674e-01 0
530 1.19999999999999996e-01 9.33333333333333348e-01 0
531 1.00000000000000006e-01 9.33333333333333348e-01 0
532 8.00000000000000017e-02 9.33333333333333348e-01 0
533 8.00000000000000017e-02 9.00000000000000022e-01 0
534 1.00000000000000006e-01 9.00000000000000022e-01 0
535 1.19999999999999996e-01 9.00000000000000022e-01 0
536 1.40000000000000013e-01 9.00000000000000022e-01 0
537 1.79999999999999993e-01 9.00000000000000022e-01 0
538 1.60000000000000003e-01 9.00000000000000022e-01 0
539 1.79999999999999993e-01 9.33333333333333348e-01 0
540 1.60000000000000003e-01 9.33333333333333348e-01 0
541 1.40000000000000013e-01 9.33333333333333348e-01 0
542 1.40000000000000013e-01 9.66666666666666674e-01 0
543 1.40000000000000013e-01 1.00000000000000000e+00 0
544 1.60000000000000003e-01 1.00000000000000000e+00 0
545 1.79999999999999993e-01 1.00000000000000000e+00 0
546 1.79999999999999993e-01 9.66666666666666674e-01 0
547 1.60000000000000003e-01 9.66666666666666674e-01 0
548 2.00000000000000011e-01 9.66666666666666674e-01 0
549 2.00000000000000011e-01 1.00000000000000000e+00 0
550 2.20000000000000001e-01 1.00000000000000000e+00 0
551 2.39999999999999991e-01 1.00000000000000000e+00 0
552 2.39999999999999991e-01 9.66666666666666674e-01 0
553 2.20000000000000001e-01 9.66666666666666674e-01 0
554 2.39999999999999991e-01 9.33333333333333348e-01 0
555 2.20000000000000001e-01 9.33333333333333348e-01 0
556 2.00000000000000011e-01 9.33333333333333348e-01 0
557 2.00000000000000011e-01 9.00000000000000022e-01 0
558 2.20000000000000001e-01 9.00000000000000022e-01 0
559 2.39999999999999991e-01 9.00000000000000022e-01 0
560 2.39999999999999991e-01 8.66666666666666696e-01 0
561 2.20000000000000001e-01 8.66666666666666696e-01 0
562 2.39999999999999991e-01 8.33333333333333370e-01 0
563 2.20000000000000001e-01 8.33333333333333370e-01 0
564 2.00000000000000011e-01 8.33333333333333370e-01 0
565 2.00000000000000011e-01 8.66666666666666696e-01 0
566 1.79999999999999993e-01 8.66666666666666696e-01 0
567 1.60000000000000003e-01 8.66666666666666696e-01 0
568 1.40000000000000013e-01 8.66666666666666696e-01 0
569 1.40000000000000013e-01 8.33333333333333370e-01 0
570 1.60000000000000003e-01 8.33333333333333370e-01 0
571 1.79999999999999993e-01 8.33333333333333370e-01 0
572 1.79999999999999993e-01 8.00000000000000044e-01 0
573 1.60000000000000003e-01 8.00000000000000044e-01 0
574 1.40000000000000013e-01 8.00000000000000044e-01 0
575 1.40000000000000013e-01 7.66666666666666607e-01 0
576 1.60000000000000003e-01 7.66666666666666607e-01 0
577 1.79999999999999993e-01 7.66666666666666607e-01 0
578 2.00000000000000011e-01 7.66666666666666607e-01 0
579 2.00000000000000011e-01 8.00000000000000044e-01 0
580 2.20000000000000001e-01 8.00000000000000044e-01 0
581 2.39999999999999991e-01 8.00000000000000044e-01 0
582 2.39999999999999991e-01 7.66666666666666607e-01 0
583 2.20000000000000001e-01 7.66666666666666607e-01 0
584 2.80000000000000027e-01 7.66666666666666607e-01 0
585 2.60000000000000009e-01 7.66666666666666607e-01 0
586 2.60000000000000009e-01 8.00000000000000044e-01 0
587 2.80000000000000027e-01 8.00000000000000044e-01 0
588 2.99999999999999989e-01 8.00000000000000044e-01 0
589 2.99999999999999989e-01 7.66666666666666607e-01 0
590 3.20000000000000007e-01 7.66666666666666607e-01 0
591 3.40000000000000024e-01 7.66666666666666607e-01 0
592 3.59999999999999987e-01 7.66666666666666607e-01 0
593 3.59999999999999987e-01 8.00000000000000044e-01 0
594 3.40000000000000024e-01 8.00000000000000044e-01 0
595 3.20000000000000007e-01 8.00000000000000044e-01 0
596 3.20000000000000007e-01 8.33333333333333370e-01 0
597 3.40000000000000024e-01 8.33333333333333370e-01 0
598 3.59999999999999987e-01 8.33333333333333370e-01 0
599 3.59999999999999987e-01 8.66666666666666696e-01 0
600 3.40000000000000024e-01 8.66666666666666696e-01 0
601 3.20000000000000007e-01 8.66666666666666696e-01 0
602 2.99999999999999989e-01 8.66666666666666696e-01 0
603 2.99999999999999989e-01 8.33333333333333370e-01 0
604 2.80000000000000027e-01 8.33333333333333370e-01 0
605 2.60000000000000009e-01 8.33333333333333370e-01 0
606 2.80000000000000027e-01 8.66666666666666696e-01 0
607 2.60000000000000009e-01 8.66666666666666696e-01 0
608 2.60000000000000009e-01 9.00000000000000022e-01 0
609 2.80000000000000027e-01 9.00000000000000022e-01 0
610 2.99999999999999989e-01 9.00000000000000022e-01 0
611 2.99999999999999989e-01 9.33333333333333348e-01 0
612 2.80000000000000027e-01 9.33333333333333348e-01 0
613 2.60000000000000009e-01 9.33333333333333348e-01 0
614 2.80000000000000027e-01 9.66666666666666674e-01 0
615 2.60000000000000009e-01 9.66666666666666674e-01 0
616 2.60000000000000009e-01 1.00000000000000000e+00 0
617 2.80000000000000027e-01 1.00000000000000000e+00 0
618 2.99999999999999989e-01 1.00000000000000000e+00 0
619 2.99999999999999989e-01 9.66666666666666674e-01 0
620 3.40000000000000024e-01 9.66666666666666674e-01 0
621 3.20000000000000007e-01 9.66666666666666674e-01 0
622 3.20000000000000007e-01 1.00000000000000000e+00 0
623 3.40000000000000024e-01 1.00000000000000000e+00 0
624 3.59999999999999987e-01 1.00000000000000000e+00 0
625 3.59999999999999987e-01 9.66666666666666674e-01 0
626 3.59999999999999987e-01 9.33333333333333348e-01 0
627 3.40000000000000024e-01 9.33333333333333348e-01 0
628 3.20000000000000007e-01 9.33333333333333348e-01 0
629 3.40000000000000024e-01 9.00000000000000022e-01 0
630 3.20000000000000007e-01 9.00000000000000022e-01 0
631 3.59999999999999987e-01 9.00000000000000022e-01 0
632 3.80000000000000004e-01 9.00000000000000022e-01 0
633 4.00000000000000022e-01 9.00000000000000022e-01 0
634 4.19999999999999984e-01 9.00000000000000022e-01 0
635 4.19999999999999984e-01 9.33333333333333348e-01 0
636 4.00000000000000022e-01 9.33333333333333348e-01 0
637 3.80000000000000004e-01 9.33333333333333348e-01 0
638 4.00000000000000022e-01 9.66666666666666674e-01 0
639 3.80000000000000004e-01 9.66666666666666674e-01 0
640 3.80000000000000004e-01 1.00000000000000000e+00 0
641 4.00000000000000022e-01 1.00000000000000000e+00 0
642 4.19999999999999984e-01 1.00000000000000000e+00 0
643 4.19999999999999984e-01 9.66666666666666674e-01 0
644 4.60000000000000020e-01 9.66666666666666674e-01 0
645 4.40000000000000002e-01 9.66666666666666674e-01 0
646 4.40000000000000002e-01 1.00000000000000000e+00 0
647 4.60000000000000020e-01 1.00000000000000000e+00 0
648 4.79999999999999982e-01 1.00000000000000000e+00 0
649 4.79999999999999982e-01 9.66666666666666674e-01 0
650 4.79999999999999982e-01 9.33333333333333348e-01 0
651 4.60000000000000020e-01 9.33333333333333348e-01 0
652 4.40000000000000002e-01 9.33333333333333348e-01 0
653 4.60000000000000020e-01 9.00000000000000022e-01 0
654 4.40000000000000002e-01 9.00000000000000022e-01 0
655 4.79999999999999982e-01 9.00000000000000022e-01 0
656 4.79999999999999982e-01 8.66666666666666696e-01 0
657 4.79999999999999982e-01 8.33333333333333370e-01 0
658 4.60000000000000020e-01 8.33333333333333370e-01 0
659 4.40000000000000002e-01 8.33333333333333370e-01 0
660 4.60000000000000020e-01 8.66666666666666696e-01 0
661 4.40000000000000002e-01 8.66666666666666696e-01 0
662 4.19999999999999984e-01 8.66666666666666696e-01 0
663 4.00000000000000022e-01 8.66666666666666696e-01 0
664 3.80000000000000004e-01 8.66666666666666696e-01 0
665 4.00000000000000022e-01 8.33333333333333370e-01 0
666 3.80000000000000004e-01 8.33333333333333370e-01 0
667 4.19999999999999984e-01 8.33333333333333370e-01 0
668 4.19999999999999984e-01 8.00000000000000044e-01 0
669 4.00000000000000022e-01 8.00000000000000044e-01 0
670 3.80000000000000004e-01 8.00000000000000044e-01 0
671 4.00000000000000022e-01 7.66666666666666607e-01 0
672 3.80000000000000004e-01 7.66666666666666607e-01 0
673 4.19999999999999984e-01 7.66666666666666607e-01 0
674 4.60000000000000020e-01 7.66666666666666607e-01 0
675 4.40000000000000002e-01 7.66666666666666607e-01 0
676 4.40000000000000002e-01 8.00000000000000044e-01 0
677 4.60000000000000020e-01 8.00000000000000044e-01 0
678 4.79999999999999982e-01 8.00000000000000044e-01 0
679 4.79999999999999982e-01 7.66666666666666607e-01 0
680 4.79999999999999982e-01 7.33333333333333282e-01 0
681 4.40000000000000002e-01 7.33333333333333282e-01 0
682 4.60000000000000020e-01 7.33333333333333282e-01 0
683 4.40000000000000002e-01 6.99999999999999956e-01 0
684 4.60000000000000020e-01 6.99999999999999956e-01 0
685 4.79999999999999982e-01 6.99999999999999956e-01 0
686 4.79999999999999982e-01 6.66666666666666630e-01 0
687 4.79999999999999982e-01 6.33333333333333304e-01 0
688 4.60000000000000020e-01 6.33333333333333304e-01 0
689 4.40000000000000002e-01 6.33333333333333304e-01 0
690 4.40000000000000002e-01 6.66666666666666630e-01 0
691 4.60000000000000020e-01 6.66666666666666630e-01 0
692 4.19999999999999984e-01 6.66666666666666630e-01 0
693 4.19999999999999984e-01 6.33333333333333304e-01 0
694 4.00000000000000022e-01 6.33333333333333304e-01 0
695 3.80000000000000004e-01 6.33333333333333304e-01 0
696 3.80000000000000004e-01 6.66666666666666630e-01 0
697 4.00000000000000022e-01 6.66666666666666630e-01 0
698 3.80000000000000004e-01 6.99999999999999956e-01 0
699 4.00000000000000022e-01 6.99999999999999956e-01 0
700 4.19999999999999984e-01 6.99999999999999956e-01 0
701 4.19999999999999984e-01 7.33333333333333282e-01 0
702 4.00000000000000022e-01 7.33333333333333282e-01 0
703 3.80000000000000004e-01 7.33333333333333282e-01 0
704 3.59999999999999987e-01 7.33333333333333282e-01 0
705 3.59999999999999987e-01 6.99999999999999956e-01 0
706 3.40000000000000024e-01 6.99999999999999956e-01 0
707 3.20000000000000007e-01 6.99999999999999956e-01 0
708 3.20000000000000007e-01 7.33333333333333282e-01 0
709 3.40000000000000024e-01 7.33333333333333282e-01 0
710 2.99999999999999989e-01 7.33333333333333282e-01 0
711 2.60000000000000009e-01 7.33333333333333282e-01 0
712 2.80000000000000027e-01 7.33333333333333282e-01 0
713 2.60000000000000009e-01 6.99999999999999956e-01 0
714 2.80000000000000027e-01 6.99999999999999956e-01 0
715 2.99999999999999989e-01 6.99999999999999956e-01 0
716 2.99999999999999989e-01 6.66666666666666630e-01 0
717 2.60000000000000009e-01 6.66666666666666630e-01 0
718 2.80000000000000027e-01 6.66666666666666630e-01 0
719 2.60000000000000009e-01 6.33333333333333304e-01 0
720 2.80000000000000027e-01 6.33333333333333304e-01 0
721 2.99999999999999989e-01 6.33333333333333304e-01 0
722 3.20000000000000007e-01 6.33333333333333304e-01 0
723 3.40000000000000024e-01 6.33333333333333304e-01 0
724 3.20000000000000007e-01 6.66666666666666630e-01 0
725 3.40000000000000024e-01 6.66666666666666630e-01 0
726 3.59999999999999987e-01 6.66666666666666630e-01 0
727 3.59999999999999987e-01 6.33333333333333304e-01 0
728 3.59999999999999987e-01 5.99999999999999978e-01 0
729 3.59999999999999987e-01 5.66666666666666652e-01 0
730 3.40000000000000024e-01 5.66666666666666652e-01 0
731 3.20000000000000007e-01 5.66666666666666652e-01 0
732 3.20000000000000007e-01 5.99999999999999978e-01 0
733 3.40000000000000024e-01 5.99999999999999978e-01 0
734 2.99999999999999989e-01 5.99999999999999978e-01 0
735 2.60000000000000009e-01 5.99999999999999978e-01 0
736 2.80000000000000027e-01 5.99999999999999978e-01 0
737 2.60000000000000009e-01 5.66666666666666652e-01 0
738 2.80000000000000027e-01 5.66666666666666652e-01 0
739 2.99999999999999989e-01 5.66666666666666652e-01 0
740 2.99999999999999989e-01 5.33333333333333326e-01 0
741 2.60000000000000009e-01 5.33333333333333326e-01 0
742 2.80000000000000027e-01 5.33333333333333326e-01 0
743 2.60000000000000009e-01 5.00000000000000000e-01 0
744 2.80000000000000027e-01 5.00000000000000000e-01 0
745 2.99999999999999989e-01 5.00000000000000000e-01 0
746 3.20000000000000007e-01 5.00000000000000000e-01 0
747 3.40000000000000024e-01 5.00000000000000000e-01 0
748 3.20000000000000007e-01 5.33333333333333326e-01 0
749 3.40000000000000024e-01 5.33333333333333326e-01 0
750 3.59999999999999987e-01 5.33333333333333326e-01 0
751 3.59999999999999987e-01 5.00000000000000000e-01 0
752 3.80000000000000004e-01 5.00000000000000000e-01 0
753 4.00000000000000022e-01 5.00000000000000000e-01 0
754 4.19999999999999984e-01 5.00000000000000000e-01 0
755 4.19999999999999984e-01 5.33333333333333326e-01 0
756 4.00000000000000022e-01 5.33333333333333326e-01 0
757 3.80000000000000004e-01 5.33333333333333326e-01 0
758 3.80000000000000004e-01 5.66666666666666652e-01 0
759 4.00000000000000022e-01 5.66666666666666652e-01 0
760 3.80000000000000004e-01 5.99999999999999978e-01 0
761 4.00000000000000022e-01 5.99999999999999978e-01 0
762 4.19999999999999984e-01 5.99999999999999978e-01 0
763 4.19999999999999984e-01 5.66666666666666652e-01 0
764 4.40000000000000002e-01 5.66666666666666652e-01 0
765 4.60000000000000020e-01 5.66666666666666652e-01 0
766 4.40000000000000002e-01 5.99999999999999978e-01 0
767 4.60000000000000020e-01 5.99999999999999978e-01 0
768 4.79999999999999982e-01 5.99999999999999978e-01 0
769 4.79999999999999982e-01 5.66666666666666652e-01 0
770 4.79999999999999982e-01 5.33333333333333326e-01 0
771 4.40000000000000002e-01 5.33333333333333326e-01 0
772 4.60000000000000020e-01 5.33333333333333326e-01 0
773 4.40000000000000002e-01 5.00000000000000000e-01 0
774 4.60000000000000020e-01 5.00000000000000000e-01 0
775 4.79999999999999982e-01 5.00000000000000000e-01 0
776 5.00000000000000000e-01 5.00000000000000000e-01 0
777 5.20000000000000018e-01 5.00000000000000000e-01 0
778 5.40000000000000036e-01 5.00000000000000000e-01 0
779 5.60000000000000053e-01 5.00000000000000000e-01 0
780 5.40000000000000036e-01 5.33333333333333326e-01 0
781 5.60000000000000053e-01 5.33333333333333326e-01 0
782 5.20000000000000018e-01 5.33333333333333326e-01 0
783 5.00000000000000000e-01 5.33333333333333326e-01 0
784 5.00000000000000000e-01 5.66666666666666652e-01 0
785 5.20000000000000018e-01 5.66666666666666652e-01 0
786 5.00000000000000000e-01 5.99999999999999978e-01 0
787 5.20000000000000018e-01 5.99999999999999978e-01 0
788 5.40000000000000036e-01 5.99999999999999978e-01 0
789 5.60000000000000053e-01 5.99999999999999978e-01 0
790 5.40000000000000036e-01 5.66666666666666652e-01 0
791 5.60000000000000053e-01 5.66666666666666652e-01 0
792 5.79999999999999960e-01 5.66666666666666652e-01 0
793 5.79999999999999960e-01 5.99999999999999978e-01 0
794 5.99999999999999978e-01 5.99999999999999978e-01 0
795 5.99999999999999978e-01 5.66666666666666652e-01 0
796 5.99999999999999978e-01 5.33333333333333326e-01 0
797 5.79999999999999960e-01 5.33333333333333326e-01 0
798 5.79999999999999960e-01 5.00000000000000000e-01 0
799 5.99999999999999978e-01 5.00000000000000000e-01 0
800 5.99999999999999978e-01 7.33333333333333282e-01 0
801 5.79999999999999960e-01 7.33333333333333282e-01 0
802 5.79999999999999960e-01 6.99999999999999956e-01 0
803 5.99999999999999978e-01 6.99999999999999956e-01 0
804 5.99999999999999978e-01 6.66666666666666630e-01 0
805 5.99999999999999978e-01 6.33333333333333304e-01 0
806 5.79999999999999960e-01 6.33333333333333304e-01 0
807 5.79999999999999960e-01 6.66666666666666630e-01 0
808 5.40000000000000036e-01 6.66666666666666630e-01 0
809 5.60000000000000053e-01 6.66666666666666630e-01 0
810 5.60000000000000053e-01 6.33333333333333304e-01 0
811 5.40000000000000036e-01 6.33333333333333304e-01 0
812 5.20000000000000018e-01 6.33333333333333304e-01 0
813 5.00000000000000000e-01 6.33333333333333304e-01 0
814 5.00000000000000000e-01 6.66666666666666630e-01 0
815 5.20000000000000018e-01 6.66666666666666630e-01 0
816 5.00000000000000000e-01 6.99999999999999956e-01 0
817 5.20000000000000018e-01 6.99999999999999956e-01 0
818 5.40000000000000036e-01 6.99999999999999956e-01 0
819 5.60000000000000053e-01 6.99999999999999956e-01 0
820 5.40000000000000036e-01 7.33333333333333282e-01 0
821 5.60000000000000053e-01 7.33333333333333282e-01 0
822 5.20000000000000018e-01 7.33333333333333282e-01 0
823 5.00000000000000000e-01 7.33333333333333282e-01 0
824 5.20000000000000018e-01 7.66666666666666607e-01 0
825 5.00000000000000000e-01 7.66666666666666607e-01 0
826 5.00000000000000000e-01 8.00000000000000044e-01 0
827 5.20000000000000018e-01 8.00000000000000044e-01 0
828 5.40000000000000036e-01 8.00000000000000044e-01 0
829 5.60000000000000053e-01 8.00000000000000044e-01 0
830 5.60000000000000053e-01 7.66666666666666607e-01 0
831 5.40000000000000036e-01 7.66666666666666607e-01 0
832 5.79999999999999960e-01 7.66666666666666607e-01 0
833 5.99999999999999978e-01 7.66666666666666607e-01 0
834 5.99999999999999978e-01 8.00000000000000044e-01 0
835 5.79999999999999960e-01 8.00000000000000044e-01 0
836 5.79999999999999960e-01 8.33333333333333370e-01 0
837 5.99999999999999978e-01 8.33333333333333370e-01 0
838 5.99999999999999978e-01 8.66666666666666696e-01 0
839 5.79999999999999960e-01 8.66666666666666696e-01 0
840 5.60000000000000053e-01 8.66666666666666696e-01 0
841 5.40000000000000036e-01 8.66666666666666696e-01 0
842 5.60000000000000053e-01 8.33333333333333370e-01 0
843 5.40000000000000036e-01 8.33333333333333370e-01 0
844 5.20000000000000018e-01 8.33333333333333370e-01 0
845 5.00000000000000000e-01 8.33333333333333370e-01 0
846 5.20000000000000018e-01 8.66666666666666696e-01 0
847 5.00000000000000000e-01 8.66666666666666696e-01 0
848 5.00000000000000000e-01 9.00000000000000022e-01 0
849 5.20000000000000018e-01 9.00000000000000022e-01 0
850 5.60000000000000053e-01 9.00000000000000022e-01 0
851 5.40000000000000036e-01 9.00000000000000022e-01 0
852 5.60000000000000053e-01 9.33333333333333348e-01 0
853 5.40000000000000036e-01 9.33333333333333348e-01 0
854 5.20000000000000018e-01 9.33333333333333348e-01 0
855 5.00000000000000000e-01 9.33333333333333348e-01 0
856 5.20000000000000018e-01 9.66666666666666674e-01 0
857 5.00000000000000000e-01 9.66666666666666674e-01 0
858 5.00000000000000000e-01 1.00000000000000000e+00 0
859 5.20000000000000018e-01 1.00000000000000000e+00 0
860 5.40000000000000036e-01 1.00000000000000000e+00 0
861 5.60000000000000053e-01 1.00000000000000000e+00 0
862 5.60000000000000053e-01 9.66666666666666674e-01 0
863 5.40000000000000036e-01 9.66666666666666674e-01 0
864 5.79999999999999960e-01 9.66666666666666674e-01 0
865 5.79999999999999960e-01 1.00000000000000000e+00 0
866 5.99999999999999978e-01 1.00000000000000000e+00 0
867 5.99999999999999978e-01 9.66666666666666674e-01 0
868 5.99999999999999978e-01 9.33333333333333348e-01 0
869 5.79999999999999960e-01 9.33333333333333348e-01 0
870 5.79999999999999960e-01 9.00000000000000022e-01 0
871 5.99999999999999978e-01 9.00000000000000022e-01 0
872 5.99999999999999978e-01 4.66666666666666674e-01 0
873 5.79999999999999960e-01 4.66666666666666674e-01 0
874 5.20000000000000018e-01 4.66666666666666674e-01 0
875 5.00000000000000000e-01 4.66666666666666674e-01 0
876 5.40000000000000036e-01 4.66666666666666674e-01 0
877 5.60000000000000053e-01 4.66666666666666674e-01 0
878 5.60000000000000053e-01 4.33333333333333348e-01 0
879 5.40000000000000036e-01 4.33333333333333348e-01 0
880 5.20000000000000018e-01 4.33333333333333348e-01 0
881 5.00000000000000000e-01 4.33333333333333348e-01 0
882 5.20000000000000018e-01 4.00000000000000022e-01 0
883 5.00000000000000000e-01 4.00000000000000022e-01 0
884 5.40000000000000036e-01 4.00000000000000022e-01 0
885 5.60000000000000053e-01 4.00000000000000022e-01 0
886 5.79999999999999960e-01 4.00000000000000022e-01 0
887 5.79999999999999960e-01 4.33333333333333348e-01 0
888 5.99999999999999978e-01 4.33333333333333348e-01 0
889 5.99999999999999978e-01 4.00000000000000022e-01 0
890 5.99999999999999978e-01 3.66666666666666641e-01 0
891 5.99999999999999978e-01 3.33333333333333315e-01 0
892 5.79999999999999960e-01 3.33333333333333315e-01 0
893 5.79999999999999960e-01 3.66666666666666641e-01 0
894 5.60000000000000053e-01 3.66666666666666641e-01 0
895 5.40000000000000036e-01 3.66666666666666641e-01 0
896 5.20000000000000018e-01 3.66666666666666641e-01 0
897 5.00000000000000000e-01 3.66666666666666641e-01 0
898 5.20000000000000018e-01 3.33333333333333315e-01 0
899 5.00000000000000000e-01 3.33333333333333315e-01 0
900 5.40000000000000036e-01 3.33333333333333315e-01 0
901 5.60000000000000053e-01 3.33333333333333315e-01 0
902 5.60000000000000053e-01 2.99999999999999989e-01 0
903 5.40000000000000036e-01 2.99999999999999989e-01 0
904 5.20000000000000018e-01 2.99999999999999989e-01 0
905 5.00000000000000000e-01 2.99999999999999989e-01 0
906 5.20000000000000018e-01 2.66666666666666663e-01 0
907 5.00000000000000000e-01 2.66666666666666663e-01 0
908 5.40000000000000036e-01 2.66666666666666663e-01 0
909 5.60000000000000053e-01 2.66666666666666663e-01 0
910 5.79999999999999960e-01 2.66666666666666663e-01 0
911 5.79999999999999960e-01 2.99999999999999989e-01 0
912 5.99999999999999978e-01 2.99999999999999989e-01 0
913 5.99999999999999978e-01 2.66666666666666663e-01 0
914 5.99999999999999978e-01 2.33333333333333337e-01 0
915 5.99999999999999978e-01 2.00000000000000011e-01 0
916 5.79999999999999960e-01 2.00000000000000011e-01 0
917 5.79999999999999960e-01 2.33333333333333337e-01 0
918 5.60000000000000053e-01 2.33333333333333337e-01 0
919 5.40000000000000036e-01 2.33333333333333337e-01 0
920 5.00000000000000000e-01 2.33333333333333337e-01 0
921 5.20000000000000018e-01 2.33333333333333337e-01 0
922 5.00000000000000000e-01 2.00000000000000011e-01 0
923 5.20000000000000018e-01 2.00000000000000011e-01 0
924 5.40000000000000036e-01 2.00000000000000011e-01 0
925 5.60000000000000053e-01 2.00000000000000011e-01 0
926 5.60000000000000053e-01 1.66666666666666657e-01 0
927 5.40000000000000036e-01 1.66666666666666657e-01 0
928 5.00000000000000000e-01 1.66666666666666657e-01 0
929 5.20000000000000018e-01 1.66666666666666657e-01 0
930 5.00000000000000000e-01 1.33333333333333331e-01 0
931 5.20000000000000018e-01 1.33333333333333331e-01 0
932 5.40000000000000036e-01 1.33333333333333331e-01 0
933 5.60000000000000053e-01 1.33333333333333331e-01 0
934 5.79999999999999960e-01 1.33333333333333331e-01 0
935 5.79999999999999960e-01 1.66666666666666657e-01 0
936 5.99999999999999978e-01 1.66666666666666657e-01 0
937 5.99999999999999978e-01 1.33333333333333331e-01 0
938 5.99999999999999978e-01 1.00000000000000006e-01 0
939 5.99999999999999978e-01 6.66666666666666657e-02 0
940 5.79999999999999960e-01 6.66666666666666657e-02 0
941 5.79999999999999960e-01 1.00000000000000006e-01 0
942 5.60000000000000053e-01 1.00000000000000006e-01 0
943 5.40000000000000036e-01 1.00000000000000006e-01 0
944 5.00000000000000000e-01 1.00000000000000006e-01 0
945 5.20000000000000018e-01 1.00000000000000006e-01 0
946 5.00000000000000000e-01 6.66666666666666657e-02 0
947 5.20000000000000018e-01 6.66666666666666657e-02 0
948 5.40000000000000036e-01 6.66666666666666657e-02 0
949 5.60000000000000053e-01 6.66666666666666657e-02 0
950 5.60000000000000053e-01 3.33333333333333329e-02 0
951 5.40000000000000036e-01 3.33333333333333329e-02 0
952 5.00000000000000000e-01 3.33333333333333329e-02 0
953 5.20000000000000018e-01 3.33333333333333329e-02 0
954 5.00000000000000000e-01 0.00000000000000000e+00 0
955 5.20000000000000018e-01 0.00000000000000000e+00 0
956 5.40000000000000036e-01 0.00000000000000000e+00 0
957 5.60000000000000053e-01 0.00000000000000000e+00 0
958 5.79999999999999960e-01 0.00000000000000000e+00 0
959 5.79999999999999960e-01 3.33333333333333329e-02 0
960 5.99999999999999978e-01 3.33333333333333329e-02 0
961 5.99999999999999978e-01 0.00000000000000000e+00 0
$EndNodes
$Elements
1924
1 15 2 10 10 2
2 15 2 6 6 87
3 15 2 8 8 153
4 15 2 2 2 230
5 1 2 1 1 1 2
6 1 2 1 1 2 7
7 1 2 3 3 3 1
8 1 2 1 1 7 8
9 1 2 1 1 8 9
10 1 2 1 1 9 10
11 1 2 1 1 10 11
12 1 2 1 1 11 96
13 1 2 3 3 26 3
14 1 2 3 3 27 26
15 1 2 3 3 29 27
16 1 2 3 3 36 29
17 1 2 3 3 37 36
18 1 2 3 3 39 37
19 1 2 1 1 96 97
20 1 2 1 1 97 98
21 1 2 1 1 98 99
22 1 2 1 1 99 103
23 1 2 1 1 103 104
24 1 2 1 1 104 105
25 1 2 1 1 105 106
26 1 2 1 1 106 107
27 1 2 1 1 107 126
28 1 2 1 1 126 127
29 1 2 1 1 127 128
30 1 2 1 1 128 129
31 1 2 1 1 129 130
32 1 2 1 1 130 134
33 1 2 1 1 134 135
34 1 2 1 1 135 136
35 1 2 1 1 136 137
36 1 2 1 1 137 954
37 1 2 3 3 344 39
38 1 2 3 3 346 344
39 1 2 3 3 347 346
40 1 2 3 3 354 347
41 1 2 3 3 356 354
42 1 2 3 3 357 356
43 1 2 3 3 375 357
44 1 2 3 3 376 375
45 1 2 3 3 383 376
46 1 2 3 3 384 383
47 1 2 3 3 386 384
48 1 2 3 3 469 386
49 1 2 3 3 470 469
50 1 2 3 3 472 470
51 1 2 3 3 479 472
52 1 2 3 3 481 479
53 1 2 3 3 482 481
54 1 2 3 3 505 482
55 1 2 3 3 507 505
56 1 2 3 3 508 507
57 1 2 3 3 515 508
58 1 2 3 3 517 515
59 1 2 3 3 518 517
60 1 2 7 7 519 518
61 1 2 7 7 520 519
62 1 2 7 7 521 520
63 1 2 7 7 525 521
64 1 2 7 7 526 525
65 1 2 7 7 527 526
66 1 2 7 7 543 527
67 1 2 7 7 544 543
68 1 2 7 7 545 544
69 1 2 7 7 549 545
70 1 2 7 7 550 549
71 1 2 7 7 551 550
72 1 2 7 7 616 551
73 1 2 7 7 617 616
74 1 2 7 7 618 617
75 1 2 7 7 622 618
76 1 2 7 7 623 622
77 1 2 7 7 624 623
78 1 2 7 7 640 624
79 1 2 7 7 641 640
80 1 2 7 7 642 641
81 1 2 7 7 646 642
82 1 2 7 7 647 646
83 1 2 7 7 648 647
84 1 2 5 5 794 805
85 1 2 5 5 795 794
86 1 2 5 5 796 795
87 1 2 5 5 799 796
88 1 2 5 5 800 833
89 1 2 5 5 803 800
90 1 2 5 5 804 803
91 1 2 5 5 805 804
92 1 2 5 5 833 834
93 1 2 5 5 834 837
94 1 2 5 5 837 838
95 1 2 5 5 838 871
96 1 2 7 7 858 648
97 1 2 7 7 859 858
98 1 2 7 7 860 859
99 1 2 7 7 861 860
100 1 2 7 7 865 861
101 1 2 7 7 866 865
102 1 2 5 5 867 866
103 1 2 5 5 868 867
104 1 2 5 5 871 868
105 1 2 5 5 872 799
106 1 2 5 5 888 872
107 1 2 5 5 889 888
108 1 2 5 5 890 889
109 1 2 5 5 891 890
110 1 2 5 5 912 891
111 1 2 5 5 913 912
112 1 2 5 5 914 913
113 1 2 5 5 915 914
114 1 2 5 5 936 915
115 1 2 5 5 937 936
116 1 2 5 5 938 937
117 1 2 5 5 939 938
118 1 2 1 1 954 955
119 1 2 1 1 955 956
120 1 2 1 1 956 957
121 1 2 1 1 957 958
122 1 2 1 1 958 961
123 1 2 5 5 960 939
124 1 2 5 5 961 960
125 2 2 4 4 1 2 4
126 2 2 4 4 2 7 5
127 2 2 4 4 3 4 25
128 2 2 4 4 4 3 1
129 2 2 4 4 4 5 24
130 2 2 4 4 5 4 2
131 2 2 4 4 5 6 23
132 2 2 4 4 6 5 7
133 2 2 4 4 6 14 15
134 2 2 4 4 7 8 6
135 2 2 4 4 8 9 14
136 2 2 4 4 9 10 12
137 2 2 4 4 10 11 13
138 2 2 4 4 11 96 95
139 2 2 4 4 12 14 9
140 2 2 4 4 12 13 17
141 2 2 4 4 13 12 10
142 2 2 4 4 13 95 90
143 2 2 4 4 14 6 8
144 2 2 4 4 14 12 16
145 2 2 4 4 15 23 6
146 2 2 4 4 15 16 18
147 2 2 4 4 16 15 14
148 2 2 4 4 16 17 19
149 2 2 4 4 17 16 12
150 2 2 4 4 17 90 89
151 2 2 4 4 18 20 15
152 2 2 4 4 18 19 56
153 2 2 4 4 19 18 16
154 2 2 4 4 19 89 57
155 2 2 4 4 20 22 23
156 2 2 4 4 20 18 55
157 2 2 4 4 21 28 25
158 2 2 4 4 21 22 32
159 2 2 4 4 22 21 24
160 2 2 4 4 22 20 54
161 2 2 4 4 23 24 5
162 2 2 4 4 23 15 20
163 2 2 4 4 24 25 4
164 2 2 4 4 24 23 22
165 2 2 4 4 25 26 3
166 2 2 4 4 25 24 21
167 2 2 4 4 26 25 28
168 2 2 4 4 27 28 30
169 2 2 4 4 28 27 26
170 2 2 4 4 28 21 31
171 2 2 4 4 29 30 35
172 2 2 4 4 30 29 27
173 2 2 4 4 30 31 33
174 2 2 4 4 31 30 28
175 2 2 4 4 31 32 34
176 2 2 4 4 32 31 21
177 2 2 4 4 32 54 53
178 2 2 4 4 33 35 30
179 2 2 4 4 33 34 44
180 2 2 4 4 34 33 31
181 2 2 4 4 34 53 45
182 2 2 4 4 35 36 29
183 2 2 4 4 35 33 43
184 2 2 4 4 36 35 38
185 2 2 4 4 37 38 40
186 2 2 4 4 38 37 36
187 2 2 4 4 38 43 41
188 2 2 4 4 39 40 343
189 2 2 4 4 40 39 37
190 2 2 4 4 40 41 342
191 2 2 4 4 41 40 38
192 2 2 4 4 41 42 341
193 2 2 4 4 42 41 43
194 2 2 4 4 42 46 337
195 2 2 4 4 43 38 35
196 2 2 4 4 43 44 42
197 2 2 4 4 44 43 33
198 2 2 4 4 44 45 46
199 2 2 4 4 45 44 34
200 2 2 4 4 45 49 47
201 2 2 4 4 46 42 44
202 2 2 4 4 46 47 336
203 2 2 4 4 47 46 45
204 2 2 4 4 47 48 335
205 2 2 4 4 48 47 49
206 2 2 4 4 48 64 319
207 2 2 4 4 49 45 53
208 2 2 4 4 49 50 48
209 2 2 4 4 50 49 52
210 2 2 4 4 50 63 64
211 2 2 4 4 51 52 55
212 2 2 4 4 51 62 63
213 2 2 4 4 52 53 54
214 2 2 4 4 52 51 50
215 2 2 4 4 53 34 32
216 2 2 4 4 53 52 49
217 2 2 4 4 54 32 22
218 2 2 4 4 54 55 52
219 2 2 4 4 55 54 20
220 2 2 4 4 55 56 51
221 2 2 4 4 56 55 18
222 2 2 4 4 56 57 62
223 2 2 4 4 57 56 19
224 2 2 4 4 57 58 60
225 2 2 4 4 58 57 89
226 2 2 4 4 58 59 61
227 2 2 4 4 59 58 88
228 2 2 4 4 59 78 77
229 2 2 4 4 60 62 57
230 2 2 4 4 60 61 68
231 2 2 4 4 61 60 58
232 2 2 4 4 61 77 69
233 2 2 4 4 62 51 56
234 2 2 4 4 62 60 67
235 2 2 4 4 63 50 51
236 2 2 4 4 63 67 65
237 2 2 4 4 64 48 50
238 2 2 4 4 64 65 318
239 2 2 4 4 65 64 63
240 2 2 4 4 65 66 317
241 2 2 4 4 66 65 67
242 2 2 4 4 66 70 313
243 2 2 4 4 67 63 62
244 2 2 4 4 67 68 66
245 2 2 4 4 68 67 60
246 2 2 4 4 68 69 70
247 2 2 4 4 69 68 61
248 2 2 4 4 69 73 71
249 2 2 4 4 70 66 68
250 2 2 4 4 70 71 312
251 2 2 4 4 71 70 69
252 2 2 4 4 71 72 311
253 2 2 4 4 72 71 73
254 2 2 4 4 72 200 201
255 2 2 4 4 73 69 77
256 2 2 4 4 73 74 72
257 2 2 4 4 74 73 76
258 2 2 4 4 74 195 200
259 2 2 4 4 75 76 79
260 2 2 4 4 75 193 195
261 2 2 4 4 76 77 78
262 2 2 4 4 76 75 74
263 2 2 4 4 77 61 59
264 2 2 4 4 77 76 73
265 2 2 4 4 78 59 87
266 2 2 4 4 78 79 76
267 2 2 4 4 79 78 86
268 2 2 4 4 79 80 75
269 2 2 4 4 80 79 81
270 2 2 4 4 80 192 193
271 2 2 4 4 81 86 85
272 2 2 4 4 81 82 80
273 2 2 4 4 82 81 84
274 2 2 4 4 82 113 192
275 2 2 4 4 83 84 101
276 2 2 4 4 83 111 113
277 2 2 4 4 84 85 100
278 2 2 4 4 84 83 82
279 2 2 4 4 85 92 93
280 2 2 4 4 85 84 81
281 2 2 4 4 86 87 92
282 2 2 4 4 86 81 79
283 2 2 4 4 87 88 91
284 2 2 4 4 87 86 78
285 2 2 4 4 88 89 90
286 2 2 4 4 88 87 59
287 2 2 4 4 89 19 17
288 2 2 4 4 89 88 58
289 2 2 4 4 90 17 13
290 2 2 4 4 90 91 88
291 2 2 4 4 91 90 95
292 2 2 4 4 91 92 87
293 2 2 4 4 92 91 94
294 2 2 4 4 92 85 86
295 2 2 4 4 93 94 97
296 2 2 4 4 93 100 85
297 2 2 4 4 94 95 96
298 2 2 4 4 94 93 92
299 2 2 4 4 95 13 11
300 2 2 4 4 95 94 91
301 2 2 4 4 96 97 94
302 2 2 4 4 97 98 93
303 2 2 4 4 98 99 100
304 2 2 4 4 99 103 101
305 2 2 4 4 100 93 98
306 2 2 4 4 100 101 84
307 2 2 4 4 101 100 99
308 2 2 4 4 101 102 83
309 2 2 4 4 102 101 103
310 2 2 4 4 102 110 111
311 2 2 4 4 103 104 102
312 2 2 4 4 104 105 110
313 2 2 4 4 105 106 109
314 2 2 4 4 106 107 108
315 2 2 4 4 107 126 124
316 2 2 4 4 108 109 106
317 2 2 4 4 108 124 117
318 2 2 4 4 109 110 105
319 2 2 4 4 109 108 116
320 2 2 4 4 110 102 104
321 2 2 4 4 110 109 112
322 2 2 4 4 111 83 102
323 2 2 4 4 111 112 114
324 2 2 4 4 112 111 110
325 2 2 4 4 112 116 115
326 2 2 4 4 113 82 83
327 2 2 4 4 113 114 191
328 2 2 4 4 114 113 111
329 2 2 4 4 114 115 190
330 2 2 4 4 115 114 112
331 2 2 4 4 115 119 186
332 2 2 4 4 116 112 109
333 2 2 4 4 116 117 119
334 2 2 4 4 117 116 108
335 2 2 4 4 117 118 120
336 2 2 4 4 118 117 124
337 2 2 4 4 118 122 121
338 2 2 4 4 119 115 116
339 2 2 4 4 119 120 185
340 2 2 4 4 120 119 117
341 2 2 4 4 120 121 184
342 2 2 4 4 121 120 118
343 2 2 4 4 121 151 153
344 2 2 4 4 122 118 125
345 2 2 4 4 122 150 151
346 2 2 4 4 123 125 127
347 2 2 4 4 123 131 150
348 2 2 4 4 124 108 107
349 2 2 4 4 124 125 118
350 2 2 4 4 125 124 126
351 2 2 4 4 125 123 122
352 2 2 4 4 126 127 125
353 2 2 4 4 127 128 123
354 2 2 4 4 128 129 131
355 2 2 4 4 129 130 132
356 2 2 4 4 130 134 133
357 2 2 4 4 131 123 128
358 2 2 4 4 131 132 149
359 2 2 4 4 132 131 129
360 2 2 4 4 132 133 148
361 2 2 4 4 133 132 130
362 2 2 4 4 133 140 141
363 2 2 4 4 134 135 140
364 2 2 4 4 135 136 139
365 2 2 4 4 136 137 138
366 2 2 4 4 137 954 952
367 2 2 4 4 138 139 136
368 2 2 4 4 138 952 946
369 2 2 4 4 139 140 135
370 2 2 4 4 139 138 143
371 2 2 4 4 140 133 134
372 2 2 4 4 140 139 142
373 2 2 4 4 141 148 133
374 2 2 4 4 141 142 145
375 2 2 4 4 142 141 140
376 2 2 4 4 142 143 144
377 2 2 4 4 143 142 139
378 2 2 4 4 143 946 944
379 2 2 4 4 144 145 142
380 2 2 4 4 144 944 930
381 2 2 4 4 145 146 141
382 2 2 4 4 145 144 161
383 2 2 4 4 146 147 148
384 2 2 4 4 146 145 160
385 2 2 4 4 147 152 149
386 2 2 4 4 147 146 159
387 2 2 4 4 148 149 132
388 2 2 4 4 148 141 146
389 2 2 4 4 149 150 131
390 2 2 4 4 149 148 147
391 2 2 4 4 150 122 123
392 2 2 4 4 150 149 152
393 2 2 4 4 151 121 122
394 2 2 4 4 151 152 154
395 2 2 4 4 152 151 150
396 2 2 4 4 152 147 158
397 2 2 4 4 153 184 121
398 2 2 4 4 153 154 156
399 2 2 4 4 154 153 151
400 2 2 4 4 154 158 157
401 2 2 4 4 155 183 184
402 2 2 4 4 155 156 173
403 2 2 4 4 156 155 153
404 2 2 4 4 156 157 172
405 2 2 4 4 157 156 154
406 2 2 4 4 157 164 165
407 2 2 4 4 158 154 152
408 2 2 4 4 158 159 164
409 2 2 4 4 159 158 147
410 2 2 4 4 159 160 163
411 2 2 4 4 160 159 146
412 2 2 4 4 160 161 162
413 2 2 4 4 161 160 145
414 2 2 4 4 161 930 928
415 2 2 4 4 162 163 160
416 2 2 4 4 162 928 922
417 2 2 4 4 163 164 159
418 2 2 4 4 163 162 167
419 2 2 4 4 164 157 158
420 2 2 4 4 164 163 166
421 2 2 4 4 165 172 157
422 2 2 4 4 165 166 169
423 2 2 4 4 166 165 164
424 2 2 4 4 166 167 168
425 2 2 4 4 167 166 163
426 2 2 4 4 167 922 920
427 2 2 4 4 168 169 166
428 2 2 4 4 168 920 907
429 2 2 4 4 169 170 165
430 2 2 4 4 169 168 233
431 2 2 4 4 170 171 172
432 2 2 4 4 170 169 232
433 2 2 4 4 171 176 173
434 2 2 4 4 171 170 231
435 2 2 4 4 172 173 156
436 2 2 4 4 172 165 170
437 2 2 4 4 173 174 155
438 2 2 4 4 173 172 171
439 2 2 4 4 174 182 183
440 2 2 4 4 174 173 176
441 2 2 4 4 175 177 182
442 2 2 4 4 175 176 225
443 2 2 4 4 176 175 174
444 2 2 4 4 176 171 230
445 2 2 4 4 177 179 181
446 2 2 4 4 177 175 226
447 2 2 4 4 178 198 197
448 2 2 4 4 178 179 222
449 2 2 4 4 179 178 180
450 2 2 4 4 179 177 224
451 2 2 4 4 180 197 189
452 2 2 4 4 180 181 179
453 2 2 4 4 181 180 187
454 2 2 4 4 181 182 177
455 2 2 4 4 182 181 188
456 2 2 4 4 182 174 175
457 2 2 4 4 183 188 185
458 2 2 4 4 183 155 174
459 2 2 4 4 184 185 120
460 2 2 4 4 184 153 155
461 2 2 4 4 185 186 119
462 2 2 4 4 185 184 183
463 2 2 4 4 186 190 115
464 2 2 4 4 186 185 188
465 2 2 4 4 187 189 190
466 2 2 4 4 187 188 181
467 2 2 4 4 188 187 186
468 2 2 4 4 188 183 182
469 2 2 4 4 189 194 191
470 2 2 4 4 189 187 180
471 2 2 4 4 190 191 114
472 2 2 4 4 190 186 187
473 2 2 4 4 191 192 113
474 2 2 4 4 191 190 189
475 2 2 4 4 192 80 82
476 2 2 4 4 192 191 194
477 2 2 4 4 193 75 80
478 2 2 4 4 193 194 196
479 2 2 4 4 194 193 192
480 2 2 4 4 194 189 197
481 2 2 4 4 195 74 75
482 2 2 4 4 195 196 199
483 2 2 4 4 196 195 193
484 2 2 4 4 196 197 198
485 2 2 4 4 197 196 194
486 2 2 4 4 197 180 178
487 2 2 4 4 198 199 196
488 2 2 4 4 198 178 223
489 2 2 4 4 199 200 195
490 2 2 4 4 199 198 203
491 2 2 4 4 200 72 74
492 2 2 4 4 200 199 202
493 2 2 4 4 201 311 72
494 2 2 4 4 201 202 205
495 2 2 4 4 202 201 200
496 2 2 4 4 202 203 204
497 2 2 4 4 203 202 199
498 2 2 4 4 203 223 221
499 2 2 4 4 204 205 202
500 2 2 4 4 204 221 214
501 2 2 4 4 205 206 201
502 2 2 4 4 205 204 212
503 2 2 4 4 206 309 311
504 2 2 4 4 206 205 207
505 2 2 4 4 207 208 206
506 2 2 4 4 207 212 211
507 2 2 4 4 208 308 309
508 2 2 4 4 208 207 210
509 2 2 4 4 209 303 308
510 2 2 4 4 209 210 278
511 2 2 4 4 210 209 208
512 2 2 4 4 210 211 277
513 2 2 4 4 211 210 207
514 2 2 4 4 211 215 273
515 2 2 4 4 212 207 205
516 2 2 4 4 212 214 215
517 2 2 4 4 213 214 221
518 2 2 4 4 213 218 217
519 2 2 4 4 214 212 204
520 2 2 4 4 214 213 216
521 2 2 4 4 215 211 212
522 2 2 4 4 215 216 272
523 2 2 4 4 216 215 214
524 2 2 4 4 216 217 271
525 2 2 4 4 217 216 213
526 2 2 4 4 217 248 250
527 2 2 4 4 218 213 220
528 2 2 4 4 218 246 248
529 2 2 4 4 219 220 222
530 2 2 4 4 219 227 246
531 2 2 4 4 220 221 223
532 2 2 4 4 220 219 218
533 2 2 4 4 221 204 203
534 2 2 4 4 221 220 213
535 2 2 4 4 222 223 178
536 2 2 4 4 222 224 219
537 2 2 4 4 223 203 198
538 2 2 4 4 223 222 220
539 2 2 4 4 224 222 179
540 2 2 4 4 224 226 227
541 2 2 4 4 225 226 175
542 2 2 4 4 225 230 229
543 2 2 4 4 226 224 177
544 2 2 4 4 226 225 228
545 2 2 4 4 227 219 224
546 2 2 4 4 227 228 245
547 2 2 4 4 228 227 226
548 2 2 4 4 228 229 244
549 2 2 4 4 229 228 225
550 2 2 4 4 229 236 237
551 2 2 4 4 230 225 176
552 2 2 4 4 230 231 236
553 2 2 4 4 231 230 171
554 2 2 4 4 231 232 235
555 2 2 4 4 232 231 170
556 2 2 4 4 232 233 234
557 2 2 4 4 233 232 169
558 2 2 4 4 233 907 905
559 2 2 4 4 234 235 232
560 2 2 4 4 234 905 899
561 2 2 4 4 235 236 231
562 2 2 4 4 235 234 239
563 2 2 4 4 236 229 230
564 2 2 4 4 236 235 238
565 2 2 4 4 237 244 229
566 2 2 4 4 237 238 241
567 2 2 4 4 238 237 236
568 2 2 4 4 238 239 240
569 2 2 4 4 239 238 235
570 2 2 4 4 239 899 897
571 2 2 4 4 240 241 238
572 2 2 4 4 240 897 883
573 2 2 4 4 241 242 237
574 2 2 4 4 241 240 257
575 2 2 4 4 242 243 244
576 2 2 4 4 242 241 256
577 2 2 4 4 243 247 245
578 2 2 4 4 243 242 255
579 2 2 4 4 244 245 228
580 2 2 4 4 244 237 242
581 2 2 4 4 245 246 227
582 2 2 4 4 245 244 243
583 2 2 4 4 246 218 219
584 2 2 4 4 246 245 247
585 2 2 4 4 247 248 246
586 2 2 4 4 247 243 254
587 2 2 4 4 248 217 218
588 2 2 4 4 248 247 249
589 2 2 4 4 249 250 248
590 2 2 4 4 249 254 253
591 2 2 4 4 250 271 217
592 2 2 4 4 250 249 252
593 2 2 4 4 251 270 271
594 2 2 4 4 251 252 265
595 2 2 4 4 252 251 250
596 2 2 4 4 252 253 264
597 2 2 4 4 253 252 249
598 2 2 4 4 253 260 261
599 2 2 4 4 254 249 247
600 2 2 4 4 254 255 260
601 2 2 4 4 255 254 243
602 2 2 4 4 255 256 259
603 2 2 4 4 256 255 242
604 2 2 4 4 256 257 258
605 2 2 4 4 257 256 241
606 2 2 4 4 257 883 881
607 2 2 4 4 258 259 256
608 2 2 4 4 258 881 875
609 2 2 4 4 259 260 255
610 2 2 4 4 259 258 263
611 2 2 4 4 260 253 254
612 2 2 4 4 260 259 262
613 2 2 4 4 261 264 253
614 2 2 4 4 261 262 774
615 2 2 4 4 262 261 260
616 2 2 4 4 262 263 775
617 2 2 4 4 263 262 259
618 2 2 4 4 263 875 776
619 2 2 4 4 264 265 252
620 2 2 4 4 264 261 773
621 2 2 4 4 265 266 251
622 2 2 4 4 265 264 754
623 2 2 4 4 266 269 270
624 2 2 4 4 266 265 753
625 2 2 4 4 267 268 275
626 2 2 4 4 267 269 751
627 2 2 4 4 268 284 276
628 2 2 4 4 268 267 747
629 2 2 4 4 269 267 274
630 2 2 4 4 269 266 752
631 2 2 4 4 270 274 272
632 2 2 4 4 270 251 266
633 2 2 4 4 271 272 216
634 2 2 4 4 271 250 251
635 2 2 4 4 272 273 215
636 2 2 4 4 272 271 270
637 2 2 4 4 273 277 211
638 2 2 4 4 273 272 274
639 2 2 4 4 274 275 273
640 2 2 4 4 274 270 269
641 2 2 4 4 275 276 277
642 2 2 4 4 275 274 267
643 2 2 4 4 276 280 278
644 2 2 4 4 276 275 268
645 2 2 4 4 277 278 210
646 2 2 4 4 277 273 275
647 2 2 4 4 278 279 209
648 2 2 4 4 278 277 276
649 2 2 4 4 279 301 303
650 2 2 4 4 279 278 280
651 2 2 4 4 280 281 279
652 2 2 4 4 280 276 284
653 2 2 4 4 281 300 301
654 2 2 4 4 281 280 283
655 2 2 4 4 282 285 300
656 2 2 4 4 282 283 744
657 2 2 4 4 283 282 281
658 2 2 4 4 283 284 745
659 2 2 4 4 284 283 280
660 2 2 4 4 284 268 746
661 2 2 4 4 285 286 299
662 2 2 4 4 285 282 743
663 2 2 4 4 286 287 298
664 2 2 4 4 286 285 412
665 2 2 4 4 287 290 291
666 2 2 4 4 287 286 411
667 2 2 4 4 288 370 366
668 2 2 4 4 288 289 408
669 2 2 4 4 289 288 293
670 2 2 4 4 289 290 409
671 2 2 4 4 290 289 292
672 2 2 4 4 290 287 410
673 2 2 4 4 291 292 295
674 2 2 4 4 291 298 287
675 2 2 4 4 292 293 294
676 2 2 4 4 292 291 290
677 2 2 4 4 293 366 364
678 2 2 4 4 293 292 289
679 2 2 4 4 294 364 327
680 2 2 4 4 294 295 292
681 2 2 4 4 295 294 326
682 2 2 4 4 295 296 291
683 2 2 4 4 296 295 325
684 2 2 4 4 296 297 298
685 2 2 4 4 297 296 324
686 2 2 4 4 297 302 299
687 2 2 4 4 298 291 296
688 2 2 4 4 298 299 286
689 2 2 4 4 299 298 297
690 2 2 4 4 299 300 285
691 2 2 4 4 300 299 302
692 2 2 4 4 300 281 282
693 2 2 4 4 301 302 304
694 2 2 4 4 301 279 281
695 2 2 4 4 302 297 305
696 2 2 4 4 302 301 300
697 2 2 4 4 303 304 307
698 2 2 4 4 303 209 279
699 2 2 4 4 304 305 306
700 2 2 4 4 304 303 301
701 2 2 4 4 305 324 322
702 2 2 4 4 305 304 302
703 2 2 4 4 306 322 315
704 2 2 4 4 306 307 304
705 2 2 4 4 307 306 314
706 2 2 4 4 307 308 303
707 2 2 4 4 308 307 310
708 2 2 4 4 308 208 209
709 2 2 4 4 309 310 312
710 2 2 4 4 309 206 208
711 2 2 4 4 310 314 313
712 2 2 4 4 310 309 308
713 2 2 4 4 311 312 71
714 2 2 4 4 311 201 206
715 2 2 4 4 312 313 70
716 2 2 4 4 312 311 309
717 2 2 4 4 313 317 66
718 2 2 4 4 313 312 310
719 2 2 4 4 314 315 317
720 2 2 4 4 314 310 307
721 2 2 4 4 315 316 318
722 2 2 4 4 315 314 306
723 2 2 4 4 316 320 319
724 2 2 4 4 316 315 322
725 2 2 4 4 317 318 65
726 2 2 4 4 317 313 314
727 2 2 4 4 318 319 64
728 2 2 4 4 318 317 315
729 2 2 4 4 319 335 48
730 2 2 4 4 319 318 316
731 2 2 4 4 320 333 335
732 2 2 4 4 320 316 323
733 2 2 4 4 321 332 333
734 2 2 4 4 321 323 325
735 2 2 4 4 322 323 316
736 2 2 4 4 322 306 305
737 2 2 4 4 323 321 320
738 2 2 4 4 323 322 324
739 2 2 4 4 324 325 323
740 2 2 4 4 324 305 297
741 2 2 4 4 325 326 321
742 2 2 4 4 325 324 296
743 2 2 4 4 326 327 332
744 2 2 4 4 326 325 295
745 2 2 4 4 327 328 331
746 2 2 4 4 327 326 294
747 2 2 4 4 328 329 330
748 2 2 4 4 328 327 364
749 2 2 4 4 329 351 349
750 2 2 4 4 329 328 365
751 2 2 4 4 330 349 339
752 2 2 4 4 330 331 328
753 2 2 4 4 331 330 338
754 2 2 4 4 331 332 327
755 2 2 4 4 332 331 334
756 2 2 4 4 332 321 326
757 2 2 4 4 333 334 336
758 2 2 4 4 333 320 321
759 2 2 4 4 334 338 337
760 2 2 4 4 334 333 332
761 2 2 4 4 335 336 47
762 2 2 4 4 335 319 320
763 2 2 4 4 336 337 46
764 2 2 4 4 336 335 333
765 2 2 4 4 337 341 42
766 2 2 4 4 337 336 334
767 2 2 4 4 338 339 341
768 2 2 4 4 338 334 331
769 2 2 4 4 339 340 342
770 2 2 4 4 339 338 330
771 2 2 4 4 340 345 343
772 2 2 4 4 340 339 349
773 2 2 4 4 341 342 41
774 2 2 4 4 341 337 338
775 2 2 4 4 342 343 40
776 2 2 4 4 342 341 339
777 2 2 4 4 343 344 39
778 2 2 4 4 343 342 340
779 2 2 4 4 344 343 345
780 2 2 4 4 345 346 344
781 2 2 4 4 345 340 350
782 2 2 4 4 346 345 348
783 2 2 4 4 347 348 353
784 2 2 4 4 348 347 346
785 2 2 4 4 348 350 352
786 2 2 4 4 349 350 340
787 2 2 4 4 349 330 329
788 2 2 4 4 350 348 345
789 2 2 4 4 350 349 351
790 2 2 4 4 351 352 350
791 2 2 4 4 351 329 363
792 2 2 4 4 352 353 348
793 2 2 4 4 352 351 361
794 2 2 4 4 353 354 347
795 2 2 4 4 353 352 362
796 2 2 4 4 354 353 355
797 2 2 4 4 355 356 354
798 2 2 4 4 355 362 359
799 2 2 4 4 356 355 358
800 2 2 4 4 357 358 374
801 2 2 4 4 358 357 356
802 2 2 4 4 358 359 373
803 2 2 4 4 359 358 355
804 2 2 4 4 359 360 372
805 2 2 4 4 360 359 362
806 2 2 4 4 360 368 369
807 2 2 4 4 361 362 352
808 2 2 4 4 361 363 368
809 2 2 4 4 362 355 353
810 2 2 4 4 362 361 360
811 2 2 4 4 363 361 351
812 2 2 4 4 363 365 367
813 2 2 4 4 364 365 328
814 2 2 4 4 364 294 293
815 2 2 4 4 365 363 329
816 2 2 4 4 365 364 366
817 2 2 4 4 366 367 365
818 2 2 4 4 366 293 288
819 2 2 4 4 367 368 363
820 2 2 4 4 367 366 370
821 2 2 4 4 368 360 361
822 2 2 4 4 368 367 371
823 2 2 4 4 369 372 360
824 2 2 4 4 369 371 402
825 2 2 4 4 370 371 367
826 2 2 4 4 370 288 404
827 2 2 4 4 371 369 368
828 2 2 4 4 371 370 403
829 2 2 4 4 372 373 359
830 2 2 4 4 372 369 401
831 2 2 4 4 373 374 358
832 2 2 4 4 373 372 379
833 2 2 4 4 374 375 357
834 2 2 4 4 374 373 378
835 2 2 4 4 375 374 377
836 2 2 4 4 376 377 382
837 2 2 4 4 377 376 375
838 2 2 4 4 377 378 380
839 2 2 4 4 378 377 374
840 2 2 4 4 378 379 381
841 2 2 4 4 379 378 373
842 2 2 4 4 379 401 400
843 2 2 4 4 380 382 377
844 2 2 4 4 380 381 391
845 2 2 4 4 381 380 378
846 2 2 4 4 381 400 392
847 2 2 4 4 382 383 376
848 2 2 4 4 382 380 390
849 2 2 4 4 383 382 385
850 2 2 4 4 384 385 387
851 2 2 4 4 385 384 383
852 2 2 4 4 385 390 388
853 2 2 4 4 386 387 468
854 2 2 4 4 387 386 384
855 2 2 4 4 387 388 467
856 2 2 4 4 388 387 385
857 2 2 4 4 388 389 466
858 2 2 4 4 389 388 390
859 2 2 4 4 389 393 462
860 2 2 4 4 390 385 382
861 2 2 4 4 390 391 389
862 2 2 4 4 391 390 380
863 2 2 4 4 391 392 393
864 2 2 4 4 392 391 381
865 2 2 4 4 392 396 394
866 2 2 4 4 393 389 391
867 2 2 4 4 393 394 461
868 2 2 4 4 394 393 392
869 2 2 4 4 394 395 460
870 2 2 4 4 395 394 396
871 2 2 4 4 395 427 428
872 2 2 4 4 396 392 400
873 2 2 4 4 396 397 395
874 2 2 4 4 397 396 399
875 2 2 4 4 397 426 427
876 2 2 4 4 398 399 402
877 2 2 4 4 398 405 426
878 2 2 4 4 399 400 401
879 2 2 4 4 399 398 397
880 2 2 4 4 400 381 379
881 2 2 4 4 400 399 396
882 2 2 4 4 401 379 372
883 2 2 4 4 401 402 399
884 2 2 4 4 402 401 369
885 2 2 4 4 402 403 398
886 2 2 4 4 403 402 371
887 2 2 4 4 403 404 405
888 2 2 4 4 404 403 370
889 2 2 4 4 404 408 406
890 2 2 4 4 405 398 403
891 2 2 4 4 405 406 425
892 2 2 4 4 406 405 404
893 2 2 4 4 406 407 424
894 2 2 4 4 407 406 408
895 2 2 4 4 407 415 416
896 2 2 4 4 408 404 288
897 2 2 4 4 408 409 407
898 2 2 4 4 409 408 289
899 2 2 4 4 409 410 415
900 2 2 4 4 410 409 290
901 2 2 4 4 410 411 413
902 2 2 4 4 411 410 287
903 2 2 4 4 411 412 414
904 2 2 4 4 412 411 286
905 2 2 4 4 412 743 741
906 2 2 4 4 413 415 410
907 2 2 4 4 413 414 418
908 2 2 4 4 414 413 411
909 2 2 4 4 414 741 737
910 2 2 4 4 415 407 409
911 2 2 4 4 415 413 417
912 2 2 4 4 416 424 407
913 2 2 4 4 416 417 419
914 2 2 4 4 417 416 415
915 2 2 4 4 417 418 420
916 2 2 4 4 418 417 413
917 2 2 4 4 418 737 735
918 2 2 4 4 419 421 416
919 2 2 4 4 419 420 436
920 2 2 4 4 420 419 417
921 2 2 4 4 420 735 719
922 2 2 4 4 421 423 424
923 2 2 4 4 421 419 435
924 2 2 4 4 422 427 426
925 2 2 4 4 422 423 433
926 2 2 4 4 423 422 425
927 2 2 4 4 423 421 434
928 2 2 4 4 424 425 406
929 2 2 4 4 424 416 421
930 2 2 4 4 425 426 405
931 2 2 4 4 425 424 423
932 2 2 4 4 426 397 398
933 2 2 4 4 426 425 422
934 2 2 4 4 427 395 397
935 2 2 4 4 427 422 432
936 2 2 4 4 428 460 395
937 2 2 4 4 428 432 430
938 2 2 4 4 429 459 460
939 2 2 4 4 429 430 449
940 2 2 4 4 430 429 428
941 2 2 4 4 430 431 448
942 2 2 4 4 431 430 432
943 2 2 4 4 431 439 440
944 2 2 4 4 432 428 427
945 2 2 4 4 432 433 431
946 2 2 4 4 433 432 422
947 2 2 4 4 433 434 439
948 2 2 4 4 434 433 423
949 2 2 4 4 434 435 437
950 2 2 4 4 435 434 421
951 2 2 4 4 435 436 438
952 2 2 4 4 436 435 419
953 2 2 4 4 436 719 717
954 2 2 4 4 437 439 434
955 2 2 4 4 437 438 442
956 2 2 4 4 438 437 435
957 2 2 4 4 438 717 713
958 2 2 4 4 439 431 433
959 2 2 4 4 439 437 441
960 2 2 4 4 440 448 431
961 2 2 4 4 440 441 443
962 2 2 4 4 441 440 439
963 2 2 4 4 441 442 444
964 2 2 4 4 442 441 437
965 2 2 4 4 442 713 711
966 2 2 4 4 443 445 440
967 2 2 4 4 443 444 582
968 2 2 4 4 444 443 441
969 2 2 4 4 444 711 585
970 2 2 4 4 445 447 448
971 2 2 4 4 445 443 583
972 2 2 4 4 446 451 450
973 2 2 4 4 446 447 577
974 2 2 4 4 447 446 449
975 2 2 4 4 447 445 578
976 2 2 4 4 448 449 430
977 2 2 4 4 448 440 445
978 2 2 4 4 449 450 429
979 2 2 4 4 449 448 447
980 2 2 4 4 450 457 459
981 2 2 4 4 450 449 446
982 2 2 4 4 451 452 457
983 2 2 4 4 451 446 576
984 2 2 4 4 452 453 456
985 2 2 4 4 452 451 575
986 2 2 4 4 453 454 455
987 2 2 4 4 453 452 489
988 2 2 4 4 454 477 475
989 2 2 4 4 454 453 490
990 2 2 4 4 455 475 465
991 2 2 4 4 455 456 453
992 2 2 4 4 456 455 463
993 2 2 4 4 456 457 452
994 2 2 4 4 457 456 458
995 2 2 4 4 457 450 451
996 2 2 4 4 458 463 462
997 2 2 4 4 458 459 457
998 2 2 4 4 459 458 461
999 2 2 4 4 459 429 450
1000 2 2 4 4 460 461 394
1001 2 2 4 4 460 428 429
1002 2 2 4 4 461 462 393
1003 2 2 4 4 461 460 459
1004 2 2 4 4 462 466 389
1005 2 2 4 4 462 461 458
1006 2 2 4 4 463 465 466
1007 2 2 4 4 463 458 456
1008 2 2 4 4 464 471 468
1009 2 2 4 4 464 465 475
1010 2 2 4 4 465 464 467
1011 2 2 4 4 465 463 455
1012 2 2 4 4 466 467 388
1013 2 2 4 4 466 462 463
1014 2 2 4 4 467 468 387
1015 2 2 4 4 467 466 465
1016 2 2 4 4 468 469 386
1017 2 2 4 4 468 467 464
1018 2 2 4 4 469 468 471
1019 2 2 4 4 470 471 473
1020 2 2 4 4 471 470 469
1021 2 2 4 4 471 464 474
1022 2 2 4 4 472 473 478
1023 2 2 4 4 473 472 470
1024 2 2 4 4 473 474 476
1025 2 2 4 4 474 473 471
1026 2 2 4 4 474 475 477
1027 2 2 4 4 475 474 464
1028 2 2 4 4 475 455 454
1029 2 2 4 4 476 478 473
1030 2 2 4 4 476 477 486
1031 2 2 4 4 477 476 474
1032 2 2 4 4 477 454 488
1033 2 2 4 4 478 479 472
1034 2 2 4 4 478 476 487
1035 2 2 4 4 479 478 480
1036 2 2 4 4 480 481 479
1037 2 2 4 4 480 487 484
1038 2 2 4 4 481 480 483
1039 2 2 4 4 482 483 504
1040 2 2 4 4 483 482 481
1041 2 2 4 4 483 484 503
1042 2 2 4 4 484 483 480
1043 2 2 4 4 484 485 502
1044 2 2 4 4 485 484 487
1045 2 2 4 4 485 493 494
1046 2 2 4 4 486 487 476
1047 2 2 4 4 486 488 493
1048 2 2 4 4 487 480 478
1049 2 2 4 4 487 486 485
1050 2 2 4 4 488 486 477
1051 2 2 4 4 488 490 492
1052 2 2 4 4 489 490 453
1053 2 2 4 4 489 575 574
1054 2 2 4 4 490 488 454
1055 2 2 4 4 490 489 491
1056 2 2 4 4 491 492 490
1057 2 2 4 4 491 574 569
1058 2 2 4 4 492 493 488
1059 2 2 4 4 492 491 495
1060 2 2 4 4 493 485 486
1061 2 2 4 4 493 492 496
1062 2 2 4 4 494 502 485
1063 2 2 4 4 494 496 498
1064 2 2 4 4 495 496 492
1065 2 2 4 4 495 569 568
1066 2 2 4 4 496 494 493
1067 2 2 4 4 496 495 497
1068 2 2 4 4 497 498 496
1069 2 2 4 4 497 568 536
1070 2 2 4 4 498 499 494
1071 2 2 4 4 498 497 535
1072 2 2 4 4 499 500 502
1073 2 2 4 4 499 498 534
1074 2 2 4 4 500 501 503
1075 2 2 4 4 500 499 533
1076 2 2 4 4 501 506 504
1077 2 2 4 4 501 500 510
1078 2 2 4 4 502 503 484
1079 2 2 4 4 502 494 499
1080 2 2 4 4 503 504 483
1081 2 2 4 4 503 502 500
1082 2 2 4 4 504 505 482
1083 2 2 4 4 504 503 501
1084 2 2 4 4 505 504 506
1085 2 2 4 4 506 507 505
1086 2 2 4 4 506 501 511
1087 2 2 4 4 507 506 509
1088 2 2 4 4 508 509 514
1089 2 2 4 4 509 508 507
1090 2 2 4 4 509 511 513
1091 2 2 4 4 510 511 501
1092 2 2 4 4 510 533 532
1093 2 2 4 4 511 509 506
1094 2 2 4 4 511 510 512
1095 2 2 4 4 512 513 511
1096 2 2 4 4 512 532 524
1097 2 2 4 4 513 514 509
1098 2 2 4 4 513 512 522
1099 2 2 4 4 514 515 508
1100 2 2 4 4 514 513 523
1101 2 2 4 4 515 514 516
1102 2 2 4 4 516 517 515
1103 2 2 4 4 516 523 520
1104 2 2 4 4 517 516 519
1105 2 2 4 4 519 518 517
1106 2 2 4 4 520 519 516
1107 2 2 4 4 521 520 523
1108 2 2 4 4 522 523 513
1109 2 2 4 4 522 524 525
1110 2 2 4 4 523 516 514
1111 2 2 4 4 523 522 521
1112 2 2 4 4 524 522 512
1113 2 2 4 4 524 529 526
1114 2 2 4 4 525 521 522
1115 2 2 4 4 526 525 524
1116 2 2 4 4 527 526 529
1117 2 2 4 4 528 529 531
1118 2 2 4 4 528 542 543
1119 2 2 4 4 529 524 532
1120 2 2 4 4 529 528 527
1121 2 2 4 4 530 531 534
1122 2 2 4 4 530 541 542
1123 2 2 4 4 531 532 533
1124 2 2 4 4 531 530 528
1125 2 2 4 4 532 512 510
1126 2 2 4 4 532 531 529
1127 2 2 4 4 533 510 500
1128 2 2 4 4 533 534 531
1129 2 2 4 4 534 533 499
1130 2 2 4 4 534 535 530
1131 2 2 4 4 535 534 498
1132 2 2 4 4 535 536 541
1133 2 2 4 4 536 535 497
1134 2 2 4 4 536 538 540
1135 2 2 4 4 537 538 567
1136 2 2 4 4 537 557 556
1137 2 2 4 4 538 536 568
1138 2 2 4 4 538 537 539
1139 2 2 4 4 539 540 538
1140 2 2 4 4 539 556 548
1141 2 2 4 4 540 541 536
1142 2 2 4 4 540 539 546
1143 2 2 4 4 541 530 535
1144 2 2 4 4 541 540 547
1145 2 2 4 4 542 528 530
1146 2 2 4 4 542 547 544
1147 2 2 4 4 543 527 528
1148 2 2 4 4 544 543 542
1149 2 2 4 4 545 544 547
1150 2 2 4 4 546 547 540
1151 2 2 4 4 546 548 549
1152 2 2 4 4 547 542 541
1153 2 2 4 4 547 546 545
1154 2 2 4 4 548 546 539
1155 2 2 4 4 548 553 550
1156 2 2 4 4 549 545 546
1157 2 2 4 4 550 549 548
1158 2 2 4 4 551 550 553
1159 2 2 4 4 552 553 555
1160 2 2 4 4 552 615 616
1161 2 2 4 4 553 548 556
1162 2 2 4 4 553 552 551
1163 2 2 4 4 554 555 558
1164 2 2 4 4 554 613 615
1165 2 2 4 4 555 556 557
1166 2 2 4 4 555 554 552
1167 2 2 4 4 556 539 537
1168 2 2 4 4 556 555 553
1169 2 2 4 4 557 537 566
1170 2 2 4 4 557 558 555
1171 2 2 4 4 558 557 565
1172 2 2 4 4 558 559 554
1173 2 2 4 4 559 558 561
1174 2 2 4 4 559 608 613
1175 2 2 4 4 560 561 563
1176 2 2 4 4 560 607 608
1177 2 2 4 4 561 565 564
1178 2 2 4 4 561 560 559
1179 2 2 4 4 562 563 580
1180 2 2 4 4 562 605 607
1181 2 2 4 4 563 564 579
1182 2 2 4 4 563 562 560
1183 2 2 4 4 564 571 572
1184 2 2 4 4 564 563 561
1185 2 2 4 4 565 566 571
1186 2 2 4 4 565 561 558
1187 2 2 4 4 566 567 570
1188 2 2 4 4 566 565 557
1189 2 2 4 4 567 568 569
1190 2 2 4 4 567 566 537
1191 2 2 4 4 568 497 495
1192 2 2 4 4 568 567 538
1193 2 2 4 4 569 495 491
1194 2 2 4 4 569 570 567
1195 2 2 4 4 570 569 574
1196 2 2 4 4 570 571 566
1197 2 2 4 4 571 570 573
1198 2 2 4 4 571 564 565
1199 2 2 4 4 572 573 576
1200 2 2 4 4 572 579 564
1201 2 2 4 4 573 574 575
1202 2 2 4 4 573 572 571
1203 2 2 4 4 574 491 489
1204 2 2 4 4 574 573 570
1205 2 2 4 4 575 489 452
1206 2 2 4 4 575 576 573
1207 2 2 4 4 576 575 451
1208 2 2 4 4 576 577 572
1209 2 2 4 4 577 576 446
1210 2 2 4 4 577 578 579
1211 2 2 4 4 578 577 447
1212 2 2 4 4 578 583 580
1213 2 2 4 4 579 572 577
1214 2 2 4 4 579 580 563
1215 2 2 4 4 580 579 578
1216 2 2 4 4 580 581 562
1217 2 2 4 4 581 580 583
1218 2 2 4 4 581 586 605
1219 2 2 4 4 582 583 443
1220 2 2 4 4 582 585 586
1221 2 2 4 4 583 578 445
1222 2 2 4 4 583 582 581
1223 2 2 4 4 584 585 711
1224 2 2 4 4 584 589 588
1225 2 2 4 4 585 582 444
1226 2 2 4 4 585 584 587
1227 2 2 4 4 586 581 582
1228 2 2 4 4 586 587 604
1229 2 2 4 4 587 586 585
1230 2 2 4 4 587 588 603
1231 2 2 4 4 588 587 584
1232 2 2 4 4 588 595 596
1233 2 2 4 4 589 584 712
1234 2 2 4 4 589 590 595
1235 2 2 4 4 590 589 710
1236 2 2 4 4 590 591 594
1237 2 2 4 4 591 590 708
1238 2 2 4 4 591 592 593
1239 2 2 4 4 592 591 709
1240 2 2 4 4 592 672 670
1241 2 2 4 4 593 594 591
1242 2 2 4 4 593 670 666
1243 2 2 4 4 594 595 590
1244 2 2 4 4 594 593 598
1245 2 2 4 4 595 588 589
1246 2 2 4 4 595 594 597
1247 2 2 4 4 596 603 588
1248 2 2 4 4 596 597 600
1249 2 2 4 4 597 596 595
1250 2 2 4 4 597 598 599
1251 2 2 4 4 598 597 594
1252 2 2 4 4 598 666 664
1253 2 2 4 4 599 600 597
1254 2 2 4 4 599 664 632
1255 2 2 4 4 600 601 596
1256 2 2 4 4 600 599 631
1257 2 2 4 4 601 602 603
1258 2 2 4 4 601 600 629
1259 2 2 4 4 602 606 604
1260 2 2 4 4 602 601 630
1261 2 2 4 4 603 604 587
1262 2 2 4 4 603 596 601
1263 2 2 4 4 604 605 586
1264 2 2 4 4 604 603 602
1265 2 2 4 4 605 562 581
1266 2 2 4 4 605 604 606
1267 2 2 4 4 606 607 605
1268 2 2 4 4 606 602 610
1269 2 2 4 4 607 560 562
1270 2 2 4 4 607 606 609
1271 2 2 4 4 608 559 560
1272 2 2 4 4 608 609 612
1273 2 2 4 4 609 608 607
1274 2 2 4 4 609 610 611
1275 2 2 4 4 610 609 606
1276 2 2 4 4 610 630 628
1277 2 2 4 4 611 612 609
1278 2 2 4 4 611 628 621
1279 2 2 4 4 612 613 608
1280 2 2 4 4 612 611 619
1281 2 2 4 4 613 554 559
1282 2 2 4 4 613 612 614
1283 2 2 4 4 614 615 613
1284 2 2 4 4 614 619 618
1285 2 2 4 4 615 552 554
1286 2 2 4 4 615 614 617
1287 2 2 4 4 616 551 552
1288 2 2 4 4 617 616 615
1289 2 2 4 4 618 617 614
1290 2 2 4 4 619 614 612
1291 2 2 4 4 619 621 622
1292 2 2 4 4 620 621 628
1293 2 2 4 4 620 625 624
1294 2 2 4 4 621 619 611
1295 2 2 4 4 621 620 623
1296 2 2 4 4 622 618 619
1297 2 2 4 4 623 622 621
1298 2 2 4 4 624 623 620
1299 2 2 4 4 625 620 627
1300 2 2 4 4 625 639 640
1301 2 2 4 4 626 627 629
1302 2 2 4 4 626 637 639
1303 2 2 4 4 627 628 630
1304 2 2 4 4 627 626 625
1305 2 2 4 4 628 611 610
1306 2 2 4 4 628 627 620
1307 2 2 4 4 629 630 601
1308 2 2 4 4 629 631 626
1309 2 2 4 4 630 610 602
1310 2 2 4 4 630 629 627
1311 2 2 4 4 631 629 600
1312 2 2 4 4 631 632 637
1313 2 2 4 4 632 631 599
1314 2 2 4 4 632 633 636
1315 2 2 4 4 633 632 664
1316 2 2 4 4 633 634 635
1317 2 2 4 4 634 633 663
1318 2 2 4 4 634 654 652
1319 2 2 4 4 635 636 633
1320 2 2 4 4 635 652 645
1321 2 2 4 4 636 637 632
1322 2 2 4 4 636 635 643
1323 2 2 4 4 637 626 631
1324 2 2 4 4 637 636 638
1325 2 2 4 4 638 639 637
1326 2 2 4 4 638 643 642
1327 2 2 4 4 639 625 626
1328 2 2 4 4 639 638 641
1329 2 2 4 4 640 624 625
1330 2 2 4 4 641 640 639
1331 2 2 4 4 642 641 638
1332 2 2 4 4 643 638 636
1333 2 2 4 4 643 645 646
1334 2 2 4 4 644 645 652
1335 2 2 4 4 644 649 648
1336 2 2 4 4 645 643 635
1337 2 2 4 4 645 644 647
1338 2 2 4 4 646 642 643
1339 2 2 4 4 647 646 645
1340 2 2 4 4 648 647 644
1341 2 2 4 4 649 644 651
1342 2 2 4 4 649 857 858
1343 2 2 4 4 650 651 653
1344 2 2 4 4 650 855 857
1345 2 2 4 4 651 652 654
1346 2 2 4 4 651 650 649
1347 2 2 4 4 652 635 634
1348 2 2 4 4 652 651 644
1349 2 2 4 4 653 654 661
1350 2 2 4 4 653 655 650
1351 2 2 4 4 654 634 662
1352 2 2 4 4 654 653 651
1353 2 2 4 4 655 653 660
1354 2 2 4 4 655 848 855
1355 2 2 4 4 656 660 658
1356 2 2 4 4 656 847 848
1357 2 2 4 4 657 658 677
1358 2 2 4 4 657 845 847
1359 2 2 4 4 658 659 676
1360 2 2 4 4 658 657 656
1361 2 2 4 4 659 667 668
1362 2 2 4 4 659 658 660
1363 2 2 4 4 660 661 659
1364 2 2 4 4 660 656 655
1365 2 2 4 4 661 662 667
1366 2 2 4 4 661 660 653
1367 2 2 4 4 662 663 665
1368 2 2 4 4 662 661 654
1369 2 2 4 4 663 664 666
1370 2 2 4 4 663 662 634
1371 2 2 4 4 664 599 598
1372 2 2 4 4 664 663 633
1373 2 2 4 4 665 666 670
1374 2 2 4 4 665 667 662
1375 2 2 4 4 666 598 593
1376 2 2 4 4 666 665 663
1377 2 2 4 4 667 665 669
1378 2 2 4 4 667 659 661
1379 2 2 4 4 668 669 671
1380 2 2 4 4 668 676 659
1381 2 2 4 4 669 670 672
1382 2 2 4 4 669 668 667
1383 2 2 4 4 670 593 592
1384 2 2 4 4 670 669 665
1385 2 2 4 4 671 672 703
1386 2 2 4 4 671 673 668
1387 2 2 4 4 672 592 704
1388 2 2 4 4 672 671 669
1389 2 2 4 4 673 671 702
1390 2 2 4 4 673 675 676
1391 2 2 4 4 674 675 681
1392 2 2 4 4 674 679 678
1393 2 2 4 4 675 673 701
1394 2 2 4 4 675 674 677
1395 2 2 4 4 676 668 673
1396 2 2 4 4 676 677 658
1397 2 2 4 4 677 676 675
1398 2 2 4 4 677 678 657
1399 2 2 4 4 678 677 674
1400 2 2 4 4 678 826 845
1401 2 2 4 4 679 674 682
1402 2 2 4 4 679 825 826
1403 2 2 4 4 680 682 684
1404 2 2 4 4 680 823 825
1405 2 2 4 4 681 701 700
1406 2 2 4 4 681 682 674
1407 2 2 4 4 682 681 683
1408 2 2 4 4 682 680 679
1409 2 2 4 4 683 700 692
1410 2 2 4 4 683 684 682
1411 2 2 4 4 684 683 690
1412 2 2 4 4 684 685 680
1413 2 2 4 4 685 684 691
1414 2 2 4 4 685 816 823
1415 2 2 4 4 686 691 688
1416 2 2 4 4 686 814 816
1417 2 2 4 4 687 688 767
1418 2 2 4 4 687 813 814
1419 2 2 4 4 688 689 766
1420 2 2 4 4 688 687 686
1421 2 2 4 4 689 693 762
1422 2 2 4 4 689 688 691
1423 2 2 4 4 690 692 693
1424 2 2 4 4 690 691 684
1425 2 2 4 4 691 690 689
1426 2 2 4 4 691 686 685
1427 2 2 4 4 692 697 694
1428 2 2 4 4 692 690 683
1429 2 2 4 4 693 694 761
1430 2 2 4 4 693 689 690
1431 2 2 4 4 694 695 760
1432 2 2 4 4 694 693 692
1433 2 2 4 4 695 727 728
1434 2 2 4 4 695 694 697
1435 2 2 4 4 696 726 727
1436 2 2 4 4 696 697 699
1437 2 2 4 4 697 696 695
1438 2 2 4 4 697 692 700
1439 2 2 4 4 698 705 726
1440 2 2 4 4 698 699 702
1441 2 2 4 4 699 698 696
1442 2 2 4 4 699 700 701
1443 2 2 4 4 700 699 697
1444 2 2 4 4 700 683 681
1445 2 2 4 4 701 702 699
1446 2 2 4 4 701 681 675
1447 2 2 4 4 702 703 698
1448 2 2 4 4 702 701 673
1449 2 2 4 4 703 704 705
1450 2 2 4 4 703 702 671
1451 2 2 4 4 704 709 706
1452 2 2 4 4 704 703 672
1453 2 2 4 4 705 706 725
1454 2 2 4 4 705 698 703
1455 2 2 4 4 706 707 724
1456 2 2 4 4 706 705 704
1457 2 2 4 4 707 715 716
1458 2 2 4 4 707 706 709
1459 2 2 4 4 708 710 715
1460 2 2 4 4 708 709 591
1461 2 2 4 4 709 708 707
1462 2 2 4 4 709 704 592
1463 2 2 4 4 710 712 714
1464 2 2 4 4 710 708 590
1465 2 2 4 4 711 444 442
1466 2 2 4 4 711 712 584
1467 2 2 4 4 712 711 713
1468 2 2 4 4 712 710 589
1469 2 2 4 4 713 442 438
1470 2 2 4 4 713 714 712
1471 2 2 4 4 714 713 717
1472 2 2 4 4 714 715 710
1473 2 2 4 4 715 714 718
1474 2 2 4 4 715 707 708
1475 2 2 4 4 716 718 720
1476 2 2 4 4 716 724 707
1477 2 2 4 4 717 438 436
1478 2 2 4 4 717 718 714
1479 2 2 4 4 718 717 719
1480 2 2 4 4 718 716 715
1481 2 2 4 4 719 436 420
1482 2 2 4 4 719 720 718
1483 2 2 4 4 720 719 735
1484 2 2 4 4 720 721 716
1485 2 2 4 4 721 720 736
1486 2 2 4 4 721 722 724
1487 2 2 4 4 722 721 734
1488 2 2 4 4 722 723 725
1489 2 2 4 4 723 722 732
1490 2 2 4 4 723 727 726
1491 2 2 4 4 724 716 721
1492 2 2 4 4 724 725 706
1493 2 2 4 4 725 724 722
1494 2 2 4 4 725 726 705
1495 2 2 4 4 726 725 723
1496 2 2 4 4 726 696 698
1497 2 2 4 4 727 723 733
1498 2 2 4 4 727 695 696
1499 2 2 4 4 728 733 730
1500 2 2 4 4 728 760 695
1501 2 2 4 4 729 730 749
1502 2 2 4 4 729 758 760
1503 2 2 4 4 730 731 748
1504 2 2 4 4 730 729 728
1505 2 2 4 4 731 739 740
1506 2 2 4 4 731 730 733
1507 2 2 4 4 732 734 739
1508 2 2 4 4 732 733 723
1509 2 2 4 4 733 732 731
1510 2 2 4 4 733 728 727
1511 2 2 4 4 734 736 738
1512 2 2 4 4 734 732 722
1513 2 2 4 4 735 420 418
1514 2 2 4 4 735 736 720
1515 2 2 4 4 736 735 737
1516 2 2 4 4 736 734 721
1517 2 2 4 4 737 418 414
1518 2 2 4 4 737 738 736
1519 2 2 4 4 738 737 741
1520 2 2 4 4 738 739 734
1521 2 2 4 4 739 738 742
1522 2 2 4 4 739 731 732
1523 2 2 4 4 740 742 744
1524 2 2 4 4 740 748 731
1525 2 2 4 4 741 414 412
1526 2 2 4 4 741 742 738
1527 2 2 4 4 742 741 743
1528 2 2 4 4 742 740 739
1529 2 2 4 4 743 412 285
1530 2 2 4 4 743 744 742
1531 2 2 4 4 744 743 282
1532 2 2 4 4 744 745 740
1533 2 2 4 4 745 744 283
1534 2 2 4 4 745 746 748
1535 2 2 4 4 746 745 284
1536 2 2 4 4 746 747 749
1537 2 2 4 4 747 746 268
1538 2 2 4 4 747 751 750
1539 2 2 4 4 748 740 745
1540 2 2 4 4 748 749 730
1541 2 2 4 4 749 748 746
1542 2 2 4 4 749 750 729
1543 2 2 4 4 750 749 747
1544 2 2 4 4 750 757 758
1545 2 2 4 4 751 747 267
1546 2 2 4 4 751 752 757
1547 2 2 4 4 752 751 269
1548 2 2 4 4 752 753 756
1549 2 2 4 4 753 752 266
1550 2 2 4 4 753 754 755
1551 2 2 4 4 754 753 265
1552 2 2 4 4 754 773 771
1553 2 2 4 4 755 756 753
1554 2 2 4 4 755 771 764
1555 2 2 4 4 756 757 752
1556 2 2 4 4 756 755 763
1557 2 2 4 4 757 750 751
1558 2 2 4 4 757 756 759
1559 2 2 4 4 758 729 750
1560 2 2 4 4 758 759 761
1561 2 2 4 4 759 758 757
1562 2 2 4 4 759 763 762
1563 2 2 4 4 760 728 729
1564 2 2 4 4 760 761 694
1565 2 2 4 4 761 760 758
1566 2 2 4 4 761 762 693
1567 2 2 4 4 762 761 759
1568 2 2 4 4 762 766 689
1569 2 2 4 4 763 759 756
1570 2 2 4 4 763 764 766
1571 2 2 4 4 764 763 755
1572 2 2 4 4 764 765 767
1573 2 2 4 4 765 764 771
1574 2 2 4 4 765 769 768
1575 2 2 4 4 766 762 763
1576 2 2 4 4 766 767 688
1577 2 2 4 4 767 766 764
1578 2 2 4 4 767 768 687
1579 2 2 4 4 768 767 765
1580 2 2 4 4 768 786 813
1581 2 2 4 4 769 765 772
1582 2 2 4 4 769 784 786
1583 2 2 4 4 770 772 774
1584 2 2 4 4 770 783 784
1585 2 2 4 4 771 755 754
1586 2 2 4 4 771 772 765
1587 2 2 4 4 772 771 773
1588 2 2 4 4 772 770 769
1589 2 2 4 4 773 754 264
1590 2 2 4 4 773 774 772
1591 2 2 4 4 774 773 261
1592 2 2 4 4 774 775 770
1593 2 2 4 4 775 774 262
1594 2 2 4 4 775 776 783
1595 2 2 4 4 776 775 263
1596 2 2 4 4 776 777 782
1597 2 2 4 4 777 776 875
1598 2 2 4 4 777 778 780
1599 2 2 4 4 778 777 874
1600 2 2 4 4 778 779 781
1601 2 2 4 4 779 778 876
1602 2 2 4 4 779 798 797
1603 2 2 4 4 780 782 777
1604 2 2 4 4 780 781 791
1605 2 2 4 4 781 780 778
1606 2 2 4 4 781 797 792
1607 2 2 4 4 782 783 776
1608 2 2 4 4 782 780 790
1609 2 2 4 4 783 770 775
1610 2 2 4 4 783 782 785
1611 2 2 4 4 784 769 770
1612 2 2 4 4 784 785 787
1613 2 2 4 4 785 784 783
1614 2 2 4 4 785 790 788
1615 2 2 4 4 786 768 769
1616 2 2 4 4 786 787 812
1617 2 2 4 4 787 786 784
1618 2 2 4 4 787 788 811
1619 2 2 4 4 788 787 785
1620 2 2 4 4 788 789 810
1621 2 2 4 4 789 788 790
1622 2 2 4 4 789 793 806
1623 2 2 4 4 790 785 782
1624 2 2 4 4 790 791 789
1625 2 2 4 4 791 790 780
1626 2 2 4 4 791 792 793
1627 2 2 4 4 792 791 781
1628 2 2 4 4 792 795 794
1629 2 2 4 4 793 789 791
1630 2 2 4 4 793 794 805
1631 2 2 4 4 794 793 792
1632 2 2 4 4 795 792 797
1633 2 2 4 4 796 797 798
1634 2 2 4 4 797 781 779
1635 2 2 4 4 797 796 795
1636 2 2 4 4 798 779 877
1637 2 2 4 4 798 799 796
1638 2 2 4 4 799 798 873
1639 2 2 4 4 800 801 802
1640 2 2 4 4 801 821 819
1641 2 2 4 4 801 800 833
1642 2 2 4 4 802 819 809
1643 2 2 4 4 802 803 800
1644 2 2 4 4 803 802 807
1645 2 2 4 4 804 807 806
1646 2 2 4 4 805 806 793
1647 2 2 4 4 806 810 789
1648 2 2 4 4 806 805 804
1649 2 2 4 4 807 809 810
1650 2 2 4 4 807 804 803
1651 2 2 4 4 808 815 812
1652 2 2 4 4 808 809 819
1653 2 2 4 4 809 808 811
1654 2 2 4 4 809 807 802
1655 2 2 4 4 810 811 788
1656 2 2 4 4 810 806 807
1657 2 2 4 4 811 812 787
1658 2 2 4 4 811 810 809
1659 2 2 4 4 812 813 786
1660 2 2 4 4 812 811 808
1661 2 2 4 4 813 687 768
1662 2 2 4 4 813 812 815
1663 2 2 4 4 814 686 687
1664 2 2 4 4 814 815 817
1665 2 2 4 4 815 814 813
1666 2 2 4 4 815 808 818
1667 2 2 4 4 816 685 686
1668 2 2 4 4 816 817 822
1669 2 2 4 4 817 816 814
1670 2 2 4 4 817 818 820
1671 2 2 4 4 818 817 815
1672 2 2 4 4 818 819 821
1673 2 2 4 4 819 818 808
1674 2 2 4 4 819 802 801
1675 2 2 4 4 820 822 817
1676 2 2 4 4 820 821 830
1677 2 2 4 4 821 820 818
1678 2 2 4 4 821 801 832
1679 2 2 4 4 822 823 816
1680 2 2 4 4 822 820 831
1681 2 2 4 4 823 680 685
1682 2 2 4 4 823 822 824
1683 2 2 4 4 824 825 823
1684 2 2 4 4 824 831 828
1685 2 2 4 4 825 679 680
1686 2 2 4 4 825 824 827
1687 2 2 4 4 826 678 679
1688 2 2 4 4 826 827 844
1689 2 2 4 4 827 826 825
1690 2 2 4 4 827 828 843
1691 2 2 4 4 828 827 824
1692 2 2 4 4 828 829 842
1693 2 2 4 4 829 828 831
1694 2 2 4 4 829 835 836
1695 2 2 4 4 830 831 820
1696 2 2 4 4 830 832 835
1697 2 2 4 4 831 824 822
1698 2 2 4 4 831 830 829
1699 2 2 4 4 832 830 821
1700 2 2 4 4 832 833 834
1701 2 2 4 4 833 832 801
1702 2 2 4 4 834 835 832
1703 2 2 4 4 835 829 830
1704 2 2 4 4 835 834 837
1705 2 2 4 4 836 842 829
1706 2 2 4 4 836 837 838
1707 2 2 4 4 837 836 835
1708 2 2 4 4 838 839 836
1709 2 2 4 4 839 840 842
1710 2 2 4 4 839 838 871
1711 2 2 4 4 840 841 843
1712 2 2 4 4 840 839 870
1713 2 2 4 4 841 846 844
1714 2 2 4 4 841 840 850
1715 2 2 4 4 842 843 828
1716 2 2 4 4 842 836 839
1717 2 2 4 4 843 844 827
1718 2 2 4 4 843 842 840
1719 2 2 4 4 844 845 826
1720 2 2 4 4 844 843 841
1721 2 2 4 4 845 657 678
1722 2 2 4 4 845 844 846
1723 2 2 4 4 846 847 845
1724 2 2 4 4 846 841 851
1725 2 2 4 4 847 656 657
1726 2 2 4 4 847 846 849
1727 2 2 4 4 848 655 656
1728 2 2 4 4 848 849 854
1729 2 2 4 4 849 848 847
1730 2 2 4 4 849 851 853
1731 2 2 4 4 850 851 841
1732 2 2 4 4 850 870 869
1733 2 2 4 4 851 849 846
1734 2 2 4 4 851 850 852
1735 2 2 4 4 852 853 851
1736 2 2 4 4 852 869 864
1737 2 2 4 4 853 854 849
1738 2 2 4 4 853 852 862
1739 2 2 4 4 854 855 848
1740 2 2 4 4 854 853 863
1741 2 2 4 4 855 650 655
1742 2 2 4 4 855 854 856
1743 2 2 4 4 856 857 855
1744 2 2 4 4 856 863 860
1745 2 2 4 4 857 649 650
1746 2 2 4 4 857 856 859
1747 2 2 4 4 858 648 649
1748 2 2 4 4 859 858 857
1749 2 2 4 4 860 859 856
1750 2 2 4 4 861 860 863
1751 2 2 4 4 862 863 853
1752 2 2 4 4 862 864 865
1753 2 2 4 4 863 856 854
1754 2 2 4 4 863 862 861
1755 2 2 4 4 864 862 852
1756 2 2 4 4 864 867 866
1757 2 2 4 4 865 861 862
1758 2 2 4 4 866 865 864
1759 2 2 4 4 867 864 869
1760 2 2 4 4 868 869 870
1761 2 2 4 4 869 852 850
1762 2 2 4 4 869 868 867
1763 2 2 4 4 870 850 840
1764 2 2 4 4 870 871 868
1765 2 2 4 4 871 870 839
1766 2 2 4 4 872 873 887
1767 2 2 4 4 873 877 878
1768 2 2 4 4 873 872 799
1769 2 2 4 4 874 875 881
1770 2 2 4 4 874 876 778
1771 2 2 4 4 875 263 258
1772 2 2 4 4 875 874 777
1773 2 2 4 4 876 874 880
1774 2 2 4 4 876 877 779
1775 2 2 4 4 877 876 879
1776 2 2 4 4 877 873 798
1777 2 2 4 4 878 879 884
1778 2 2 4 4 878 887 873
1779 2 2 4 4 879 880 882
1780 2 2 4 4 879 878 877
1781 2 2 4 4 880 881 883
1782 2 2 4 4 880 879 876
1783 2 2 4 4 881 258 257
1784 2 2 4 4 881 880 874
1785 2 2 4 4 882 883 897
1786 2 2 4 4 882 884 879
1787 2 2 4 4 883 257 240
1788 2 2 4 4 883 882 880
1789 2 2 4 4 884 882 896
1790 2 2 4 4 884 885 878
1791 2 2 4 4 885 884 895
1792 2 2 4 4 885 886 887
1793 2 2 4 4 886 885 894
1794 2 2 4 4 886 889 888
1795 2 2 4 4 887 878 885
1796 2 2 4 4 887 888 872
1797 2 2 4 4 888 887 886
1798 2 2 4 4 889 886 893
1799 2 2 4 4 890 893 892
1800 2 2 4 4 891 892 911
1801 2 2 4 4 892 901 902
1802 2 2 4 4 892 891 890
1803 2 2 4 4 893 894 901
1804 2 2 4 4 893 890 889
1805 2 2 4 4 894 895 900
1806 2 2 4 4 894 893 886
1807 2 2 4 4 895 896 898
1808 2 2 4 4 895 894 885
1809 2 2 4 4 896 897 899
1810 2 2 4 4 896 895 884
1811 2 2 4 4 897 240 239
1812 2 2 4 4 897 896 882
1813 2 2 4 4 898 899 905
1814 2 2 4 4 898 900 895
1815 2 2 4 4 899 239 234
1816 2 2 4 4 899 898 896
1817 2 2 4 4 900 898 904
1818 2 2 4 4 900 901 894
1819 2 2 4 4 901 900 903
1820 2 2 4 4 901 892 893
1821 2 2 4 4 902 903 908
1822 2 2 4 4 902 911 892
1823 2 2 4 4 903 904 906
1824 2 2 4 4 903 902 901
1825 2 2 4 4 904 905 907
1826 2 2 4 4 904 903 900
1827 2 2 4 4 905 234 233
1828 2 2 4 4 905 904 898
1829 2 2 4 4 906 907 920
1830 2 2 4 4 906 908 903
1831 2 2 4 4 907 233 168
1832 2 2 4 4 907 906 904
1833 2 2 4 4 908 906 921
1834 2 2 4 4 908 909 902
1835 2 2 4 4 909 908 919
1836 2 2 4 4 909 910 911
1837 2 2 4 4 910 909 918
1838 2 2 4 4 910 913 912
1839 2 2 4 4 911 902 909
1840 2 2 4 4 911 912 891
1841 2 2 4 4 912 911 910
1842 2 2 4 4 913 910 917
1843 2 2 4 4 914 917 916
1844 2 2 4 4 915 916 935
1845 2 2 4 4 916 925 926
1846 2 2 4 4 916 915 914
1847 2 2 4 4 917 918 925
1848 2 2 4 4 917 914 913
1849 2 2 4 4 918 919 924
1850 2 2 4 4 918 917 910
1851 2 2 4 4 919 921 923
1852 2 2 4 4 919 918 909
1853 2 2 4 4 920 168 167
1854 2 2 4 4 920 921 906
1855 2 2 4 4 921 920 922
1856 2 2 4 4 921 919 908
1857 2 2 4 4 922 167 162
1858 2 2 4 4 922 923 921
1859 2 2 4 4 923 922 928
1860 2 2 4 4 923 924 919
1861 2 2 4 4 924 923 929
1862 2 2 4 4 924 925 918
1863 2 2 4 4 925 924 927
1864 2 2 4 4 925 916 917
1865 2 2 4 4 926 927 932
1866 2 2 4 4 926 935 916
1867 2 2 4 4 927 929 931
1868 2 2 4 4 927 926 925
1869 2 2 4 4 928 162 161
1870 2 2 4 4 928 929 923
1871 2 2 4 4 929 928 930
1872 2 2 4 4 929 927 924
1873 2 2 4 4 930 161 144
1874 2 2 4 4 930 931 929
1875 2 2 4 4 931 930 944
1876 2 2 4 4 931 932 927
1877 2 2 4 4 932 931 945
1878 2 2 4 4 932 933 926
1879 2 2 4 4 933 932 943
1880 2 2 4 4 933 934 935
1881 2 2 4 4 934 933 942
1882 2 2 4 4 934 937 936
1883 2 2 4 4 935 926 933
1884 2 2 4 4 935 936 915
1885 2 2 4 4 936 935 934
1886 2 2 4 4 937 934 941
1887 2 2 4 4 938 941 940
1888 2 2 4 4 939 940 959
1889 2 2 4 4 940 949 950
1890 2 2 4 4 940 939 938
1891 2 2 4 4 941 942 949
1892 2 2 4 4 941 938 937
1893 2 2 4 4 942 943 948
1894 2 2 4 4 942 941 934
1895 2 2 4 4 943 945 947
1896 2 2 4 4 943 942 933
1897 2 2 4 4 944 144 143
1898 2 2 4 4 944 945 931
1899 2 2 4 4 945 944 946
1900 2 2 4 4 945 943 932
1901 2 2 4 4 946 143 138
1902 2 2 4 4 946 947 945
1903 2 2 4 4 947 946 952
1904 2 2 4 4 947 948 943
1905 2 2 4 4 948 947 953
1906 2 2 4 4 948 949 942
1907 2 2 4 4 949 948 951
1908 2 2 4 4 949 940 941
1909 2 2 4 4 950 951 956
1910 2 2 4 4 950 959 940
1911 2 2 4 4 951 953 955
1912 2 2 4 4 951 950 949
1913 2 2 4 4 952 138 137
1914 2 2 4 4 952 953 947
1915 2 2 4 4 953 952 954
1916 2 2 4 4 953 951 948
1917 2 2 4 4 954 955 953
1918 2 2 4 4 955 956 951
1919 2 2 4 4 956 957 950
1920 2 2 4 4 957 958 959
1921 2 2 4 4 958 961 960
1922 2 2 4 4 959 950 957
1923 2 2 4 4 959 960 939
1924 2 2 4 4 960 959 958
$EndElements
